<?xml version="1.0" standalone="no"?>
<!DOCTYPE svg PUBLIC "-//W3C//DTD SVG 1.1//EN" "http://www.w3.org/Graphics/SVG/1.1/DTD/svg11.dtd" >
<svg xmlns="http://www.w3.org/2000/svg" xmlns:xlink="http://www.w3.org/1999/xlink" version="1.1">
<metadata>
Created by FontForge 20161003 at Fri Jul  7 06:30:36 2017
 By www-data
Copyright (c) 2013 by ssw.lixter.com. All rights reserved.
</metadata>
<defs>
<font id="OlChikiBivash-Shadow" horiz-adv-x="2048" >
  <font-face 
    font-family="Ol Chiki Bivash Shadow"
    font-weight="700"
    font-stretch="normal"
    units-per-em="2048"
    panose-1="0 0 0 0 0 0 0 0 0 0"
    ascent="1638"
    descent="-410"
    x-height="1510"
    cap-height="1541"
    bbox="6 -397 2672 1996"
    underline-thickness="102"
    underline-position="-198"
    unicode-range="U+0008-2122"
  />
<missing-glyph horiz-adv-x="1024" 
d="M1024 1638h-768v-1638h768v1638zM896 1510v-1382h-512v1382h512z" />
    <glyph glyph-name=".notdef" horiz-adv-x="1024" 
d="M1024 1638h-768v-1638h768v1638zM896 1510v-1382h-512v1382h512z" />
    <glyph glyph-name=".null" horiz-adv-x="0" 
 />
    <glyph glyph-name="nonmarkingreturn" horiz-adv-x="682" 
 />
    <glyph glyph-name="controlBS" horiz-adv-x="0" 
 />
    <glyph glyph-name="controlHT" unicode="&#x9;" horiz-adv-x="0" 
 />
    <glyph glyph-name="controlHT" unicode="&#xd;" horiz-adv-x="0" 
 />
    <glyph glyph-name="controlGS" horiz-adv-x="0" 
 />
    <glyph glyph-name="space" unicode=" " horiz-adv-x="1500" 
 />
    <glyph glyph-name="exclam" unicode="!" horiz-adv-x="503" 
d="M503 1128v391h-303v-391l48 -741h211zM250 94q0 -24 13 -44q11 -15 32 -29q13 -8 41 -16q25 -5 38 -5q16 0 37 7q15 6 33 20q17 15 25 30q11 19 11 37q2 17 -3 41q-3 22 -13 50q-9 26 -20 45q-13 23 -25 30q-8 6 -22 9q-9 3 -30 3q-20 0 -36 -5q-15 -4 -35 -17
q-12 -9 -21 -31q-7 -15 -14 -47q-6 -25 -9 -47q-2 -15 -2 -31zM276 1436v-306l25 -663l105 5l25 653l-10 311h-145zM503 1128v391h-303v-391l48 -741h211zM250 94q0 -24 13 -44q11 -15 32 -29q13 -8 41 -16q25 -5 38 -5q16 0 37 7q15 6 33 20q17 15 25 30q11 19 11 37
q2 17 -3 41q-3 22 -13 50q-9 26 -20 45q-13 23 -25 30q-8 6 -22 9q-9 3 -30 3q-20 0 -36 -5q-15 -4 -35 -17q-12 -9 -21 -31q-7 -15 -14 -47q-6 -25 -9 -47q-2 -15 -2 -31zM276 1436v-306l25 -663l105 5l25 653l-10 311h-145z" />
    <glyph glyph-name="quotedbl" unicode="&#x22;" horiz-adv-x="914" 
d="M922 1614h-286l35 -465h217zM502 1614h-286l34 -465h217zM715 1541l5 -331l96 5l35 326h-136zM274 1556l20 -321l115 -5l20 316zM922 1614h-286l35 -465h217zM502 1614h-286l34 -465h217zM715 1541l5 -331l96 5l35 326h-136zM274 1556l20 -321l115 -5l20 316z" />
    <glyph glyph-name="numbersign" unicode="#" horiz-adv-x="1560" 
d="M718 1488l-76 -335h-319l-18 -277h277l-64 -283h-300l-18 -278h258l-75 -315h208l75 315h243l-75 -315h208l75 315h319l18 278h-277l65 283h299l19 277h-258l76 335h-209l-76 -335h-243l76 335h-208zM1036 877l-66 -286h-247l66 286h247zM748 1401l-81 -307l-306 -15
l-10 -130l296 -5l-80 -402l-301 -10l-5 -150l256 10l-86 -337l111 5l75 322l352 -5l-71 -312h96l65 296l306 21l25 150l-296 -10l95 417l282 20l25 125l-261 10l70 342l-95 -20l-76 -332l-371 5l80 312h-95zM823 813l-40 -155h115l50 155h-125z" />
    <glyph glyph-name="dollar" unicode="$" horiz-adv-x="1448" 
d="M1448 517q0 55 -25 102q-24 49 -67 87q-43 40 -101 66q-59 27 -125 39q-2 1 -6.5 1.5t-8.5 1.5t-11.5 2.5t-13.5 2.5q-32 7 -61 12q-22 5 -62 13q-26 5 -42 7v287q11 -1 71 -5q54 -4 83 -8q48 -5 77 -10q38 -6 54 -13q40 -14 86 -23q56 -10 92 -23h12v211q-13 5 -40 12
q-18 5 -51 10q-20 5 -55 10q-10 2 -28 5t-23 4q-29 5 -62 8q-38 5 -79 6q-28 2 -78 4q-13 1 -59 1v251h-198v-252q-45 -3 -105 -9q-66 -7 -116 -17q-59 -11 -106 -28q-51 -17 -77 -41q-39 -36 -61 -66q-20 -27 -37 -65q-14 -34 -20 -63q-5 -25 -5 -60q0 -47 18 -98
q17 -46 55 -92q39 -44 92 -76q55 -33 128 -49q13 -3 45 -9q36 -7 67 -13q48 -8 70 -12q46 -8 52 -9v-253q-7 0 -87 5q-68 6 -103 10q-44 5 -97 14q-53 11 -67 15q-14 6 -42 16q-28 12 -44 19q-8 4 -20.5 10t-16.5 8q-4 3 -12.5 7.5t-11.5 6.5h-14v-231q37 -14 101 -28
q74 -14 135 -23q71 -9 146 -15q63 -5 133 -5v-239h198v243q45 5 102 15q52 11 114 27q63 18 105 34q46 18 75 39q29 22 51 46q24 27 40 56q18 30 27 60q9 27 9 61zM727 864l-32.5 6.5t-34.5 6.5q-22 5 -62 15q-5 2 -24 7.5t-28 8.5q-26 11 -35 17q-26 19 -37 36
q-10 16 -12 55q0 24 16 39q17 15 50 35q17 11 40 18q16 6 52 14q39 8 55 10q29 5 52 6v-274zM1204 478q0 -39 -24 -60q-22 -19 -62 -30q-36 -8 -89 -13q-68 -4 -104 -7v237q40 -6 61 -8q37 -3 60 -7q34 -3 51 -8q25 -5 36 -13q18 -12 26 -18q18 -12 23 -18q9 -8 16 -23
q6 -12 6 -32zM773 1516l105 10l-25 -196l55 -55l71 -5h100h80q0 -2 21.5 -4.5t43.5 -3.5l21 -2l100 -25l5 -131l-65 41l-116 30l-135 20l-121 5l-55 -15l5 -231l5 -121l80 -45l86 -5l135 -55l101 -45l70 -55l40 -91l-25 -75l-30 -85l-80 -51l-86 -35l-105 -35l-121 -10
l-65 -10l15 -246h-110l5 201l-40 40h-106l-95 -5l-101 25l-95 15l-80 25l5 111l60 -25l90 -26l91 -15l125 -20h131v372l-56 15l-90 25l-135 45l-126 70l-85 141l35 126l90 85l141 50l130 40l111 -5zM964 547h70l55 -20l35 -50l-55 -35l-55 -15l-50 -15v135zM667 1084h-10
l-15 5l-50 -15l-50 -25l-30 -30l45 -55l60 -20l60 -15z" />
    <glyph glyph-name="percent" unicode="%" horiz-adv-x="1802" 
d="M532 1412q-70 0 -130 -28q-60 -27 -105 -75q-44 -47 -71 -110q-26 -64 -26 -134t26 -136q27 -63 71 -110q43 -45 106 -73q61 -27 129 -27t128 27q59 27 105 74q47 50 71 110q26 62 26 135t-26 134q-25 62 -71 111q-45 48 -105 75q-57 27 -128 27zM532 1261q19 0 36 -16
q17 -14 30 -43q14 -27 21 -63q8 -32 8 -74q0 -43 -8 -75q-7 -36 -21 -63q-11 -25 -31 -43q-19 -16 -35 -16q-17 0 -36 16q-17 17 -30 43q-10 22 -20 63q-7 34 -7 75q0 37 8 75q10 39 20 62q15 30 29 43q17 16 36 16zM1472 767q-70 0 -130 -28q-60 -27 -105 -75
q-44 -47 -71 -110q-26 -64 -26 -134t26 -136q27 -63 71 -110q43 -45 106 -73q61 -27 129 -27t128 27q59 27 105 74q47 50 71 110q26 62 26 135t-26 134q-25 62 -71 111q-45 48 -105 75q-57 27 -128 27zM1472 616q19 0 36 -16q17 -14 30 -43q14 -27 21 -63q8 -32 8 -74
q0 -43 -8 -75q-7 -36 -21 -63q-11 -25 -31 -43q-19 -16 -35 -16q-17 0 -36 16q-17 17 -30 43q-10 22 -20 63q-7 34 -7 75q0 37 8 75q10 39 20 62q15 31 29 43q17 16 36 16zM1575 1524h-277l-850 -1524h278zM527 60l788 1426l156 -5l-784 -1421h-160zM1204 512l-15 -85
l26 -91l55 -80l70 -85l95 -25l116 -5l90 55l66 90l20 156l-86 170l-105 71l-141 -5l-115 -50zM1440 512l61 10l20 -45l-5 -60l-15 -86l-30 -35l-26 30l-20 91zM296 1160l-40 -106l25 -100l75 -80l65 -51l126 -25l90 10l65 40l66 86l-10 145l-46 151l-115 90h-141l-100 -50z
M487 1160l5 10l5 15l50 -5l30 -35v-61l-15 -75l-30 -65l-35 50l-25 100z" />
    <glyph glyph-name="ampersand" unicode="&#x26;" horiz-adv-x="1453" 
d="M539 275q-33 0 -33 31v288q0 27 11 44q11 16 38 16h437l48 -186l-236 -193h-265zM592 955q0 16 -1 33q0 15 -2 61q0 12 -0.5 36.5t-0.5 37.5q0 38 3 71q3 35 7 53q6 21 13 21h525l-72 256h-632q-83 0 -122 -39t-39 -101v-289q0 -17 2 -49q3 -27 11 -46q11 -22 32 -40
q22 -18 62 -31q-32 3 -68 -7q-32 -9 -57 -28q-23 -17 -39 -49q-14 -28 -14 -69v-616q0 -38 13 -71q12 -27 35 -50q20 -18 51 -29q33 -10 59 -10h428q31 0 64 11q32 12 56 31l206 174l50 -216h291l-232 933h-629v22zM1004 1466q-573 -10 -578 -10l-65 -20l-35 -70l20 -352
l65 -35l25 -65l-40 -35l-80 -36l-55 -75l5 -597l40 -61l65 -35l397 5h50l60 30l241 211l85 -261l176 5l-216 788l-617 16l-15 40l-15 70l5 115l5 76l20 85l10 65l497 10zM552 587l381 31l20 -131l-170 -136l-211 -15z" />
    <glyph glyph-name="quotesingle" unicode="'" horiz-adv-x="486" 
d="M486 1614h-286l35 -465h217zM246 1551l20 -341l130 5l40 336h-190z" />
    <glyph glyph-name="parenleft" unicode="(" horiz-adv-x="791" 
d="M795 -69q-27 42 -65 121q-26 59 -59 150q-34 103 -52 166q-16 58 -40 166q-17 81 -27 153q-9 72 -9 124q0 124 12 241q12 115 41 231q29 112 78 221q52 113 121 211l-245 55q-89 -106 -157 -232q-65 -123 -109 -253q-43 -130 -62 -251q-19 -128 -13 -225q3 -50 16 -132
q14 -75 34 -152q19 -72 50 -165q31 -86 64 -167q35 -79 76 -159q49 -89 85 -142zM556 1697l115 -40l-75 -136l-75 -211l-40 -256l-16 -246l21 -236l50 -170q2 -2 12 -41t19 -77l9 -38l65 -136l60 -140l-135 -15l-65 110l-51 156l-50 166l-55 165l-45 256l20 221l35 251
l90 221z" />
    <glyph glyph-name="parenright" unicode=")" horiz-adv-x="790" 
d="M461 -108q74 124 133 250q55 114 99 243q40 112 65 226q23 105 28 198q6 103 -15 226q-21 129 -62 251q-40 123 -110 252q-66 126 -154 232l-245 -55q76 -109 122 -214q47 -102 77 -219q28 -105 41 -228q12 -117 12 -243q0 -56 -10 -125q-10 -80 -26 -152
q-14 -70 -41 -167q-28 -99 -51 -165q-27 -80 -60 -150q-34 -75 -64 -121zM296 1657l105 -201l40 -156l71 -236l15 -251l-10 -211l-51 -200l-65 -181q-2 0 -14.5 -27.5t-24.5 -55.5l-11 -28l-55 -130l130 -35l126 226l50 211l70 185l40 231l-10 211l-80 261l-80 241l-121 191
z" />
    <glyph glyph-name="asterisk" unicode="*" horiz-adv-x="943" 
d="M200 1168q23 -13 61 -21q49 -8 79 -10q28 -2 82 -2q28 1 72 1q-12 -8 -52 -40q-32 -27 -58 -53q-28 -28 -55 -58q-26 -30 -40 -56l161 -114q26 23 43 54q20 35 34 72q15 40 24 76q9 33 16 65q13 -30 28 -62q6 -12 17.5 -34t17.5 -34q4 -7 12 -20.5t14.5 -24.5t12.5 -21
q19 -28 41 -52l163 113q-13 30 -42 57q-26 28 -61 53q-26 20 -67 45q-31 20 -58 34q37 0 71 5q36 5 82 15q51 13 81 22q38 13 64 27l-60 165q-27 -1 -64 -17q-34 -14 -72 -37q-36 -21 -72 -45q-42 -29 -60 -43q16 59 19 69q8 24 20 70q7 24 15 66q6 35 4 55h-205
q-4 -22 0 -54q0 -1 4.5 -26.5t8.5 -39.5q9 -34 21 -72q6 -20 20 -69q-21 16 -56 39q-26 16 -69 38q-42 21 -72 31q-38 14 -65 17zM632 1084l50 116v-5h11h1v0h-1h-1h-1h-1h-1h-1h-2h-9l10 -5l-40 10h-10l246 30l-30 75l-201 -105l-15 -101l156 -125l-81 -60zM256 1210
l216 -5l-166 75zM512 1446l50 -186l45 186h-95zM356 949l5 5l146 115l-81 -170z" />
    <glyph glyph-name="plus" unicode="+" horiz-adv-x="1373" 
d="M646 596v-472h282v472h445v275h-445v482h-282v-482h-446v-275h446zM707 1270l-20 -457l-431 -5l-15 -150l451 5l5 -462h171l5 442l427 15l-5 135l-422 -5l-15 492z" />
    <glyph glyph-name="comma" unicode="," horiz-adv-x="689" 
d="M689 331h-358l-131 -487l231 5zM356 261l-90 -346l115 5l196 351z" />
    <glyph glyph-name="hyphen" unicode="-" horiz-adv-x="1369" 
d="M200 861v-262h1169v262h-1169zM261 808l1039 -25l-15 -130l-1024 5v150z" />
    <glyph glyph-name="period" unicode="." horiz-adv-x="554" 
d="M554 288h-354v-286h354v286zM246 221v-161h236l5 171z" />
    <glyph glyph-name="slash" unicode="/" horiz-adv-x="1059" 
d="M517 0l542 1515l-295 6l-564 -1521h317zM256 45l205 30l503 1366l-161 -5z" />
    <glyph glyph-name="zero" unicode="0" horiz-adv-x="1817" 
d="M217 1525q-7 -74 -19 -226q-6 -95 -8 -227q0 -94 7 -227q8 -118 25 -224q22 -134 53 -246q31 -106 87 -185q58 -78 146 -122q90 -45 227 -57q122 -10 263 -13q148 -2 265 1q91 2 266 10q89 5 263 15q20 204 23 429q3 214 -30 427q-22 144 -52 253q-30 114 -88 200
q-57 86 -146 136q-89 52 -226 64q-112 11 -260 14q-132 3 -267 0q-133 -1 -268 -9q-165 -7 -261 -13zM1467 824q9 -68 12 -129q4 -53 4 -121q2 -66 -1 -120q-1 -33 -5 -127q-45 -3 -115 -6q-23 -1 -69 -2t-70 -2q-96 -2 -146 -2q-52 0 -138 2q-76 4 -113 7q-56 7 -71 12
q-65 24 -104 54q-36 29 -60 72q-21 42 -33 94q-6 31 -18 121q-6 60 -12 129q-6 90 -8 140q-3 72 -3 140q0 70 3 131q65 6 120 8q47 3 140 5q49 2 147 2q95 0 137 -2q59 -1 114 -8q53 -6 74 -14q65 -22 104 -61q41 -40 61 -86q23 -49 32 -109q11 -62 18 -128zM321 1431
l5 -121l-25 -110v-151l-15 -155l15 -191l45 -211l70 -211l111 -95l211 -81l236 -20h236l170 5h166l161 10l20 91l-5 201q2 7 7 55.5t9 94.5l4 45l-45 261l-41 236l-100 151q0 2 -26 29.5t-52 53.5l-27 27l-136 81l-211 15l-206 40q-9 2 -54 -3t-86 -11l-40 -6l-226 -30h-171
zM617 1094l-20 -60l10 -55l5 -60l20 -101l15 -70v-151l30 -55l86 -85l105 -30l70 -10l106 -20l105 -15l86 -10l150 30v85l15 90l-10 131q-2 4 -7 36.5t-9 63.5l-4 30l-50 136l-60 80l-76 35l-75 15h-150l-171 -5z" />
    <glyph glyph-name="one" unicode="1" horiz-adv-x="1867" 
d="M201 1473q0 -18 -0.5 -53.5t-0.5 -52.5v-102v-329v-139q0 -23 0.5 -67.5t0.5 -66.5v-40v-45v-37q0 -20 0.5 -55t0.5 -50q2 -48 3 -80q1 -12 2 -28t1 -20q4 -24 14 -62q10 -31 31 -62q21 -30 57 -60q38 -30 91 -53q54 -23 135 -43q76 -17 185 -28q79 -6 171 -3
q91 4 188 15q107 13 192 28q104 19 182 37q9 2 28 6.5t29 7.5q11 3 32.5 8t32.5 8l69 18q32 8 67 18q33 10 77 22q12 4 25 7.5t28.5 7.5t24.5 6l-37 277l-155 -35q-31 -6 -66 -15q-11 -3 -33.5 -7.5t-33.5 -6.5q-26 -5 -63 -14q-50 -10 -54 -11q-81 -16 -165 -33
q-141 -25 -159 -28q-8 -1 -139 -20q-59 -7 -103 -7q-47 0 -92 6q-43 6 -80 15q-25 6 -61 19q-23 10 -32 16q-26 23 -45 67q-17 45 -17 113l1 551l682 -463l339 83l-4 782h-346l-2 -467l-647 467zM266 1381v-427l10 -90l20 -116v-105l-5 -166l-10 -95l5 -121l130 -110
l126 -31l160 -35h186l161 5l161 20l165 26l126 35l145 25l136 30l-35 125l-91 -20l-110 -5l-75 -10q0 -2 -24 -11t-48 -17l-24 -7l-125 -20l-91 -25l-160 -35l-176 10l-171 20l-55 55l-65 45q0 2 -19 20t-38 35l-19 16l-10 115l26 658l768 -477l231 70l15 638l-216 15
l-5 -542l-688 461z" />
    <glyph glyph-name="two" unicode="2" horiz-adv-x="1762" 
d="M938 916q-43 3 -79 14q-35 11 -70 34q-31 24 -50 55q-18 33 -15 76q1 17 18 31t44 23q29 11 61 17q31 7 69 10q37 5 66 6q22 2 56 2q54 0 88 -2q66 -2 101 -4q51 -3 93 -9q50 -7 64 -13q39 -14 53 -37q16 -22 15 -47q0 -25 -16 -48q-14 -22 -43 -38q-14 -8 -49 -18
q-16 -4 -75 -17l-90 -15q-14 -2 -29.5 -4t-34.5 -4.5t-29 -3.5q-23 -2 -84 -7q-13 -1 -64 -1zM1325 642q115 26 186 52q79 28 124 56q48 29 76 65q25 34 38 78q13 47 13 94q1 52 0 115q-2 87 -36 150q-32 63 -93 107q-56 42 -144 67q-87 25 -185 32q-125 10 -230 7
q-108 -1 -215 -14q-106 -12 -186 -35q-89 -24 -141 -54q-58 -32 -94 -82q-33 -48 -48 -99q-14 -46 -12 -100q3 -51 14 -82q14 -40 42 -80q32 -43 55 -69q23 -23 34 -35q6 -5 17.5 -16t17.5 -17q-57 -14 -111 -33q-43 -16 -95 -41q-55 -28 -82 -52q-20 -19 -33 -44
q-13 -28 -21 -54q-8 -32 -11 -61q-3 -31 -3 -61q0 -34 3 -72q4 -52 8 -76q9 -56 56 -106q46 -48 126 -86q77 -36 181 -60q99 -21 220 -23q137 -2 240 4q101 5 203 17q119 15 167 24q95 19 133 28q87 23 124 35q45 15 99 38v313q-65 -25 -122 -44q-54 -18 -129 -38
q-60 -16 -124 -30q-67 -15 -139 -27t-150 -21q-53 -6 -158 -10q-38 0 -62 2q-35 3 -76 9q-26 4 -80 16q-36 10 -71 24q-35 17 -53 32q-19 16 -22 39q-3 40 52 64q58 27 154 47q69 15 239 45q128 22 304 62zM493 1215l-26 -90v-81l46 -110l95 -86l80 -45l-65 -50l-90 -5
l-91 -90l-120 -81l-30 -140l-5 -116l105 -120l126 -75l140 -46l141 -15h130l186 15l146 35l221 31l195 60l41 186l-56 -26l-150 -45l-131 -35l-140 -20q-2 -2 -38.5 -7t-72.5 -9l-35 -4l-125 5l-146 -5l-126 10l-160 45q-2 0 -14.5 21.5t-23.5 43.5l-12 21l40 130l150 85
l196 51l201 10l211 60q4 0 41.5 15t72.5 30l36 15l86 45l60 41l75 85l15 95l-25 106q-2 0 -12 13.5t-19 27.5l-9 14l-75 90l-91 25l-135 41l-171 20l-221 -36l-160 -15l-166 -25zM824 1079l40 -85l101 -20h65h120l116 25l60 25l25 60q0 2 -15 10t-30 14l-15 7l-101 15
l-155 -10h-106z" />
    <glyph glyph-name="three" unicode="3" horiz-adv-x="1834" 
d="M930 1156q33 -18 44 -46q11 -24 3 -52q-6 -25 -27 -46q-20 -20 -48 -26q-53 -12 -120 -4q-76 10 -129 28q-54 19 -83 37q-28 17 -23 48q3 26 26 43q24 18 54 28q30 11 70 14q35 4 72 4q64 0 99 -8q42 -8 62 -20zM1783 481q-17 -5 -87 -24t-107 -29q-97 -25 -184 -45
q-67 -16 -155 -36q-31 -7 -87.5 -18.5t-62.5 -12.5q-62 -12 -133 -22q-53 -8 -100 -8q-16 0 -43.5 0.5t-38.5 0.5q-56 2 -61 3q-23 2 -47 6q-31 7 -38 9q-6 2 -12 4.5t-13 5.5t-10 4q-12 6 -24 20q-11 16 -16 34q-4 15 -6 56q4 20 42 40q40 22 100 45q48 20 144 55
q89 34 174 73q63 -21 138 -36q64 -12 149 -21q80 -7 182 1q60 6 108 19q56 16 93 43q42 30 72 78q31 49 49 122q4 16 7 56q2 25 2 85q0 66 -1 102q0 54 -3 108q-1 64 -6 133q-4 94 -8 143h-302q5 -79 6 -146q2 -43 4 -129q2 -68 2 -102q1 -45 -2 -90q-2 -48 -5 -67
q-3 -26 -11 -29q-37 -16 -80 -21q-39 -3 -77 2q-7 1 -21 3.5t-21 3.5q-10 2 -41 11q27 22 43 46q17 22 32 59q15 36 18 86q5 81 -33 141q-35 60 -103 103q-68 45 -154 71q-81 27 -187 41q-89 13 -174 7q-87 -6 -149 -23q-73 -18 -116 -39q-53 -25 -74 -41q-37 -28 -66 -70
q-28 -39 -50 -91q-18 -44 -26 -102q-6 -56 2 -100q7 -37 26 -70q22 -34 43 -55q28 -26 54 -42q26 -15 58 -29q24 -9 72 -25q27 -8 79 -15q-53 -5 -102 -18q-37 -9 -89 -32q-46 -21 -79 -57q-23 -26 -35 -56q-13 -35 -20 -67q-6 -35 -9 -70q-1 -24 -1 -66q0 -9 0.5 -28
t1.5 -27q3 -24 3 -34q5 -48 25 -94t76 -91q58 -44 154 -76q95 -32 257 -47q81 -6 171 -3q108 5 183 15q105 13 185 28q100 19 176 37q127 30 198 50q81 22 197 59zM1566 1391l-20 -76l15 -95l10 -80l5 -126l-20 -100l-45 -71l-106 -25l-135 15q0 2 -20 3.5t-40 1.5h-21
l10 81l36 105q4 0 11.5 28t13.5 56l5 27l-96 135l-135 50l-121 61h-140h-141l-140 -51q0 -4 -26.5 -10.5t-53.5 -10.5l-26 -4l-75 -135l-25 -126l50 -115l95 -71q2 -3 27.5 -11.5l49.5 -16.5l24 -7l90 10l45 -70l-80 -50l-146 -50l-105 -66l-60 -115l-5 -136l85 -150
l131 -81l165 -50h186h171l150 30l126 10l115 41l121 25l125 30l116 15l-30 181l-76 -31l-135 -35l-111 -35l-120 -5l-106 -50l-135 -20h-146l-155 -25l-166 35l-95 65l-16 111l11 50l85 90l176 86l110 70l110 30l121 -40l161 -30l195 -15l121 35q0 2 25 17t50 29l25 14
q0 2 15.5 19.5t30.5 33.5l15 17l30 106l10 115l5 166q2 0 -8 48t-21 96l-11 47h-161zM637 1110l5 -46l60 -15l66 -15h85l55 5v55l-50 51l-120 -15z" />
    <glyph glyph-name="four" unicode="4" horiz-adv-x="1878" 
d="M1394 363q-177 -36 -304 -57q-121 -20 -221 -20q-47 0 -89 6q-40 6 -74 15q-20 6 -54 19q-24 12 -30 16q-14 12 -29 29q-17 21 -27 39q-12 23 -19 50q-6 30 -5 62q4 38 8 56q6 25 18 53q5 13 31 64q1 2 18 33.5t28 51.5l87 -60q17 -12 90 -59q20 -12 57 -34.5t48 -29.5
q85 -48 132 -76q26 -14 118 -63q74 -37 109 -53q36 -16 108 -42zM1841 481q-2 1 -46 19q-12 5 -38.5 16.5t-40.5 17.5q-15 7 -105 46q-18 8 -58.5 26.5t-62.5 29.5q-44 21 -130 63q-24 12 -129 67q-83 47 -142 85q-16 11 -44 29t-49 32.5t-39 26.5l-69 48q-54 39 -68 49
q12 26 36 67q7 12 23.5 40t25.5 43q25 41 55 89q11 16 29 45t25 40q10 16 25.5 40t19.5 30l30 45h-358q-3 -5 -24.5 -33.5t-37.5 -51.5q-15 -21 -93 -134q-69 -101 -108 -161q-61 -94 -105 -166q-57 -96 -85 -151q-32 -61 -46 -114q-31 -130 -31 -219q2 -90 18 -137
q2 -4 17 -44q14 -32 31 -57q22 -32 56 -64q30 -28 90 -61q52 -27 133 -50q81 -22 185 -32q81 -6 172 -3q111 5 188 15q107 13 192 28q104 19 182 37q130 30 205 50q96 26 208 59zM773 1396l-81 -86l-35 -90l-85 -141l-116 -150l-90 -151l-55 -125l-30 -196v-111l40 -95
l75 -50l65 -60l136 -66l146 -5l145 -15l176 20l201 30l165 41l221 35l151 45l-30 211l-76 50l-130 50l-146 65l-125 66l-111 45l-125 65l-126 101q-4 0 -33 11.5t-56 22.5l-26 11l-95 95l246 387zM647 668l532 -312l-55 -5l-105 -10h-121l-105 5l-91 20l-60 41l-40 65l15 95
z" />
    <glyph glyph-name="five" unicode="5" horiz-adv-x="1878" 
d="M1738 521q-50 30 -98 58q-19 12 -52.5 32.5t-47.5 29.5q-74 48 -100 88q-26 41 -23 82q3 40 24 79q30 52 46 78q3 5 22.5 37t31.5 51q8 13 29.5 47t33.5 53q22 35 66 103q11 17 31.5 48.5t29.5 46.5q25 40 47 75q18 29 26 46h-338q-9 -12 -33 -45q-7 -10 -25 -35t-30 -40
q-32 -42 -69 -93q-56 -77 -71 -97q-12 -17 -33 -47t-30 -43q-26 -38 -46 -70q-5 -8 -25.5 -42t-32.5 -53q-31 -52 -47 -95q-17 -47 -19 -96q0 -45 28 -92q11 -18 35 -42q9 -8 25.5 -23t24.5 -22q15 -12 60 -44q22 -14 62 -42q72 -46 156 -93l-63 -14l-88 -16
q-16 -2 -103 -17q-36 -6 -104 -14q-23 -3 -96 -10q-60 -4 -75 -4q-93 0 -164 15q-69 15 -101 41q-26 24 -51 68q-23 47 -29 112q-3 32 20 92q28 69 61 132q34 66 90 156q37 62 105 163q71 107 136 198q50 71 153 212h-358q-44 -61 -61 -84q-52 -73 -92 -132q-18 -27 -54 -80
t-53 -78q-48 -72 -104 -166q-56 -95 -86 -152q-35 -68 -49 -119q-16 -56 -26 -120q-6 -45 -8 -98q0 -43 6 -79q6 -33 15 -59q2 -4 17 -44q14 -32 31 -57q22 -32 56 -64q30 -28 90 -61q52 -27 133 -50q81 -22 185 -32q81 -6 172 -3q111 5 188 15q107 13 192 28q104 19 182 37
q130 30 205 50q96 26 208 59l-37 277zM741 1401l-372 -608l-60 -130l-45 -186l45 -181l80 -110l116 -71l135 -20l151 -40l145 -5l161 20l196 50l125 21l101 25l291 70l-20 136l-25 85l-86 40l-95 45l-65 25l-65 81q-2 0 -20 16t-34 32l-17 17l-15 90q2 0 4.5 19t3.5 38l2 19
l332 537l-211 15l-317 -467l-55 -95v-141l45 -100l101 -101l115 -60l101 -75l-25 -66l-131 -25l-131 -30l-165 -30l-141 -20h-125l-131 25l-85 50l-75 91q-2 0 -10 31.5t-14 62.5l-7 31l36 166l85 155l115 201l86 176l165 191h-195z" />
    <glyph glyph-name="six" unicode="6" horiz-adv-x="1859" 
d="M1522 1047q0 -40 -17 -73q-16 -32 -49 -59q-32 -25 -75 -40q-41 -14 -95 -14q-52 0 -103 15q-48 15 -87 46q-38 33 -61 81q-22 50 -22 118q0 15 23 29q20 13 61 24q28 9 87 16q50 6 102 6t96 -9q43 -9 75 -27q31 -17 48 -46q17 -25 17 -67zM1820 463q-104 -30 -156 -44
q-50 -13 -162 -39l-152 -32q-75 -14 -166 -28q-109 -15 -176 -22q-91 -9 -177 -12q-91 -3 -165 14q-72 18 -101 42q-28 25 -40 66q-12 42 -3 114q4 32 20 76q17 42 37 86q27 53 47 88q27 45 51 84q40 63 45 71q6 10 12 19.5l12 19t8 13.5q4 -34 8 -50q9 -35 14 -50
q15 -41 47 -92q36 -52 89 -94q56 -44 112 -69q55 -24 108 -34q54 -9 105 -9t102 3q67 5 118 15q59 13 97 30q51 24 84 48q39 29 81 71q35 35 56 80q23 49 31 97q9 46 9 113q0 69 -8 129q-8 70 -43 119q-36 53 -84 84q-49 34 -107 55q-55 20 -110 31q-48 11 -131 17
q-85 7 -160 4q-86 -2 -160 -13q-80 -11 -134 -32q-47 -18 -95 -42q-38 -18 -83 -50q-39 -27 -79 -64q-36 -34 -80 -85q-48 -55 -101 -133q-56 -83 -93 -147q-46 -81 -74 -139q-34 -74 -43 -108q-16 -56 -26 -120q-6 -45 -8 -98q0 -43 6 -79q6 -33 15 -59q2 -4 17 -44
q14 -32 31 -57q22 -32 56 -64q30 -28 90 -61q52 -27 133 -50q81 -22 185 -32q81 -6 171 -3q111 5 186 15q102 13 188 28q102 19 179 37q100 23 202 51q121 33 202 58zM811 1310l-191 -175l-115 -141l-126 -181l-85 -175l-25 -196l20 -116l70 -110l90 -85l171 -36l231 -5
l191 5l160 10q0 2 38 8.5t76 12.5l37 5l141 20l140 30l146 45l-40 156l-141 -51l-105 5l-116 -50l-186 -30h-125l-121 -35l-135 5l-126 5l-130 30l-91 70l-25 156l25 141l51 130l70 80q2 0 14.5 26.5t24.5 53.5l11 26l45 100l91 60l55 -55l45 -110l60 -116l86 -100
q0 -2 22.5 -13.5t44.5 -21.5l23 -10l131 -20l140 5l136 55l130 40l50 70l36 76l25 145l-20 126l-66 95l-100 55l-151 41l-150 30l-141 -15q-2 -2 -41 -6t-76 -7l-38 -2zM1112 1084l10 -95l80 -65l101 -5l90 35l55 50l-30 95l-100 16l-126 10z" />
    <glyph glyph-name="seven" unicode="7" horiz-adv-x="1846" 
d="M804 1423q-38 -13 -69 -39q-34 -27 -55 -55q-20 -25 -41 -67q-16 -34 -25 -73q-25 15 -53 38q-18 16 -52 50q-34 36 -50 54q-16 19 -42 51l-206 -193q62 -74 112 -129q61 -67 122 -120q27 -22 60 -36q29 -10 70 -17q33 -4 74 -4q28 1 73 5q59 8 85 14q37 8 88 23
q0 66 14 110q15 41 39 64q25 23 61 31q31 8 79 6q44 0 94 -6q36 -3 105 -7q67 -3 105 -35q38 -30 47 -74q9 -41 -16 -84q-24 -41 -81 -62q-31 -11 -107 -31q-85 -20 -156 -35q-56 -12 -185 -37q-29 -5 -94.5 -17t-99.5 -18q-45 -8 -134 -23.5t-100 -17.5q-35 -6 -76.5 -13
t-94.5 -15.5t-84 -13.5q0 -18 -4 -72q-1 -14 -2.5 -42.5t-2.5 -41.5q-2 -58 -2 -91q0 -42 5 -92q7 -50 26 -94q21 -47 75 -91q58 -44 154 -76q95 -32 258 -47q81 -6 171 -3q111 5 185 15q106 13 188 28q108 21 180 37q8 2 17 4t20.5 5t18.5 5q11 3 32.5 8t31.5 8
q11 3 33.5 9t33.5 9q35 9 66 18l75 21q26 8 76 22l-37 277l-152 -35q-33 -6 -65 -15q-11 -3 -32.5 -7.5t-32.5 -6.5q-25 -5 -62 -14q-40 -8 -52 -11q-79 -16 -162 -33q-121 -22 -156 -28q-25 -4 -137 -20q-59 -7 -102 -7q-8 0 -36 3q-6 1 -18 2t-23 2.5t-22 2.5
q-48 8 -74 14q-45 11 -68 20q-25 10 -45 28q-14 15 -5 35q79 14 239 40q217 38 241 42q187 37 240 49q110 25 233 62q94 29 160 79q63 50 94 110q32 61 38 134q6 72 -9 149q-31 163 -134 255q-101 92 -267 128q-90 19 -178 22q-80 4 -177 -3q-99 -7 -148 -16
q-65 -10 -93 -21zM311 1175l20 -45l75 -56l55 -60l86 -60l120 -10l106 10l55 50l45 100l111 81l155 15l146 -15l135 -30l66 -126l5 -125l-116 -76l-171 -40l-205 -65q0 -2 -44 -12t-88 -19l-44 -9l-171 -5l-175 -35l-176 -31l-25 -85l-35 -120l20 -121l65 -100l100 -55
l96 -36l125 -30l141 -15l150 15l196 25l156 30l130 36l141 15l130 20l86 40l-15 141l-71 -11l-90 -25l-105 -10l-121 -30l-155 -20l-116 -25q0 -2 -27.5 -11t-54.5 -16l-28 -8l-171 20l-126 5l-145 35l-86 55l41 121l135 55l176 45l201 10l175 45l176 21q0 2 36.5 12
t73.5 19l36 9q0 2 26 18.5t52 31.5l27 15l75 60q2 0 15 29t25 58l11 29l-25 105l-31 146q0 4 -22.5 24t-44.5 38l-23 18q-2 0 -32 22.5t-59 45.5l-29 22l-151 31l-141 20h-195l-141 -36l-80 -40l-45 -80l-51 -95l-65 -10l-95 60l-111 100z" />
    <glyph glyph-name="eight" unicode="8" horiz-adv-x="1878" 
d="M846 1062q-9 -11 -25 -26q-3 -3 -47 -40q-18 -15 -62 -48q-29 -21 -71 -50q-30 -20 -75 -46q-33 -18 -71 -35q-1 36 0 67q4 40 7 60q4 24 12 52q15 46 18 52q12 26 28 46q17 21 39 36q33 21 65 27t62 0q29 -4 54 -17q26 -12 42 -27q18 -15 23 -28q7 -13 1 -23zM1585 1064
q-7 -27 -12 -40q-6 -14 -14 -24q-8 -8 -24 -16q-3 -1 -15.5 -7t-21.5 -9q-29 -12 -68 -9q-36 3 -71 14q-32 12 -52 27q-17 16 -7 28q11 13 22 28q20 25 26 31q14 14 38 30q22 14 57 26q32 12 61 7q29 -3 48 -16q20 -11 29 -31q10 -17 4 -39zM1757 463q-93 -27 -158 -44
q-52 -14 -158 -40q-105 -24 -142 -32q-107 -21 -150 -29q-75 -12 -150 -21q-60 -7 -140 -11q-36 -2 -84 0q-51 3 -91 10q-55 11 -84 21q-40 15 -60 37q-15 16 -20 31q-4 13 -8 35q-2 24 -2 35q0 22 -1 32l533 365q26 -30 40 -44q7 -7 42 -37q20 -15 42 -30q26 -16 49 -27
q23 -10 54 -20q25 -6 58 -8q51 -1 121 2q64 5 124 18q69 17 113 37q51 23 92 62q27 27 50 71q21 40 36 97q13 48 15 109q3 55 -11 111q-12 53 -44 99q-29 46 -81 76q-50 29 -102 44q-54 17 -110 21q-52 6 -111 -4q-59 -8 -104 -26q-43 -16 -86 -45q-32 -21 -74 -56
q-41 -33 -75 -69q-16 41 -41 73q-22 31 -56 61q-32 30 -83 49q-41 16 -76 23q-24 6 -72 10q-29 2 -74 -1q-74 -6 -82 -7q-53 -6 -95 -21q-43 -14 -74 -34q-32 -19 -59 -43q-18 -16 -51 -49q-40 -40 -64 -88q-24 -49 -35 -100q-12 -54 -15 -114t-3 -129v-102q0 -18 0.5 -55.5
t0.5 -56.5q1 -38 1 -113q2 -74 2 -102q2 -60 2 -80q1 -32 3 -46q4 -24 14 -62q11 -33 31 -63q21 -30 57 -60q38 -30 91 -53q58 -25 134 -42t185 -28q81 -6 169 -3q108 5 180 15q97 13 179 28q98 20 169 37q94 23 190 51q103 30 186 58zM1089 1155q-75 75 -85 75
q-4 0 -15.5 11t-20.5 23l-10 11q-3 0 -14 16.5t-21 32.5l-10 16l-120 26l-131 -5l-145 -16l-86 -45l-95 -105l-45 -85l-25 -136l15 -517v-75l-15 -101l65 -100l80 -45l101 -36l130 -25l141 -20h115l116 5l115 20l156 15l110 25l121 26l85 35l121 30l-31 171l-40 -26
l-100 -30l-121 -30l-105 -25l-95 -5l-96 -35h-120l-151 -10l-115 -5l-101 20l-90 30l-70 40l-51 91l-5 50l-5 85l618 417l65 -45l80 -81l106 -45h135l146 25l90 25l81 66l50 95l-10 126l-30 115q0 2 -12.5 14.5t-24.5 23.5l-13 12l-116 86h-125l-126 -36l-105 -65l-86 -55z
M527 899l868 140h-20l25 -30l35 -15h46l45 30v60l-15 26l-50 -16l-46 -10l-35 -40l-843 -135l256 160l-70 20l-66 -5l-65 -45l-40 -80z" />
    <glyph glyph-name="nine" unicode="9" horiz-adv-x="1878" 
d="M1560 394q-14 -3 -27 -10q-7 -4 -23 -8q-11 -3 -35 -1q-49 7 -63 10q-25 6 -64 30q-43 27 -74 56q-31 28 -61 72q-24 36 -27 73q-1 32 11 62q13 29 37 50t56 33q34 12 67 11q38 0 69 -14q27 -11 50 -34t34 -49q12 -24 17 -59l21 -138zM1829 566q-2 24 -11 90
q-6 51 -14 79q-8 33 -27 78q-18 45 -49 88q-28 42 -73 81q-40 37 -100 56q-114 39 -245 15q-127 -22 -275 -119q-46 -29 -81 -71q-32 -38 -55 -84q-21 -43 -33 -89q-9 -40 -11 -86q0 -40 9 -76q9 -33 24 -56q32 -42 50 -62q27 -30 50 -53q5 -4 14.5 -13t14.5 -14
q5 -4 14.5 -12t14.5 -12q-95 -14 -110 -16q-46 -6 -105 -4q-91 3 -147 17q-54 16 -82 39q-26 24 -51 68q-23 47 -29 112q-3 32 20 92q28 70 61 131q39 73 90 156q37 62 105 163q71 107 136 198q72 102 153 213h-358q-44 -61 -61 -84q-52 -73 -92 -132q-18 -27 -54 -80
t-53 -78q-48 -72 -104 -166q-56 -95 -86 -152q-35 -68 -49 -119q-16 -56 -26 -120q-6 -45 -8 -98q0 -43 6 -79q6 -33 15 -59q2 -4 17 -44q14 -32 31 -57q22 -32 56 -64q30 -28 90 -61q52 -27 133 -50q81 -22 185 -32q81 -6 172 -3q111 5 188 15q107 13 192 28q104 19 182 37
q130 30 205 50q96 26 208 59l-37 277zM746 1421l-392 -633l-65 -155l-25 -166l15 -181l130 -110l151 -71l201 -40l216 10l246 5l165 30l126 31l120 25l121 45l55 55l-10 106l-30 140l-35 176l-61 170l-140 111q-4 2 -35.5 6t-60.5 7l-30 2l-135 -25l-131 -40
q-2 -4 -19.5 -16.5t-34.5 -22.5l-16 -11l-70 -56l-56 -85l-15 -100l31 -131l75 -85l65 -61l25 -85l-80 -45q0 -4 -53 -2l-53 2l-120 10l-116 5l-95 40l-100 55q-2 0 -18.5 22.5t-31.5 45.5l-16 23l10 150l61 136l75 130l60 136l60 130q2 0 32.5 36.5t59.5 73.5l29 36
l146 161zM1268 633l35 -41l20 -25l30 -55l50 -50l51 -40l55 15l-25 45q-2 2 -6 18.5t-6 31.5l-3 15l-10 81q0 2 -10.5 17t-20.5 29l-10 14q-2 4 -16 8t-26 6l-13 1l-60 -5z" />
    <glyph glyph-name="colon" unicode=":" horiz-adv-x="554" 
d="M554 1283h-354v-286h354v286zM554 527h-354v-286h354v286zM266 1215l-5 -156l216 10l10 146h-221zM276 447l-15 -146h205l16 151z" />
    <glyph glyph-name="semicolon" unicode=";" horiz-adv-x="689" 
d="M689 331h-358l-131 -487l231 5zM677 873h-354v-286h354v286zM371 818l30 -165l206 10l-15 160zM371 271l-105 -356l135 5q2 0 48.5 90t92.5 180l45 91z" />
    <glyph glyph-name="less" unicode="&#x3c;" horiz-adv-x="880" 
d="M200 527l680 -389v336l-389 184l389 182v336l-680 -389v-260zM266 748q552 321 557 321q2 -7 1 -48t-4 -89l-2 -48l-452 -216l462 -236l-15 -171l-537 316z" />
    <glyph glyph-name="equal" unicode="=" horiz-adv-x="1037" 
d="M222 597l-22 -247h815l22 247h-815zM222 990l-22 -247h815l22 247h-815zM271 939h698l-16 -141l-697 5zM276 542l703 10l-31 -140h-677z" />
    <glyph glyph-name="greater" unicode="&#x3e;" horiz-adv-x="881" 
d="M881 787l-681 389v-336l389 -182l-389 -184v-336l681 389v260zM261 889v185l557 -316l-10 -186l-542 -321l-15 176l436 236z" />
    <glyph glyph-name="question" unicode="?" horiz-adv-x="1200" 
d="M327 1111q34 17 54 26q42 20 66 30q34 14 67 22q37 10 82 18q36 8 85 11q43 4 78 3q40 0 60 -5q25 -4 31 -16q22 -33 16 -67q-4 -33 -26 -67q-19 -30 -50 -61q-29 -27 -56 -47q-27 -18 -69 -45q-34 -21 -86 -57q-33 -23 -81 -67q-39 -37 -57 -72q-20 -41 -29 -87
q-6 -30 -12 -88q-4 -48 -3 -96l293 15q-3 29 6 60q9 28 27 62q21 38 57 73q38 37 80 60q58 33 80 45q39 22 77 49q36 26 69 75q21 32 38 64q22 40 37 82q17 42 28 93q11 45 11 97q0 51 -13 94q-11 44 -45 84q-22 28 -61 49q-39 23 -88 37q-54 16 -111 22q-57 7 -126 4
q-143 -6 -243 -31q-107 -25 -172 -50q-39 -14 -77 -33q-38 -18 -64 -35l79 -276zM546 347q-38 0 -73 -15q-36 -16 -59 -41q-23 -24 -38 -59q-14 -34 -14 -73q0 -37 14 -71q14 -31 39 -56q24 -23 58 -38q36 -14 73 -14q39 0 73 14q36 16 60 38q24 21 40 57q14 31 14 70
q0 40 -15 73q-16 38 -40 60q-23 24 -59 40q-33 15 -73 15zM276 1335l45 26l70 35l96 10l100 25l131 20l120 -20l100 -10l96 -30l75 -46l15 -120l-5 -121l-30 -80l-50 -80l-65 -40l-86 -76l-70 -80l-106 -55l-45 -75l-35 -111l-181 5l-10 45q-2 0 8 24t21 48l12 24l65 70
l50 60l55 55q0 4 11 14.5t23 18.5l11 8l56 30l85 40q2 0 9.5 21.5t14.5 42.5l6 21q0 2 14 16t28 26l13 13l-25 116l-40 70h-140l-116 -15h-95l-66 -45l-105 -45zM426 186l-10 -40l40 -66l61 -40l70 10l45 35q0 2 7.5 12.5t14.5 19.5l8 9l-5 75l-20 55l-65 45l-90 -30z" />
    <glyph glyph-name="at" unicode="@" horiz-adv-x="1730" 
d="M1350 1268q30 0 40 -26q10 -21 10 -59v-77l-655 -7v-599q0 -21 9 -42q9 -20 22 -34q15 -15 34 -24q21 -9 42 -9l822 -8v1001q0 71 -42 104q-41 34 -107 34l-1325 -3l4 -1340q0 -179 188 -179h1271l67 243h-1198q-39 0 -39 35l4 990h853zM1029 627q-18 0 -18 22v195
q0 20 18 20h371v-237h-371zM276 1451v-1250l10 -70l55 -56l80 -20l1190 -10l40 146h-1144l-66 30l-35 55l10 1044l904 20l85 -20l40 -65l16 -90l-5 -81l-36 -35l-607 -15l-10 -492l20 -60l60 -30h728l-10 898l-50 71l-65 25zM1049 818l-10 -10l15 -125l276 -5l-10 135z" />
    <glyph glyph-name="A" unicode="A" horiz-adv-x="2420" 
d="M571 343q-21 21 -31 32q-14 17 -14 38q0 20 22 45q20 22 80 54q61 32 136 67q106 49 143 64q59 26 143 58q74 29 135 52q64 25 149 59q63 27 149 54q6 -27 9 -68q4 -32 7 -87q2 -32 4 -98q1 -17 1 -96v-229q-236 -9 -429 -6q-55 1 -165 5q-99 6 -152 10q-67 7 -119 18
q-51 12 -68 28zM1734 1245q-70 116 -158 179q-84 63 -200 91q-113 27 -244 23q-128 -3 -290 -26q-167 -23 -284 -55q-118 -31 -198 -60q-55 -20 -85 -34q-39 -16 -71 -34l-4 -342l319 -91l-9 245q113 32 198 52q101 25 210 37q81 10 163 12q75 3 150 -7q68 -9 118 -30
t66 -54q-105 -40 -224 -89q-140 -56 -209 -85q-130 -55 -173 -74q-121 -52 -164 -72q-68 -31 -137 -66q-63 -32 -94 -54q-62 -43 -106 -93q-43 -49 -68 -99q-25 -51 -32 -100q-6 -52 2 -93q15 -70 58 -132q42 -59 116 -103q77 -44 177 -67q105 -24 242 -24h143q26 0 81 0.5
t84 0.5h173h168h193q31 0 98 0.5t101 0.5l1 357q0 102 -2 156q-2 107 -6 159q-6 102 -12 153q-8 78 -19 137l293 113l11 -1077h310v1516zM281 1270l281 121l90 25l111 25l130 35h161l206 -10l150 -40l131 -60l115 -116l81 -70l602 216l25 -1336l-196 -5l5 1085l-105 -10
l-166 -46l-130 -25l-60 -80l45 -276v-281l20 -327l-65 -5h-171l-131 -20l-155 -5l-166 -5l-141 -25l-185 15l-201 45l-126 61l-95 70l-45 146l20 140l75 80l86 81l190 90l251 121l593 226l-10 60l-106 70l-150 75h-181l-181 -25l-186 -10l-251 -65l-5 -231l-175 40zM642 437
l45 -60l76 -21h135l141 -10h120l141 10h140l-30 382l-60 -40l-156 -60l-150 -51l-161 -45l-135 -40z" />
    <glyph glyph-name="B" unicode="B" horiz-adv-x="1801" 
d="M397 1537q-42 0 -76 -10q-37 -9 -63 -44q-26 -33 -44 -103q-15 -63 -17 -186q-3 -303 27 -600q30 -295 99 -593h315q-48 193 -73 366q-26 176 -43 383q-1 9 -2.5 31.5t-2.5 35.5q-1 15 -2 46.5t-2 47.5q-2 72 -4 106q-2 74 -2 102q0 37 2 85q3 43 5 51l349 4l22 -1258
h379h371q34 0 58 3q26 3 40 13q16 11 24 31q9 20 15 58t9 91q4 44 7 133q7 122 7 251q0 140 -5 230q-6 135 -11 205q-5 79 -14 177q-8 106 -19 182q-10 80 -24 162h-314q4 -18 8 -51q3 -18 11 -90q12 -108 13 -115q10 -81 14 -129q5 -48 13 -131q4 -38 11 -119q1 -5 7 -95
q3 -40 3 -58q2 -80 2 -132v-136q0 -81 -1 -115q0 -49 -3 -67l-293 -1l-20 1239h-776zM1503 1451l20 -296l20 -216l30 -216l-10 -226l-10 -166l-20 -105l-407 -5l-30 1240l-241 20h-226l-155 20l-116 -25l-70 -136l-20 -200v-191l10 -191l15 -166l35 -185l5 -191l40 -176
l191 15l-10 71l-45 130l-35 136l-21 150l5 106l-10 115l-5 171l-20 125v186l96 65h100l96 30l90 16l100 25l50 -1306l101 -15h115l81 10l135 -10l126 -15h105l75 45l16 126l35 266l-20 211q-2 2 -2 60t1 115l1 56l-20 286l-36 241h-165z" />
    <glyph glyph-name="C" unicode="C" horiz-adv-x="1802" 
d="M1470 614l-5 -343l-938 -7l-4 353zM787 914l11 388l420 4l-6 -396zM471 912q-51 -3 -96 -15q-49 -13 -81 -29q-36 -16 -60 -36q-22 -16 -30 -36l-3 -619q3 -4 9 -13q10 -12 30 -33q30 -28 48 -43q24 -18 67 -42q41 -21 84 -33q52 -13 101 -13h866q51 0 110 8
q65 10 107 25q54 18 98 48q48 31 81 74l-4 662q-16 13 -44 26q-18 10 -65 25q-45 15 -79 22q-41 10 -88 15l5 412q0 44 -15 83q-15 41 -43 70q-26 30 -65 48q-38 18 -81 18h-619q-49 0 -93 -16q-42 -14 -75 -43q-32 -27 -51 -64q-19 -38 -19 -80q-2 -1 -3 -21v-48
q0 -9 0.5 -31.5t0.5 -36.5q1 -25 1 -76q1 -91 6 -208zM532 1285l5 -447l-151 -25l-115 -45l-10 -562l10 -25l90 -50l105 -36l86 -25l888 -10l111 10l75 20l55 61l71 45v542l-56 50l-130 10l-100 25l-5 412l-16 95l-50 81q0 2 -17.5 11t-35.5 16l-17 8l-597 25l-101 -25
l-65 -80zM868 1240h281l-20 -276l-271 5zM597 567l783 -5v-231l-778 -5z" />
    <glyph glyph-name="D" unicode="D" horiz-adv-x="1858" 
d="M297 975q55 33 134 73q85 42 151 67q73 29 156 55q74 22 150 35l2 -370q-42 -6 -96 -12q-72 -8 -111 -14q-79 -13 -117 -21q-52 -11 -112 -34q-51 -20 -97 -51q-45 -31 -71 -73q-33 -52 -42 -107q-7 -53 3 -104q13 -57 37 -99q25 -45 63 -89q33 -37 81 -75q45 -33 88 -56
q56 -28 125 -47q70 -17 148 -28q90 -10 160 -13q82 -3 157 0q71 3 143 11q66 9 115 21q90 24 207 59q94 29 200 74l-31 306q-18 -9 -67 -30l-85 -34q-17 -6 -47.5 -17.5t-36.5 -13.5q-15 -6 -37 -13t-24 -8q-100 -33 -211 -54t-218 -24q-101 -3 -202 16q-94 19 -161 64
q-32 23 -38 47q-5 24 12 47t53 41q37 20 85 32q14 4 44 9q23 5 64 8q27 3 76 7q28 3 80 5l201 12l-22 632q57 -3 133 -25q77 -22 147 -52q74 -30 142 -68q70 -38 119 -74l111 247q-60 47 -118 79q-66 39 -132 68q-78 36 -139 56q-71 26 -139 42q-63 16 -133 22q-67 7 -155 5
q-86 0 -153 -8q-82 -8 -128 -21q-150 -37 -293 -98q-137 -58 -268 -142zM281 1225l85 40l50 35l76 30l90 31l100 40l111 15l120 25h156l176 -30l145 -40l166 -51l105 -50l121 -45l-50 -156l-71 41l-90 45l-105 60l-106 50q-2 2 -28.5 8.5t-51.5 11.5l-25 5h-121l35 -642
l-35 -10l-186 -10l-130 -21l-136 -40q-4 -4 -26.5 -10.5t-43.5 -10.5l-20 -4l-65 -80l45 -101l110 -80l146 -45l211 -25l135 30l146 25l151 45l120 50l90 36l21 -181l-86 -15l-140 -50l-136 -46l-151 -35l-170 -5l-146 20l-191 41l-175 55l-156 140l-20 171l65 131
q0 2 29 18.5t58 31.5l29 15l120 45l126 20l170 20l25 422l-35 65l-190 -20l-111 -55l-140 -55l-131 -66z" />
    <glyph glyph-name="E" unicode="E" horiz-adv-x="1797" 
d="M200 214q0 -34 10 -74q11 -36 44 -64q36 -27 103 -45q63 -16 186 -18q138 -2 253 4q156 8 236 14q110 9 213 21q96 11 185 24q105 16 191 30q109 20 176 34v295q-98 -26 -214 -45q-92 -15 -234 -31q-138 -14 -300 -20q-25 0 -71 -3q-16 -1 -49.5 -1.5t-51.5 -0.5
q-36 0 -116 -2q-21 0 -58 0.5t-55 0.5q-16 0 -47 0.5t-45 1.5q-39 3 -54 6l-4 304l1298 22l-3 642q0 44 -11 78q-11 40 -46 69q-37 32 -105 53q-64 21 -185 27q-122 7 -254 7q-140 0 -234 -5q-139 -6 -211 -11q-79 -5 -184 -14q-90 -7 -189 -20q-156 -21 -174 -24v-293
q52 13 124 25q68 13 132 21q47 7 126 16q51 7 141 14q76 6 152 9q92 3 158 1q12 0 64 -2q54 0 84 -1q61 0 92 -2q84 -3 89 -3q51 -2 75 -4q35 -3 48 -7l3 -288l-1288 -21v-720zM276 1421l512 50l226 -10l226 10l145 10l151 -5l110 -55l61 -96l20 -597h-71l-165 -30l-196 20
l-186 5l-201 -5l-251 -5l-236 5l10 -256l10 -126l36 -60h130h181l216 5l185 25h201h146l201 66l-15 -181l-101 -30l-181 -5l-200 -41l-216 -30l-211 -10l-226 -10l-221 20q-2 0 -19.5 15t-34.5 30l-16 16l-40 85v442l20 170h125l141 21h176l175 10l146 5l115 10h136h115
l136 25v50l-10 105q-2 2 3 37.5t11 69.5l6 34l-60 95l-106 25h-155h-141l-171 -10l-271 -5l-371 -80v186z" />
    <glyph glyph-name="F" unicode="F" horiz-adv-x="1910" 
d="M1329 610q1 -12 8 -47q6 -23 13 -61q8 -34 12 -67q6 -33 3 -61q-2 -28 -13 -47q-12 -18 -36 -21q-34 -3 -72 -3q-35 1 -82 6q-15 2 -50.5 6t-54.5 6q-43 7 -135 19q-178 26 -351 72q-207 58 -344 101l-27 -307q138 -39 356 -95q178 -44 361 -69q155 -21 271 -27
q103 -5 200 0q87 6 133 17q51 13 74 29q30 21 48 65q19 48 26 97q9 54 9 113q1 56 -5 112q-5 61 -11 94q-6 39 -14 59l262 9l-6 281l-256 1q8 33 13 70q8 50 12 103q5 45 3 120q0 68 -8 119q-8 59 -25 102q-19 46 -48 67q-23 17 -73 30q-44 13 -133 18q-74 5 -199 -1
q-122 -6 -273 -28q-190 -26 -361 -70q-183 -45 -356 -94l27 -307q66 21 171 52q82 26 173 49q84 23 175 42q69 15 176 30q106 14 136 19q48 7 104 13q39 5 83 5q37 1 71 -3q26 -3 36 -23q11 -19 13 -51q3 -30 -3 -67q-4 -33 -12 -71q-5 -27 -14 -66q-5 -25 -7 -49l-580 -7
v-276zM281 1295l276 55l125 46l186 10l116 30l145 25h151l115 -5l86 -20l85 -55l35 -106l5 -125l-5 -126l-30 -75l-15 -111l291 -10l10 -150l-271 -10l10 -76l35 -115l-20 -156l-15 -125l-80 -81l-121 -35l-140 -5h-146l-186 15l-336 71l-346 75l35 191l316 -111l316 -65
l151 -10l145 -20h101l90 25l25 80l5 71l-15 80v75l-20 106l-572 5l-5 170l557 -20l30 51l20 50l15 125l-10 156l-70 85l-176 5l-160 -10l-216 -30l-191 -55l-321 -86z" />
    <glyph glyph-name="G" unicode="G" horiz-adv-x="1794" 
d="M1793 885q-53 6 -117 9q-70 5 -134 5q-62 1 -142 -2q-82 -3 -139 -11q-77 -10 -127 -23q-65 -16 -104 -37q-24 -12 -42 -42q-15 -27 -26 -66q-7 -30 -14 -81q-3 -29 -5 -89q0 -39 1 -65q1 -12 2.5 -36.5t2.5 -37.5q2 -15 4 -43q0 -2 3 -45h-48q-10 0 -33.5 0.5t-37.5 0.5
q-13 1 -40.5 1.5t-41.5 0.5q-14 1 -40 2t-39 2q-37 3 -65 9t-36 13q-16 16 -26 51q-7 29 -14 89q-5 53 -6 115q0 41 4 129q9 125 9 130q5 55 14 119q8 52 18 95q10 40 19 58q17 32 52 49q33 18 81 29q47 12 97 15q57 5 98 5q52 2 86 -1q26 -1 60 -1q197 -2 372 -24
q161 -19 342 -52v310q-151 29 -344 56q-164 23 -346 23q-103 0 -161 -2q-79 -1 -172 -11t-168 -26q-77 -16 -149 -47q-65 -29 -114 -75q-46 -45 -64 -108q-20 -76 -33 -154q-10 -68 -19 -157q-8 -108 -10 -149q-1 -28 -2 -77t-1 -55q0 -21 0.5 -55.5t0.5 -48.5q1 -30 1 -68
q0 -6 2 -56q7 -79 7 -82q6 -43 15 -94q11 -51 28 -93q16 -40 44 -77q28 -35 63 -49q53 -21 142 -33q78 -10 199 -17q99 -4 233 -4q163 2 243 5q147 6 293 15q123 7 313 23l11 304l-492 -24q-2 33 -6 97q-2 32 -2 99q0 26 34 41q29 14 86 24q44 8 114 11q69 3 116 2
q55 0 96 -3q48 -3 50 -4zM1695 1421l-165 15l-101 5l-231 5l-331 15l-246 -20l-150 -55l-116 -151l-35 -186l-50 -211l10 -200l-5 -201l40 -176l50 -90l111 -66q2 -2 32 -8.5t59 -11.5l29 -5l156 -10h130h136l150 10l141 10l110 10l136 -5l161 5l-10 161l-81 -10h-125
l-151 5l-105 5q-2 0 -6 11.5t-6 22.5l-3 11l-36 146l31 110l115 76l105 25l131 -25l141 20l-21 170h-155l-176 -25h-241l-75 -115l15 -362l-85 -55l-131 -40l-136 15l-145 45l-95 86l-21 225l10 201l31 266l65 141l125 75l191 5h166h216l206 -10l145 -35l121 -15z" />
    <glyph glyph-name="H" unicode="H" horiz-adv-x="1790" 
d="M809 973q-37 0 -64 -1q-52 0 -80 2q-43 3 -76 10q-34 9 -47 26q-31 44 -37 86t10 80q17 37 50 60q36 24 86 24l679 9q41 0 65 -14q27 -14 42 -37q17 -25 24 -53q9 -30 12 -62q5 -35 5 -64q1 -21 3 -57zM1588 37q41 18 73 43q32 26 56 71q26 48 40 113q15 63 23 170
q2 23 4 90q3 62 3 137q1 68 -2 164q-2 96 -7 168q-4 74 -14 150q-9 72 -23 109q-20 60 -55 115q-32 49 -81 86t-113 57q-66 22 -151 26q-37 3 -98 3q-39 1 -129 -1q-68 0 -142 -3q-92 -2 -138 -4q-75 -4 -115 -7q-54 -3 -76 -7q-83 -13 -139 -31q-57 -17 -106 -44
q-48 -25 -78 -53q-32 -28 -56 -59q-24 -30 -36 -74q-11 -39 -16 -91q-3 -47 0 -97q5 -57 10 -92q7 -38 17 -77q13 -41 18 -51q24 -45 78 -75q56 -30 130 -48q67 -16 168 -24q86 -6 189 -4q56 2 91 2q68 2 104 2q36 1 110 1q76 2 106 2l246 4q0 -78 -3 -145q0 -28 -3 -58
q-2 -38 -4 -56q-1 -6 -2.5 -22.5t-2.5 -24.5q-3 -23 -7 -33q-9 -26 -35 -45q-24 -17 -60 -28q-29 -8 -71 -8q-37 2 -68 15q-13 6 -25 18q-9 10 -19 27q-9 17 -14 32q-5 13 -8 31q-3 16 -7 44q-1 14 -1 37l-323 9q0 -13 -2 -41q0 -18 -3 -36q-3 -29 -12 -58q-7 -27 -23 -36
q-17 -10 -56 -16q-32 -4 -76 -4q-39 2 -75 9q-36 9 -54 24q-23 22 -35 55q-11 33 -14 73q-3 39 0 78q3 34 8 68l-276 5q0 -17 -2 -75q0 -28 2 -88q5 -82 6 -87q7 -51 12 -68q10 -34 24 -67q12 -29 40 -71q26 -35 62 -68q36 -31 88 -56q22 -9 57 -18q15 -3 75 -12
q30 -3 83 -7q29 -1 83 -1q47 2 71 4q36 5 51 10q22 9 38 19q21 12 39 27q16 13 34 32q15 17 23 35q3 -6 11 -16.5t11 -15.5l27 -33q1 -1 31 -28q18 -13 32 -20q19 -7 52 -11q26 -2 83 -4q64 0 98 1q58 3 101 6q40 4 88 11q40 7 60 16zM389 1361l-50 -66l-25 -65l-20 -110
l40 -121l25 -115l85 -51l116 -50l115 -20l146 5l181 20q2 2 41 3.5t77 1.5h37l131 -5l135 15l141 15v-75v-105l-10 -121l-35 -105l-30 -101l-61 -50l-95 -40h-75l-91 40q-2 0 -17 12.5t-29 24.5l-14 13q-4 0 -2 58l2 58l-201 25l-20 -126l-50 -35l-75 -30l-111 -30l-150 25
l-51 85l-25 116l-25 115l-130 10l15 -115v-151q0 -9 16 -32.5t32 -43.5l17 -19l65 -85l131 -41l155 -30l126 30l65 71l126 20l85 -76l136 -15l170 -15l156 5l55 91l40 155l25 121l26 130q2 2 4.5 41t3.5 77l2 38l-5 146l-31 175l-15 151q0 4 -12.5 31.5t-24.5 52.5l-13 26
l-80 81l-121 30h-115l-161 30l-211 -10l-155 5h-151l-130 -50zM665 1200l648 15l60 -35l25 -70v-76h-607l-156 5l-65 60l30 81z" />
    <glyph glyph-name="I" unicode="I" horiz-adv-x="1805" 
d="M1146 1248q41 0 89 -6q50 -6 95 -18q44 -11 83 -30q36 -17 55 -42l-1244 -866l155 -286l1095 789l-6 -789l336 2l-8 1206q0 47 -21 98q-22 52 -78 97q-57 47 -156 82q-99 36 -257 51q-73 8 -170 5q-93 -3 -182 -16q-100 -13 -181 -32q-87 -19 -170 -45l-381 -119l73 -286
q83 27 95 31q69 23 82 27q31 11 65 21q32 10 57 19l57 19q95 32 181 52q85 19 139 26q62 9 109 9q32 1 88 1zM286 1310l75 25l60 15l76 31l105 20l116 25l125 25l156 20h130h131l130 -30l101 -35l115 -25l70 -71l51 -95q2 0 12 -286.5t19 -572.5l9 -286l-251 -5l10 824
l-1115 -789l-95 186l1240 849l-35 75l-60 50l-111 35l-130 20l-166 5l-141 -15l-155 -20l-141 -35l-120 -60l-156 -60z" />
    <glyph glyph-name="J" unicode="J" horiz-adv-x="1805" 
d="M204 1q32 0 93 -0.5t91 -0.5q61 0 177 2q104 2 154 4q28 1 80 3.5t76 3.5q92 5 146 10q60 5 124 14q129 19 253 52q115 32 198 88q86 58 134 146q50 88 62 226q10 112 13 242q3 143 1 243q-1 109 -8 244q-7 150 -13 241l-324 -7q3 -26 11 -131q6 -78 9 -171q5 -92 6 -188
q3 -96 0 -185q-1 -86 -9 -158q-6 -68 -20 -109q-23 -66 -58 -106q-36 -41 -82 -64q-47 -24 -104 -36q-32 -7 -124 -19q-3 0 -30.5 -3t-44.5 -4q-15 -1 -44 -2.5t-43 -2.5q-62 -2 -93 -4q-15 0 -46 -0.5t-46 -1.5q-72 -2 -107 -2h-109l-15 1186h-312zM251 1431l-10 -1376h100
l141 5h160h156l85 15l146 10l170 15l161 36l116 55l130 75l96 131l30 150l25 161q2 9 1 51.5t-4 90.5l-2 49q-2 7 -2 52t1 87l1 41l-25 196l5 181l-196 5l15 -246v-171l5 -175l-5 -186l-10 -141l-60 -110l-81 -86q0 -2 -36 -11t-72 -17l-37 -7l-166 -65q0 -4 -54 -5.5
t-108 -0.5l-54 1h-150l-131 -5l-136 15l-5 1185z" />
    <glyph glyph-name="K" unicode="K" horiz-adv-x="1798" 
d="M1441 727q11 -129 -1 -209q-10 -81 -46 -128q-35 -48 -92 -65q-53 -17 -142 -15l-640 10l1 403zM1155 0q160 0 268 18q107 18 177 59q70 42 105 107q36 66 54 161q32 168 38 333q7 166 -17 339l-1259 17v477h-321l2 -1511h953zM271 1441l5 -1376l447 5l246 -15h185
l116 10l105 25l131 36l105 70l80 105q2 0 8.5 47.5t12.5 95.5l5 48l10 151l5 185q0 4 -11.5 34.5t-22.5 58.5l-12 28l-321 10l-281 -25h-256l-221 15l-151 -5l5 492zM617 643l728 5v-126l-60 -80q0 -2 -29 -17t-58 -29l-29 -14l-547 10z" />
    <glyph glyph-name="L" unicode="L" horiz-adv-x="1798" 
d="M1780 461q8 58 11 107q3 37 5 112q3 101 -6 224q-9 129 -41 266q-21 94 -69 160q-47 67 -125 108q-78 42 -194 60q-110 19 -276 17q-28 0 -84 -0.5t-84 -0.5h-163q-93 0 -143 -1q-98 0 -147 -1q-94 0 -140 -1h-122l-2 -1507h310v440zM510 1205q24 2 53 2q48 2 78 2
q30 1 95 1h101q82 0 124 -1h132q47 0 92 -3q55 -4 84 -8q40 -6 68 -15q30 -9 43 -22q25 -22 41 -79q16 -59 23 -115q8 -55 8 -120q2 -59 0 -96l-942 4v450zM266 1436h723h241l130 -15l131 -55l120 -111l70 -145q4 0 9.5 -38t8.5 -76l3 -37l30 -176l10 -150l-20 -116
l-1150 20l-126 -15l5 -437l-190 -10zM582 1145l633 -10l75 -31l60 -110l10 -100v-76l-798 10z" />
    <glyph glyph-name="M" unicode="M" horiz-adv-x="1798" 
d="M1166 1181q14 1 48 8q20 5 64 13q34 8 69 12q36 6 64 3q29 -1 48 -13q19 -9 22 -36q5 -38 5 -72q1 -22 -3 -82q-4 -54 -10 -105q-7 -68 -16 -135q-7 -55 -17 -101q-15 -80 -23 -115q-6 -27 -28 -122q-13 -55 -30 -118l-75 -276l316 -27l65 261q13 48 28 118q15 63 27 126
q7 33 25 128q6 32 20 121q23 161 29 273q7 114 1 200q-5 88 -18 132q-14 51 -31 73q-23 31 -69 49q-42 17 -100 26q-49 8 -116 8q-69 0 -116 -5q-66 -5 -101 -11q-42 -6 -69 -14l-160 -44l-190 44q-20 8 -64 15q-38 8 -99 11q-56 5 -119 3q-68 0 -119 -8q-53 -7 -102 -26
q-46 -18 -68 -48q-15 -21 -31 -74q-13 -49 -19 -133q-4 -78 2 -199q8 -132 30 -272q10 -60 21 -122q16 -84 24 -127q4 -21 12.5 -63t13.5 -63q2 -7 28 -118q1 -5 3 -13q1 -2 3.5 -12l4.5 -18q2 -7 5.5 -22t4.5 -20q2 -8 6 -23.5t6 -23.5l32 -129l316 27l-75 276
q-13 51 -30 119q-14 59 -28 121q-13 67 -24 116q-10 52 -16 100q-4 34 -17 136q-6 62 -9 104q-2 31 -2 83q2 46 4 71q3 25 23 37t48 13q25 3 63 -4q36 -4 69 -12q26 -5 64 -14q26 -5 48 -7l8 -470h317zM277 1356l70 90l55 15h45h106l75 -10l70 -10l96 -15l70 -40l136 -20
l80 30l100 30l121 30h115h111l100 -25l70 -86l26 -120v-171l-15 -175l-31 -161l-25 -171l-30 -150l-25 -186l-40 -146l-191 35l35 121l35 156l51 165l35 176l35 196v135l-15 136l-91 75l-140 45q0 -2 -23.5 -7t-47.5 -9l-24 -4l-96 -35l-15 -477h-206l15 372l-40 85l-90 60
l-146 15l-140 -30l-56 -140v-171l5 -111l26 -140l30 -166l60 -165l45 -146l45 -166l-191 -15l-30 101l-40 135l-15 156l-35 186l-40 150l-35 261l-5 156z" />
    <glyph glyph-name="N" unicode="N" horiz-adv-x="553" 
d="M561 1449h-353v-286h353v286zM260 1401l251 5v-186h-251v181z" />
    <glyph glyph-name="O" unicode="O" horiz-adv-x="1791" 
d="M1433 622q1 -15 8 -49q6 -24 13 -66q6 -28 13 -71q6 -36 3 -66q-1 -30 -13 -50q-11 -20 -37 -23q-69 -7 -177 3q-135 15 -263 31q-35 5 -102 17q-26 6 -118 23q-82 18 -125 28q-42 10 -122 30l-285 75l-28 -307l271 -65q17 -4 58.5 -13.5t64.5 -14.5q20 -4 41.5 -8.5
t47.5 -10t40 -8.5q66 -12 129 -24q14 -2 57 -9.5t65 -10.5q160 -23 280 -29q110 -5 219 0q96 6 153 19q62 15 82 29q30 21 48 66q19 47 26 101q9 57 9 118q1 59 -5 117q-5 67 -11 98q-5 39 -14 60l-44 170l44 160q8 33 13 66q8 44 12 96q4 36 4 111q0 63 -8 110
q-7 51 -26 95q-18 44 -48 64q-22 16 -83 30q-58 14 -153 19q-84 5 -219 -1q-133 -6 -279 -29q-57 -9 -123 -21q-56 -10 -129 -27q-14 -3 -40.5 -9t-48 -11t-40.5 -10q-78 -19 -121 -31l-270 -74l28 -306l284 84q45 14 122 34q15 4 125 31q61 14 118 25q46 10 101 17
q143 19 264 31q107 12 176 3q27 -3 37 -22q11 -17 13 -46q3 -24 -4 -62q-1 -7 -3.5 -20.5t-4.5 -24.5t-4 -21q-4 -22 -14 -62q-5 -25 -7 -48l-626 -8v-296zM281 1295l115 30l86 25l125 21l116 35l130 10l161 15l180 25l166 5l141 -10l130 -5l86 -80l10 -141l-10 -136
l-26 -130l-40 -95l-10 -116l45 -136l41 -110l20 -120l-5 -116l-30 -115l-71 -46l-115 -35l-146 5h-145l-181 10l-191 30l-181 26l-180 30l-156 45l-90 15l40 186l140 -51l146 -35l156 -30l175 -30l191 -45l141 -5l140 -10l96 25l40 55l15 86v70l-20 80l-25 141l-603 20
l-10 150l608 26l20 40l15 65l10 115l5 106l-55 105l-146 5l-191 -15l-211 -15l-221 -50l-190 -50l-221 -60z" />
    <glyph glyph-name="P" unicode="P" horiz-adv-x="1916" 
d="M1388 361q-157 -46 -312 -40q-156 8 -311 53v799q74 23 151 32q79 10 160 9q74 0 159 -13q87 -13 153 -32v-808zM1916 1265q-20 15 -51 32q-40 24 -76 41q-27 15 -94 46q-51 24 -105 45q-40 17 -107 39q-59 20 -103 29q-60 13 -135 21q-64 8 -155 6q-80 0 -164 -9
q-93 -10 -159 -27q-73 -17 -150 -46q-76 -27 -158 -63q-78 -33 -145 -68q-66 -34 -113 -65l98 -254l164 107l4 -634l-170 64l-97 -250q14 -8 60 -31q39 -18 87 -42q53 -24 105 -46q17 -7 36 -14.5t42 -16.5t36 -14q85 -31 115 -40q42 -13 105 -29q60 -12 135 -21
q80 -8 155 -8q81 0 164 9t160 30q41 11 86 27q64 24 97 38q41 17 99 45q34 16 94 46q33 18 80 45q41 26 59 40l-79 254l-145 -107l-4 635l151 -65zM311 1235l251 136l145 40l96 25q0 2 32.5 4.5t64.5 3.5l33 2h146l136 -15l165 -25l131 -45l120 -41l111 -10l115 -70
l-40 -156l-196 81l-20 -814l206 126l50 -146l-55 -45l-136 -65l-140 -60l-151 -56l-130 -20l-161 10l-216 15l-130 21l-121 45q0 2 -32.5 12t-64.5 19l-33 9l-216 90l45 146l196 -75l25 823l-176 -96zM823 1115l80 25l55 5h96h85l111 -10l70 -15q-4 0 2 -173t14 -347l9 -173
l-271 -35l-236 35z" />
    <glyph glyph-name="Q" unicode="Q" horiz-adv-x="1806" 
d="M521 743q2 40 2 56q0 9 0.5 26t1.5 25q4 58 6 86q1 16 2.5 37t1.5 27q10 73 23 111q15 41 49 66q33 23 92 31q52 8 152 8h621v-470zM875 1519q-162 0 -270 -19q-111 -18 -181 -59q-71 -40 -113 -106q-39 -64 -62 -160q-31 -141 -42 -267q-9 -126 -6 -226q3 -53 6 -115
q6 -68 10 -106l1256 -17v-440h333l-11 1515h-920zM1521 65l-10 462l-1190 -10l-10 55l-20 216l20 161l40 176l45 145l106 116l145 35l226 15l452 15h397l35 -1386h-236zM853 1145l537 5l-10 -327l-768 -20v76l5 75l5 85l40 86l86 20h105z" />
    <glyph glyph-name="R" unicode="R" horiz-adv-x="1786" 
d="M1449 389q-33 -27 -81 -48q-43 -19 -101 -33q-59 -15 -140 -15q-35 0 -99 8q-73 11 -128 22q-7 2 -60.5 13t-83.5 18q-50 12 -146 36l-131 35q-93 26 -116 32q-18 6 -109 31l-54 -276q3 -1 21.5 -8t29.5 -11q19 -6 59 -20q14 -4 62 -20q22 -6 60 -18l140 -42
q61 -18 167 -44q84 -18 178 -31q84 -11 179 -16q79 -3 169 4q159 15 258 51t156 83q56 47 77 98q21 52 21 96l8 1205l-336 2l6 -789l-1095 791l-145 -288zM296 1265l1230 -833l-20 -86l-76 -60l-100 -20l-115 -35h-161l-196 35l-151 30l-175 50l-201 51l-55 -146l90 -20
l90 -50l101 -30l145 -15l171 -21l161 -25l95 -25h131l115 15l81 30l85 36l70 55l65 80l36 85l15 1115h-221l15 -848l-1115 798z" />
    <glyph glyph-name="S" unicode="S" horiz-adv-x="1785" 
d="M202 1539v-165q0 -29 0.5 -92t0.5 -97q1 -66 1 -200q1 -68 1 -195l4 -456q0 -47 36 -98q35 -50 111 -97q74 -45 191 -81q115 -35 277 -52q77 -7 165 -4q100 5 167 15q89 13 162 31q88 23 147 45l321 119l-73 276l-303 -106q-75 -25 -134 -41q-64 -16 -144 -31
q-60 -10 -142 -17q-70 -5 -130 0q-33 3 -80 11q-50 11 -82 21q-48 18 -77 34q-38 22 -63 50l1223 867l-134 267l-1115 -791l5 789zM262 1471l20 -909l-15 -150l15 -96l55 -70l75 -55l91 -60l95 -26l121 -30l105 -10l120 5h131l161 25l95 36l120 35l131 20l151 40l-61 191
l-85 -35l-85 -51q0 -2 -33 -11t-65 -16l-33 -8q0 -2 -31.5 -13.5t-62.5 -21.5l-31 -10l-146 -5l-171 -35l-120 15l-111 40l-85 30l-95 25l-40 91l1225 868l-81 171l-1144 -803q-2 0 -3.5 207t-1.5 414v207z" />
    <glyph glyph-name="T" unicode="T" horiz-adv-x="1817" 
d="M1467 716q-8 -69 -18 -128q-9 -58 -32 -109q-20 -46 -61 -87q-37 -36 -104 -60q-24 -9 -75 -15q-23 -3 -113 -7q-84 -2 -138 -2q-48 0 -146 2q-72 3 -141 6q-21 1 -119 7q-3 63 -3 132t3 140q2 45 8 139q6 69 12 129q9 65 18 121q10 53 33 94q26 45 61 72q39 32 103 54
q21 8 71 13q34 4 113 6q43 2 138 2q99 0 147 -2q51 -1 138 -5q13 -1 55 -2.5t60 -2.5q4 -89 5 -128q3 -53 1 -120q0 -52 -5 -120q-4 -72 -11 -129zM217 15q127 -6 261 -12q91 -4 269 -8q120 -3 267 -1q141 3 259 13q135 12 227 64q88 51 146 137q57 86 87 199q31 112 52 253
q32 209 29 428q-3 237 -22 428q-130 9 -264 15q-147 8 -265 11q-105 4 -265 0t-263 -13q-138 -12 -228 -57q-88 -44 -145 -122q-55 -76 -87 -185q-31 -112 -53 -246q-17 -106 -25 -225q-6 -114 -6 -227q2 -132 8 -227q16 -209 18 -225zM346 1140l-10 -116l-25 -115l-20 -106
v-145l30 -136l-60 -125l-5 -191l20 -111l818 -45l236 15l121 61l95 80l110 166l41 160l15 201l20 161l20 160l-20 171l-5 206l-141 5l-171 10l-236 5h-205l-267 -5l-160 -65l-151 -96zM637 959v-90l-15 -91l-15 -130l-20 -176l20 -85l106 -10l90 -5l161 -6l125 16l156 5
q2 0 22 13.5t39 27.5l19 14l45 100q2 0 9.5 34t14.5 68l6 34l10 130l5 196l-30 136l-100 5l-131 10h-155l-151 -5l-90 -30l-86 -76z" />
    <glyph glyph-name="U" unicode="U" horiz-adv-x="1796" 
d="M1484 898q-2 -136 -2 -211q0 -110 -13 -210q-11 -85 -85 -131t-223 -53q-41 -2 -99 4q-44 4 -134 17q-115 19 -154 26q-30 6 -84.5 16.5t-73.5 14.5l-143 30q-6 1 -28 6t-35 7q-48 11 -65 14l-63 14q-20 5 -56 13l-22 -282q15 -4 51.5 -13.5t57.5 -14.5q13 -3 54 -12.5
t63 -15.5q44 -10 66 -16q59 -13 67 -15q62 -15 151 -34q81 -16 151 -27q67 -11 140 -19q66 -6 116 -6q127 0 238 12q108 12 197 49q87 37 143 104t74 180q17 98 21 205q6 101 4 218q0 93 -7 219q-1 27 -5 99.5t-6 109.5l-1250 8l-3 312h-327v-793l330 -2l4 175zM261 1451
l200 20l-5 -311l1251 -15l25 -392l-10 -130v-141l-20 -136l-56 -110l-95 -80l-126 -61l-170 -40l-166 10l-196 10l-140 25l-151 31l-141 45l-195 40l35 150l110 -20l131 -40q0 -2 39 -6t77 -6l39 -3l181 -40l131 -15l170 -10l126 25l120 30l46 80l70 61l5 85v146l20 130
l-35 186l-1044 15l-26 -196h-195z" />
    <glyph glyph-name="V" unicode="V" horiz-adv-x="1801" 
d="M207 1241v295h455q85 0 156 -17q78 -17 135 -50q61 -34 99 -83q39 -48 50 -117q10 -58 17 -158q6 -85 1 -181q-3 -98 -17 -172q-13 -81 -43 -131q-12 -22 -44 -41q-30 -16 -69 -28q-29 -9 -85 -18q-45 -6 -92 -9q-36 -2 -67 -2q-13 0 -39 0.5t-39 0.5l-91 2l-3 -48
q0 -8 -0.5 -22t-0.5 -21q0 -6 0.5 -18t0.5 -18t0.5 -16.5t1.5 -15.5t2 -13t2 -12q3 -9 8 -13q25 -18 69 -27q42 -8 96 -13q36 -2 109 -2q19 0 55.5 0.5t54.5 1.5q60 3 120 3q77 2 115 5q71 7 107 16q55 13 95 35q29 15 47 51q18 33 29 84q12 48 15 104q4 51 4 112
q0 79 -5 139q-5 86 -14 151l325 5q13 -107 19 -223q6 -108 0 -207q-5 -101 -22 -183q-17 -86 -48 -151q-29 -64 -79 -111q-47 -44 -113 -62q-96 -25 -198 -39q-103 -12 -194 -18q-92 -5 -163 -6h-108q-36 0 -68 -1q-68 0 -110 1q-115 6 -131 7q-72 6 -130 19q-67 17 -106 37
q-46 24 -60 59q-23 54 -37 125q-10 59 -17 143q-4 70 -1 152q2 54 10 153q9 93 16 147q4 25 9.5 69t8.5 64l302 9l-15 -154q10 -1 26.5 -3.5t23.5 -3.5q8 -1 23 -2t23 -2q39 -3 77 0q39 3 58 16q13 9 22 39q10 32 14 70q5 34 5 83q1 40 -2 83q-4 46 -9 66q-6 28 -15 34
q-13 8 -48 14q-34 6 -75 9q-42 5 -92 6q-34 2 -100 4q-53 3 -123 1q-62 0 -133 -3zM1707 1248l-57 288h-334q2 -7 5 -20q4 -12 13 -48l16 -64q3 -13 16 -66q5 -15 12 -55q5 -20 5 -31l139 -2q37 0 55 -1q37 0 53 -1h45h32zM266 1486h145h151h115l111 -30l125 -50l86 -81
l30 -120l30 -206v-151l-40 -105l-50 -80l-116 -61h-130l-111 -5l-135 5l-31 -110l20 -141l66 -75l130 -55l136 5l171 10q7 2 42 3.5t67 1.5h31l141 5l110 10l70 75l71 76l15 95l10 121l-20 190l15 136h186l25 -331l-41 -196l-45 -156l-85 -100l-116 -66l-120 -5l-126 -10
l-165 -20l-206 -15l-186 10q0 2 -26 3.5t-52 1.5h-27l-126 50l-70 61q-2 0 -12 22.5t-19 45.5l-9 22l-40 146v160l15 171l10 196l196 5l10 -186l100 -10l115 15l111 20l25 70l10 86l5 85v96l-35 85l-55 65l-121 40h-105h-171h-110zM1380 1486l216 15l50 -186l-221 5l-25 86z
" />
    <glyph glyph-name="W" unicode="W" horiz-adv-x="1794" 
d="M208 1239q69 4 131 6q21 1 120 1q66 0 99 -2q62 -2 93 -5q40 -3 77 -11q32 -6 51 -18q8 -4 14 -33q8 -34 10 -66q3 -26 3 -83q0 -48 -4 -84q-3 -43 -10 -70q-6 -30 -18 -39q-10 -7 -24 -11l-34 -6q-24 -2 -39 -2q-13 0 -41 2q-9 1 -25.5 2.5t-24.5 2.5q-34 4 -53 7
l15 154l-302 -9l-16 -121q-5 -40 -7 -52l-6 -54l-6 -51q-1 -9 -2 -25t-1 -18q-4 -66 -6 -138q0 -63 5 -143q7 -78 17 -135q12 -65 33 -116q14 -35 60 -59q42 -21 106 -37q58 -13 130 -19q42 -4 131 -8h110q32 1 68 1q11 0 107 2q154 6 163 7q72 5 194 19q112 15 199 35
q64 15 109 54t75 93q31 57 48 123q16 63 26 143q8 70 10 152q2 52 2 152q0 192 -24 379q-26 206 -56 377h-346q17 -37 28 -97q12 -55 25 -144q9 -62 20 -165q13 -123 16 -162q6 -63 10 -133q3 -38 3 -79q0 -6 0.5 -24t0.5 -31q1 -29 -2 -74q-1 -34 -8 -81q-7 -46 -17 -80
q-13 -41 -30 -67q-18 -30 -48 -45q-45 -23 -99 -35t-112 -18q-38 -4 -116 -6h-110q-72 0 -111 -1q-56 0 -110 3q-53 3 -96 12q-45 10 -67 26q-9 7 -13 34q-3 27 -3 58q0 21 2 61q3 30 3 44q63 -3 79 -4q31 -1 104 1q111 6 113 6q60 6 108 16q50 12 88 30q39 20 54 46
q19 32 31 81q11 45 16 104q5 45 3 117q0 69 -4 122q-3 54 -11 116q-7 65 -13 102q-11 67 -54 117q-43 52 -104 84q-60 33 -135 50q-65 16 -147 16h-455v-297zM267 1491l381 -15h126l115 -65l121 -106l30 -145l25 -196l5 -161l-25 -105l-45 -55l-86 -25q0 -2 -30 -6t-60 -7
l-30 -3h-131h-140l-66 -65l-35 -110l35 -111l101 -55l130 -25l161 -5l131 -20l135 25l121 15l105 25l116 60q0 2 16.5 26t32.5 47l16 23l10 155l15 161l-20 166l-10 100v126l-20 170q0 4 -17.5 50.5t-35.5 91.5l-18 44h216l61 -331l40 -332v-165l-20 -171l-46 -156l-55 -110
q0 -2 -26 -24.5t-52 -44.5l-27 -21l-121 -51l-165 -20l-256 -25l-181 10l-161 5l-140 15l-116 35l-65 66l-25 90l-15 116l-25 130l20 241l15 181l216 20l-20 -191l65 -15h100l96 5l75 30l40 86l10 65l5 50l-5 95l10 91l-45 85l-110 45q-2 2 -27.5 2t-49.5 -1l-24 -1l-151 15
l-195 -20z" />
    <glyph glyph-name="X" unicode="X" horiz-adv-x="1820" 
d="M1482 1223q3 -6 6 -42q4 -44 5 -79q3 -45 3 -91q2 -46 0 -76l-973 15q-14 42 -19 73q-6 36 -1 73q7 40 21 69q18 33 50 56q18 13 47 19q35 8 71 11q29 3 91 5q36 2 104 4q58 3 134 1q68 0 134 -3q112 -5 124 -6q57 -3 103 -9q47 -5 71 -10q28 -5 29 -10zM1448 18
q42 7 88 18q57 15 87 27q48 20 81 41q38 25 67 60q16 19 25 70q8 39 15 125q7 82 8 159q2 58 2 175q0 116 -4 215q-4 146 -5 241q0 35 -3 86q-3 60 -16 103q-13 51 -46 96q-33 47 -88 67q-21 9 -71 15q-36 6 -115 11q-67 6 -142 9q-51 3 -155 5q-26 1 -153 1q-93 0 -133 -2
q-163 -5 -277 -25q-117 -20 -194 -59q-79 -40 -125 -103q-46 -64 -68 -158q-13 -58 -21 -128q-5 -63 1 -138q8 -69 31 -131q23 -61 69 -110l1192 -35q2 -12 3 -42q2 -19 2 -65q2 -48 2 -75q1 -34 -2 -71q-2 -35 -7 -57q-4 -23 -12 -28q-15 -9 -68 -12q-46 -3 -129 -1
q-16 1 -73.5 2.5t-93.5 3.5q-122 8 -184 13l-176 15q-8 1 -35 3.5t-43 3.5q-29 3 -82 7q-27 3 -79 7q-15 2 -40.5 3.5t-31.5 2.5l-13 -286q28 -3 68 -6q50 -4 76 -6q13 -1 38.5 -2.5t38.5 -2.5q26 -2 74 -6l84 -6q59 -4 85 -7q31 -2 91 -6.5t88 -6.5q93 -6 163 -9
q32 -1 130 -4q55 0 76 3zM342 1295l110 66l56 30l90 30l90 25l126 10h105l136 15h80h156l115 -10l116 -20l125 -30l86 -106l15 -562l10 -211l10 -176l-50 -140l-61 -70l-120 -61h-126h-130h-171l-181 5l-140 20h-121l-160 21v165l70 -15l90 -5h106l125 -25l106 -10h135
l131 -15l155 10l106 20l35 85v106q-2 2 -4.5 31t-4.5 56l-1 28l10 151l-1140 30l-115 85l-40 106l-5 150l25 96zM603 1009l-40 55l10 66l70 50l55 20l66 10h70h95l66 -5h85h100l116 -15l115 -5l5 -96l5 -95z" />
    <glyph glyph-name="Y" unicode="Y" horiz-adv-x="1798" 
d="M1798 293q-50 -1 -144 -1q-23 0 -66.5 0.5t-65.5 1.5q-36 1 -108 5q-14 1 -48.5 3.5t-52.5 4.5q-54 7 -84 13q-37 9 -54 19q-9 6 -15 30q-4 20 -7 56q-1 22 1 70q3 33 6 70q6 46 9 57q7 27 11 31q4 5 19 8q19 4 34 5q7 1 45 1q32 0 48 -1q40 -2 60 -4q44 -2 66 -4
l-15 -155l312 10q9 63 18 135q12 98 16 150q5 52 9 156q3 75 -2 155q-3 71 -17 144q-13 72 -35 124q-15 37 -60 63q-41 25 -106 42q-59 18 -130 27q-57 9 -131 14q-51 5 -111 5q-32 1 -67 1h-65q-57 0 -93 -2q-50 -1 -114 -6q-68 -3 -127 -10q-64 -6 -134 -18
q-65 -10 -131 -27q-63 -15 -109 -58t-75 -101t-47 -132q-16 -64 -26 -152q-6 -52 -10 -160q-2 -108 -2 -155q0 -174 23 -349q27 -190 56 -346h326q-17 27 -34 87q-15 62 -27 131q-10 62 -22 152q-14 124 -16 150t-5.5 66.5t-4.5 57.5q-3 54 -3 75q0 6 0.5 26t0.5 33
q0 3 1 33.5t2 47.5q2 28 10 91q7 47 19 88q14 42 33 75q23 36 48 49q43 24 101 36q63 13 119 17q53 5 123 5q42 1 114 1q78 2 116 2q40 1 109 -3q54 -3 93 -13q41 -9 67 -27q4 -3 7 -16q4 -15 5 -32q2 -12 2 -42q1 -15 1 -46q0 -38 -1 -58q0 -29 -3 -64q-51 5 -78 7
q-43 4 -107 4q-50 1 -119 -2q-61 -3 -115 -12q-55 -9 -93 -26q-40 -17 -55 -45q-18 -34 -29 -79q-11 -44 -19 -102q-8 -73 -10 -116q-2 -40 -2 -121q1 -58 6 -114l11 -99q12 -68 60 -111q49 -42 119 -66q71 -24 149 -33q63 -7 154 -7l175 2q12 0 37 0.5t38 0.5q26 1 78 1
q26 1 74 1q48 2 64 2v273zM321 70q-20 76 -25 76q-2 0 -4.5 31t-3.5 63l-2 31l-15 126l-5 75v191l-15 216l30 220l80 161l85 101l121 60l110 15l101 25l125 20l121 5l145 -20l161 -15l186 -25l95 -30l55 -71l41 -170l5 -231v-186l-10 -181l-201 -20l-5 166l-76 25l-80 10
l-115 -20l-106 -40l-30 -101l-25 -125l10 -91l105 -85l101 -25l80 -10h106l105 -10h156l-5 -161l-76 -5l-135 -5l-116 15l-100 -10l-151 25l-115 25l-96 96l-30 120l5 186l40 176l36 130l85 25l90 21l101 -16l281 36l-10 130l-10 131l-65 115l-111 45h-161h-145l-161 -15
h-110l-141 -30l-100 -65l-61 -136l-25 -206v-185l5 -176v-156l15 -140l46 -131h-186z" />
    <glyph glyph-name="Z" unicode="Z" horiz-adv-x="1797" 
d="M1051 298q-33 0 -63 -2h-29h-37.5h-34.5q-55 1 -117 6q-69 7 -112 17q-51 12 -83 31q-33 21 -33 51q0 19 34 50q34 29 91 64q47 30 130 72q79 41 153 76q54 26 160 72q33 15 150 63q50 21 122 48q50 20 79 28q3 -12 3 -44q2 -40 2 -74q1 -28 1 -92v-100q0 -81 -1 -124
q0 -64 -3 -134zM289 1067q24 14 80 37q68 27 120 43q62 20 150 43q72 18 167 35q95 16 172 23q82 8 167 2q79 -4 148 -24q68 -18 118 -57q-58 -16 -137 -42q-89 -28 -177 -61q-117 -44 -199 -79q-108 -45 -203 -95q-99 -51 -189 -111q-82 -53 -157 -125q-65 -64 -107 -138
q-40 -74 -40 -149q0 -71 29 -129q31 -58 76 -97q47 -40 110 -69q58 -25 128 -44q59 -15 132 -23q77 -7 122 -7l990 2l6 650q2 95 -1 178q-2 102 -14 187q-11 88 -43 178q-30 86 -86 153q-50 60 -108 100t-119 60q-59 21 -131 29q-61 8 -144 8q-109 0 -235 -12
q-136 -13 -251 -35q-133 -25 -246 -62q-117 -37 -217 -88zM296 1325l130 51l141 20l171 35l220 40l126 15l151 10l165 -55l121 -65l110 -141l55 -176v-155l26 -814l-51 -5l-190 -5l-186 -10h-156l-130 5l-191 10l-111 5q0 2 -25 8.5t-50 11.5l-25 5l-136 41l-95 45
q0 2 -17.5 23.5t-34.5 41.5l-18 20l-5 116l50 85l80 80l76 101l85 50q2 0 22 17.5t39 34.5l19 18q0 2 26.5 12t53.5 19l26 9l75 51l95 40l76 35l90 35l75 40l101 15l115 35l91 31l-20 65l-61 90l-120 35l-96 25l-140 -5l-121 -5l-155 -25l-156 -35l-135 -45l-141 -50z
M733 477l65 25l65 45l70 30l81 41l80 55l105 20l196 100q2 0 4.5 -100.5t4.5 -200.5l1 -100h-95l-166 -10l-110 -5l-126 -11l-170 11l-66 40z" />
    <glyph glyph-name="bracketleft" unicode="[" horiz-adv-x="733" 
d="M200 934q0 -192 13 -372q17 -209 27 -296q7 -62 20 -141q4 -24 11 -66.5t10 -58.5h439l-11 234l-175 9q-5 55 -14 137q-2 21 -5.5 65t-5.5 67q-6 78 -10 113q-1 17 -3.5 55.5t-4.5 57.5q-3 59 -6 104q-2 33 -2 85q-2 107 9 212q16 140 24 193q2 13 8 47t9 52q5 25 20 95
l178 4l2 230h-420q-2 -8 -13.5 -51t-17.5 -66q-11 -45 -26 -126q-21 -113 -39 -260q-17 -148 -17 -323zM361 1697l-15 -70l-20 -91l-30 -145l-25 -146l-5 -156l-10 -190l10 -171l15 -176l5 -130l15 -151l15 -120l10 -96h65l86 -15h75l100 -5v131h-100l-86 45l-15 171
q2 2 -4 51t-13 97l-8 47l-10 106q-2 2 -2 33.5t1 61.5l1 30l10 141v150l5 151l20 111l10 115l11 80l180 30l20 121z" />
    <glyph glyph-name="backslash" unicode="\" horiz-adv-x="1072" 
d="M200 1508l564 -1502l308 -6l-555 1508h-317zM301 1406l497 -1351l196 5l-522 1361z" />
    <glyph glyph-name="bracketright" unicode="]" horiz-adv-x="733" 
d="M733 934q0 187 -17 323q-17 147 -39 260q-15 81 -26 126q-13 60 -30 117h-421l2 -230l179 -4q7 -32 19 -96t17 -98q9 -50 14 -92q5 -33 11 -101q4 -34 8 -106q3 -47 1 -106q0 -37 -3 -86q0 -8 -2 -44.5t-4 -58.5q-3 -55 -9 -113q-9 -110 -9 -113q-4 -65 -12 -133
q-9 -95 -13 -136l-175 -9l-11 -234h439q12 60 21 126q9 56 19 140q18 156 28 297q13 160 13 371zM256 1692l281 20l40 -85l40 -116l35 -271l20 -316l-10 -387l-30 -241l-25 -140l-20 -96l-316 -5v121l195 30v75v80l21 151l-10 111q0 5 11.5 30t22.5 47l11 23l10 120
q2 4 3.5 38t1.5 66v32q-2 4 -4.5 34t-4.5 58l-1 28l-20 126l-15 95l-26 106l-20 135l-195 25z" />
    <glyph glyph-name="asciicircum" unicode="^" horiz-adv-x="1098" 
d="M668 1996l-468 -544l197 -160l266 324l234 -335l201 155zM291 1481l371 427l357 -452l-101 -100l-266 366l-271 -331z" />
    <glyph glyph-name="underscore" unicode="_" horiz-adv-x="1160" 
d="M1160 126h-960v-252l960 8v244zM261 60l833 5l-20 -145l-818 5q-2 5 -1 35t3 65z" />
    <glyph glyph-name="grave" unicode="`" horiz-adv-x="899" 
d="M899 1452l-228 340h-471l335 -340h364zM356 1747l206 -241l216 15l-141 226h-281z" />
    <glyph glyph-name="a" unicode="a" horiz-adv-x="2420" 
d="M571 343q-21 21 -31 32q-14 17 -14 38q0 20 22 45q20 22 80 54q61 32 136 67q106 49 143 64q59 26 143 58q74 29 135 52q64 25 149 59q63 27 149 54q6 -27 9 -68q4 -32 7 -87q2 -32 4 -98q1 -17 1 -96v-229q-236 -9 -429 -6q-55 1 -165 5q-99 6 -152 10q-67 7 -119 18
q-51 12 -68 28zM1734 1245q-70 116 -158 179q-84 63 -200 91q-113 27 -244 23q-128 -3 -290 -26q-167 -23 -284 -55q-118 -31 -198 -60q-55 -20 -85 -34q-39 -16 -71 -34l-4 -342l319 -91l-9 245q113 32 198 52q101 25 210 37q81 10 163 12q75 3 150 -7q68 -9 118 -30
t66 -54q-105 -40 -224 -89q-140 -56 -209 -85q-130 -55 -173 -74q-121 -52 -164 -72q-68 -31 -137 -66q-63 -32 -94 -54q-62 -43 -106 -93q-43 -49 -68 -99q-25 -51 -32 -100q-6 -52 2 -93q15 -70 58 -132q42 -59 116 -103q77 -44 177 -67q105 -24 242 -24h143q26 0 81 0.5
t84 0.5h173h168h193q31 0 98 0.5t101 0.5l1 357q0 102 -2 156q-2 107 -6 159q-6 102 -12 153q-8 78 -19 137l293 113l11 -1077h310v1516zM281 1265l105 70l86 31l90 25l120 40l116 25l130 15l151 5l141 -5l170 -30l121 -75l100 -76l111 -120l637 256v-1381l-191 -5l10 1080
l-75 30l-125 -61l-146 -25l-120 -75l30 -909l-116 -5l-160 5l-126 5l-125 -20h-166h-136l-135 5l-141 25l-75 25l-111 31l-75 25l-60 85l-55 95l35 86l60 85l90 80l76 76l95 50l80 35l81 35l90 45l106 31l85 40l70 35q0 2 18.5 12t37.5 19l19 9l96 30l95 40l96 56
q-2 0 -17.5 26t-29.5 52l-14 27l-105 70l-151 20l-130 5l-141 -10l-125 -20l-156 -20l-161 -60l-5 -236l-200 65zM677 472l126 70l110 25q0 2 20.5 9.5t40.5 13.5l20 7l110 56l90 35q7 0 34.5 11t51.5 23l25 11l115 45l41 -417h-96l-155 -10l-196 5l-151 -10l-166 5l-80 66
q0 4 15 18t30 25z" />
    <glyph glyph-name="b" unicode="b" horiz-adv-x="1801" 
d="M397 1537q-42 0 -76 -10q-37 -9 -63 -44q-26 -33 -44 -103q-15 -63 -17 -186q-3 -303 27 -600q30 -295 99 -593h315q-48 193 -73 366q-26 176 -43 383q-1 9 -2.5 31.5t-2.5 35.5q-1 15 -2 46.5t-2 47.5q-2 72 -4 106q-2 74 -2 102q0 37 2 85q3 43 5 51l349 4l22 -1258
h379h371q34 0 58 3q26 3 40 13q16 11 24 31q9 20 15 58t9 91q4 44 7 133q7 122 7 251q0 140 -5 230q-6 135 -11 205q-5 79 -14 177q-8 106 -19 182q-10 80 -24 162h-314q4 -18 8 -51q3 -18 11 -90q12 -108 13 -115q10 -81 14 -129q5 -48 13 -131q4 -38 11 -119q1 -5 7 -95
q3 -40 3 -58q2 -80 2 -132v-136q0 -81 -1 -115q0 -49 -3 -67l-293 -1l-20 1239h-776zM278 1371l45 95h50l55 5l663 5l50 -1275l306 15l106 45v146l10 236q2 0 -4 74t-13 148l-8 74l-10 211l-50 331h185l10 -90l26 -191l15 -196l15 -196l5 -241l-15 -175l-15 -166l5 -121
q5 0 -81 -30l-130 -5l-231 -15l-317 5l-25 1280l-462 -20l-40 -85l10 -80v-106l15 -130l5 -171l41 -387l75 -301h-201l-100 573l-20 557z" />
    <glyph glyph-name="c" unicode="c" horiz-adv-x="1802" 
d="M1470 614l-5 -343l-938 -7l-4 353zM787 914l11 388l420 4l-6 -396zM471 912q-51 -3 -96 -15q-49 -13 -81 -29q-36 -16 -60 -36q-22 -16 -30 -36l-3 -619q3 -4 9 -13q10 -12 30 -33q30 -28 48 -43q24 -18 67 -42q41 -21 84 -33q52 -13 101 -13h866q51 0 110 8
q65 10 107 25q54 18 98 48q48 31 81 74l-4 662q-16 13 -44 26q-18 10 -65 25q-45 15 -79 22q-41 10 -88 15l5 412q0 44 -15 83q-15 41 -43 70q-26 30 -65 48q-38 18 -81 18h-619q-49 0 -93 -16q-42 -14 -75 -43q-32 -27 -51 -64q-19 -38 -19 -80q-2 -1 -3 -21v-48
q0 -9 0.5 -31.5t0.5 -36.5q1 -25 1 -76q1 -91 6 -208zM718 1446l-96 -35l-70 -35l-25 -71l-10 -100l30 -362l-86 -20l-110 -40l-65 -40l-15 -497l25 -65l85 -71l80 -30l101 -15h753l115 25l131 5l100 41l56 70q-2 0 3 139t11 279l6 139l-96 40l-100 20l-111 10l26 442
l-41 101l-80 70h-617zM868 1230l291 10l-25 -271h-281zM587 542l818 10l-35 -211l-793 -25z" />
    <glyph glyph-name="d" unicode="d" horiz-adv-x="1801" 
d="M1486 1235q3 -18 3 -68q1 -33 1 -114q0 -89 -1 -137q0 -91 -1 -131q0 -17 -3 -59q-5 -67 -8 -95q-7 -83 -11 -119q-8 -86 -13 -130q-7 -80 -13 -128q-1 -7 -13 -115q-9 -76 -11 -89q-4 -32 -8 -50h314q13 77 24 161q11 76 19 180q9 98 14 177q7 95 12 205q4 73 4 230
q0 129 -7 251q-3 69 -8 133q-3 56 -9 92q-6 39 -14 57q-9 22 -25 32q-12 10 -39 13q-16 2 -58 2h-371h-379l-22 -1258l-349 4q-3 14 -6 52q-1 25 -1 84q0 31 2 103q2 37 4 105q1 14 2.5 46.5t2.5 47.5q1 17 2.5 40.5t1.5 26.5q17 208 43 383t73 366h-315q-69 -297 -99 -594
t-27 -599q1 -117 18 -186q18 -69 43 -102q27 -34 63 -43t76 -9h776l20 1236zM363 1451l-105 -1095l30 -170l50 -96l80 -45l698 10l5 763v477l412 -30l15 -120l-5 -116l15 -181l-10 -150l-15 -141l-5 -125l-10 -141l-15 -105l-25 -116l185 -5l10 86l20 200l11 211l20 196v176
v181l-10 115l-10 126l-31 85l-55 20l-326 -10l-337 5l-30 -1260l-341 10h-105l-61 75l-5 181l30 166l5 165l15 166l31 211l55 281h-186z" />
    <glyph glyph-name="e" unicode="e" horiz-adv-x="1797" 
d="M200 214q0 -34 10 -74q11 -36 44 -64q36 -27 103 -45q63 -16 186 -18q138 -2 253 4q156 8 236 14q110 9 213 21q96 11 185 24q105 16 191 30q109 20 176 34v295q-98 -26 -214 -45q-92 -15 -234 -31q-138 -14 -300 -20q-25 0 -71 -3q-16 -1 -49.5 -1.5t-51.5 -0.5
q-36 0 -116 -2q-21 0 -58 0.5t-55 0.5q-16 0 -47 0.5t-45 1.5q-39 3 -54 6l-4 304l1298 22l-3 642q0 44 -11 78q-11 40 -46 69q-37 32 -105 53q-64 21 -185 27q-122 7 -254 7q-140 0 -234 -5q-139 -6 -211 -11q-79 -5 -184 -14q-90 -7 -189 -20q-156 -21 -174 -24v-293
q52 13 124 25q68 13 132 21q47 7 126 16q51 7 141 14q76 6 152 9q92 3 158 1q12 0 64 -2q54 0 84 -1q61 0 92 -2q84 -3 89 -3q51 -2 75 -4q35 -3 48 -7l3 -288l-1288 -21v-720zM271 1406l301 40l201 25l196 5l256 5h110l131 -5l135 -30l111 -126l20 -592q0 -2 -243.5 -8.5
t-486.5 -11.5l-244 -5l-186 15l-106 -5l-30 -60l5 -136l-20 -140l15 -66l166 -35h116h105h120h161h201l135 30l146 15l141 35l-25 -165l-136 -20l-126 -25l-155 -5l-171 -36l-186 -10h-195l-186 -15l-141 20l-70 31l-70 90l10 637l70 16h75l151 5l130 -15l131 10h120l146 10
h146l145 -5l161 5l-15 431l-91 25h-180l-116 -10l-216 5h-150l-161 -35l-211 -5l-140 -25v136z" />
    <glyph glyph-name="f" unicode="f" horiz-adv-x="1910" 
d="M1329 610q1 -12 8 -47q6 -23 13 -61q8 -34 12 -67q6 -33 3 -61q-2 -28 -13 -47q-12 -18 -36 -21q-34 -3 -72 -3q-35 1 -82 6q-15 2 -50.5 6t-54.5 6q-43 7 -135 19q-178 26 -351 72q-207 58 -344 101l-27 -307q138 -39 356 -95q178 -44 361 -69q155 -21 271 -27
q103 -5 200 0q87 6 133 17q51 13 74 29q30 21 48 65q19 48 26 97q9 54 9 113q1 56 -5 112q-5 61 -11 94q-6 39 -14 59l262 9l-6 281l-256 1q8 33 13 70q8 50 12 103q5 45 3 120q0 68 -8 119q-8 59 -25 102q-19 46 -48 67q-23 17 -73 30q-44 13 -133 18q-74 5 -199 -1
q-122 -6 -273 -28q-190 -26 -361 -70q-183 -45 -356 -94l27 -307q66 21 171 52q82 26 173 49q84 23 175 42q69 15 176 30q106 14 136 19q48 7 104 13q39 5 83 5q37 1 71 -3q26 -3 36 -23q11 -19 13 -51q3 -30 -3 -67q-4 -33 -12 -71q-5 -27 -14 -66q-5 -25 -7 -49l-580 -7
v-276zM286 1290l191 30l120 30l115 41l191 40l156 10l140 10l136 -10l126 -25l105 -66l30 -125l5 -115l-5 -111l-30 -146l286 -15v-155l-301 -5l35 -136l20 -80l5 -141l-30 -125l-70 -96q0 -2 -29 -9.5t-58 -14.5l-29 -6h-211l-261 20l-341 66l-306 100l20 171l276 -96
l336 -80l96 -15l165 -5l116 5l80 25l60 25l10 126l-15 110l-20 50q-4 2 -11.5 22.5t-12.5 39.5l-6 19l-537 25l-20 145l527 5l85 131l20 100l-20 136l-80 90l-151 10l-236 -25l-190 -10l-186 -55l-271 -85z" />
    <glyph glyph-name="g" unicode="g" horiz-adv-x="1794" 
d="M1793 885q-53 6 -117 9q-70 5 -134 5q-62 1 -142 -2q-82 -3 -139 -11q-77 -10 -127 -23q-65 -16 -104 -37q-24 -12 -42 -42q-15 -27 -26 -66q-7 -30 -14 -81q-3 -29 -5 -89q0 -39 1 -65q1 -12 2.5 -36.5t2.5 -37.5q2 -15 4 -43q0 -2 3 -45h-48q-10 0 -33.5 0.5t-37.5 0.5
q-13 1 -40.5 1.5t-41.5 0.5q-14 1 -40 2t-39 2q-37 3 -65 9t-36 13q-16 16 -26 51q-7 29 -14 89q-5 53 -6 115q0 41 4 129q9 125 9 130q5 55 14 119q8 52 18 95q10 40 19 58q17 32 52 49q33 18 81 29q47 12 97 15q57 5 98 5q52 2 86 -1q26 -1 60 -1q197 -2 372 -24
q161 -19 342 -52v310q-151 29 -344 56q-164 23 -346 23q-103 0 -161 -2q-79 -1 -172 -11t-168 -26q-77 -16 -149 -47q-65 -29 -114 -75q-46 -45 -64 -108q-20 -76 -33 -154q-10 -68 -19 -157q-8 -108 -10 -149q-1 -28 -2 -77t-1 -55q0 -21 0.5 -55.5t0.5 -48.5q1 -30 1 -68
q0 -6 2 -56q7 -79 7 -82q6 -43 15 -94q11 -51 28 -93q16 -40 44 -77q28 -35 63 -49q53 -21 142 -33q78 -10 199 -17q99 -4 233 -4q163 2 243 5q147 6 293 15q123 7 313 23l11 304l-492 -24q-2 33 -6 97q-2 32 -2 99q0 26 34 41q29 14 86 24q44 8 114 11q69 3 116 2
q55 0 96 -3q48 -3 50 -4zM1706 1406l-287 30l-185 25l-196 -5h-206l-186 -40l-175 -45q-4 0 -27 -19t-44 -38l-20 -19l-60 -125l-20 -196l-10 -156l-15 -165l5 -171l20 -166l25 -105q0 -2 37.5 -25t75.5 -44l38 -22l170 -35l141 -20l160 10h96l135 10h131l130 5h277l10 196
l-467 -45l-30 70v131l15 145l90 51l100 30l101 10l196 -15l-15 160l-226 -15l-236 -5l-141 -35l-50 -115l-20 -161v-120l-25 -131l-81 -15l-140 10l-161 25l-115 45l-61 106l-25 115l5 176l20 145l11 156l40 121l75 90l115 40l91 45h100l96 5l115 -15l352 -25l271 -40z" />
    <glyph glyph-name="h" unicode="h" horiz-adv-x="1798" 
d="M835 349q-16 0 -48 -8q-53 -10 -64 -13q-7 -1 -31 -6t-38 -7q-28 -5 -64 -3q-28 3 -48 13q-19 12 -22 37q-4 45 -5 71q0 38 3 83q1 20 10 105q2 16 16 135q5 38 17 101q4 17 7.5 35.5t8 42t7.5 37.5q21 93 28 122q10 42 30 118l75 275l-316 28l-65 -261q-5 -21 -15 -63.5
t-13 -54.5q-14 -62 -27 -126q-8 -42 -24 -128q-18 -108 -20 -121q-23 -151 -30 -270q-6 -112 -1 -201q6 -87 19 -135q16 -54 30 -72q22 -27 68 -45q49 -18 103 -26q46 -7 120 -9q62 0 118 3q64 5 100 10q46 8 62 13l190 45l160 -45q18 -5 67 -13q35 -5 101 -10q57 -3 118 -3
q61 1 117 9q58 9 101 25q47 19 67 46q17 22 31 73q13 45 18 134q6 80 -2 200q-6 122 -28 271q-9 61 -21 122q-21 114 -24 127q-12 64 -27 126q-15 70 -28 118l-65 261l-316 -28l75 -275q17 -66 30 -119q21 -87 28 -121q15 -65 24 -116q7 -32 16 -100q13 -91 17 -136
q5 -36 9 -104q3 -50 2 -83q0 -40 -4 -71q-3 -26 -23 -37q-19 -10 -48 -13q-30 -2 -64 4l-69 12q-44 10 -64 14q-28 7 -47 7l-7 469h-317zM448 1436l-95 -412l-20 -125l-30 -166l-25 -251l10 -171l30 -130l70 -81l146 -25l155 5l126 25l191 56l155 -41l126 -35l160 -40
l141 45l90 51l56 85v176l-5 221l-41 180l-40 201l-40 221l-55 226l-176 -30l55 -211l56 -221l35 -110l15 -151l45 -161l-10 -135l-20 -106l-60 -60l-91 -25l-100 5l-121 20l-80 30l10 442q0 -2 -46.5 -4.5t-92.5 -3.5l-47 -2l-50 -462l-75 -15l-96 -15l-100 -10l-100 40
l-51 60l-15 141l10 145l31 171l20 206l55 196l70 241z" />
    <glyph glyph-name="i" unicode="i" horiz-adv-x="1805" 
d="M1146 1248q41 0 89 -6q50 -6 95 -18q44 -11 83 -30q36 -17 55 -42l-1244 -866l155 -286l1095 789l-6 -789l336 2l-8 1206q0 47 -21 98q-22 52 -78 97q-57 47 -156 82q-99 36 -257 51q-73 8 -170 5q-93 -3 -182 -16q-100 -13 -181 -32q-87 -19 -170 -45l-381 -119l73 -286
q83 27 95 31q69 23 82 27q31 11 65 21q32 10 57 19l57 19q95 32 181 52q85 19 139 26q62 9 109 9q32 1 88 1zM296 1290l45 20l151 51l155 25l151 40l130 15l126 15l166 5l180 -5l136 -60l115 -76l66 -115l20 -1145l-196 -5l-10 819l-1130 -779l-70 181l1215 798l-15 91
q-2 0 -26 27.5t-47 55.5l-23 27l-185 25h-191l-186 -25l-191 -45l-185 -45l-156 -50z" />
    <glyph glyph-name="j" unicode="j" horiz-adv-x="1805" 
d="M204 1q32 0 93 -0.5t91 -0.5q61 0 177 2q104 2 154 4q28 1 80 3.5t76 3.5q92 5 146 10q60 5 124 14q129 19 253 52q115 32 198 88q86 58 134 146q50 88 62 226q10 112 13 242q3 143 1 243q-1 109 -8 244q-7 150 -13 241l-324 -7q3 -26 11 -131q6 -78 9 -171q5 -92 6 -188
q3 -96 0 -185q-1 -86 -9 -158q-6 -68 -20 -109q-23 -66 -58 -106q-36 -41 -82 -64q-47 -24 -104 -36q-32 -7 -124 -19q-3 0 -30.5 -3t-44.5 -4q-15 -1 -44 -2.5t-43 -2.5q-62 -2 -93 -4q-15 0 -46 -0.5t-46 -1.5q-72 -2 -107 -2h-109l-15 1186h-312zM271 1431v-1361h115h156
h176l160 5l131 10l150 15l221 61l176 70l110 115l61 191l15 241l-5 251v231l-10 186l-186 -5l25 -347l-5 -155l-10 -161v-176l-50 -125l-86 -111q0 -3 -32.5 -25.5t-64.5 -43.5l-33 -21q0 -2 -42.5 -7t-85.5 -9l-43 -4l-150 -25l-181 -5l-171 5l-140 20l-16 1195z" />
    <glyph glyph-name="k" unicode="k" horiz-adv-x="1798" 
d="M1441 727q11 -126 -3 -209q-12 -78 -49 -128q-36 -46 -93 -64q-51 -16 -136 -16l-640 10l1 403zM1155 0q160 0 268 18q107 18 177 59q70 42 105 107q36 66 54 161q32 168 38 333q7 166 -17 339l-1259 17v477h-321l2 -1511h953zM1506 120l105 86l75 166l56 301l-46 256
l-1230 5l-10 492l-190 5v-1351l853 -5l246 20zM607 648l703 30l60 -50l-40 -126q-2 0 -19.5 -25t-34.5 -50l-16 -25h-136l-502 -5z" />
    <glyph glyph-name="l" unicode="l" horiz-adv-x="1798" 
d="M1780 461q8 58 11 107q3 37 5 112q3 101 -6 224q-9 129 -41 266q-21 94 -69 160q-47 67 -125 108q-78 42 -194 60q-110 19 -276 17q-28 0 -84 -0.5t-84 -0.5h-163q-93 0 -143 -1q-98 0 -147 -1q-94 0 -140 -1h-122l-2 -1507h310v440zM510 1215q24 2 53 2q48 2 78 2
q30 1 95 1h101q82 0 124 -1h132q47 0 92 -3q55 -4 84 -8q40 -6 68 -15q30 -9 43 -22q20 -18 31 -48q12 -26 20 -69q9 -40 12 -81q5 -42 6 -83q3 -40 3 -78v-21.5v-22.5v-17l-942 4v460zM261 1421l301 20h211h266l261 -15l166 -35l110 -96l85 -165l41 -277l25 -175l-31 -146
l-1230 15l-20 -487l-175 5zM597 1125l567 20l81 -25l85 -76l30 -115l-15 -106l-743 10z" />
    <glyph glyph-name="m" unicode="m" horiz-adv-x="1808" 
d="M1482 325q-19 0 -55.5 0.5t-54.5 0.5q-35 1 -106 1q-45 1 -93 3l-93 3q-14 1 -43 2.5t-44 2.5q-17 1 -43.5 4t-30.5 3q-82 11 -125 20q-59 12 -104 35q-43 22 -81 65q-35 42 -58 105q-14 39 -21 109q-4 52 -8 158q-2 89 0 186q4 122 7 189q2 35 5 93t4 77q9 115 10 130
l-324 7q-2 -38 -6.5 -118.5t-6.5 -123.5q-4 -83 -8 -243q-2 -135 1 -244q3 -129 13 -241q12 -137 63 -227q51 -89 134 -146q81 -55 197 -87q122 -32 253 -52q62 -9 124 -14q54 -5 146 -10q25 -1 77 -3.5t79 -3.5q54 -2 154 -4q118 -2 178 -2q30 0 91 0.5t92 0.5l4 1510h-312
zM292 1446l-25 -417l10 -241l20 -246l75 -211l85 -80l111 -70l206 -50l170 -26l166 -10l201 -30h151l135 10h156l-5 748l-15 613l-146 -10l-20 -1175l-100 -25l-181 -5l-281 20q0 -2 -51.5 8t-103.5 21l-51 11l-206 65l-100 126l-56 216v276l15 236q4 0 2 118l-2 118z" />
    <glyph glyph-name="n" unicode="n" horiz-adv-x="1796" 
d="M946 1254q3 0 63 2q29 2 101 0q57 0 117 -6q64 -5 112 -16q54 -13 83 -31q33 -19 33 -52q0 -20 -34 -50q-24 -21 -91 -64q-52 -31 -130 -72q-81 -41 -153 -76q-33 -15 -160 -72q-30 -13 -81.5 -34.5t-68.5 -28.5q-23 -9 -122 -48q-44 -16 -79 -28q-1 5 -5 44q-1 21 -1 73
v92v100q0 20 0.5 61.5t0.5 62.5q2 77 3 135zM1708 485q-32 -18 -80 -37q-45 -19 -120 -43q-97 -29 -150 -43q-71 -19 -167 -35q-72 -13 -172 -23q-80 -7 -167 -2q-79 6 -148 24q-66 19 -118 57q64 19 137 42q81 27 177 61q102 38 199 79q99 42 203 96q101 53 189 110
q92 61 157 125q67 64 107 138q40 71 40 149q0 75 -29 129q-28 57 -76 97q-49 43 -110 69q-56 26 -128 44q-60 16 -132 23q-62 7 -122 7l-990 -2l-6 -650q0 -115 1 -178q3 -108 15 -187q16 -100 43 -178q29 -84 85 -153q50 -60 108 -100q58 -38 119 -60q64 -21 131 -30
q64 -7 144 -7q110 0 235 12q135 13 251 35q122 23 246 62q129 42 217 88zM287 1456l5 -758l30 -181l45 -181l90 -120l126 -96l186 -35l185 -5h191l216 51l191 45l166 50l-51 156l-65 -41l-151 -45l-165 -50l-221 -20l-266 -5l-211 70l-105 86l236 140l215 75l171 86l176 75
l176 105q0 2 28.5 25t57.5 45l29 21l100 95l25 156l-80 135l-100 61l-131 45q0 2 -45 6t-91 7l-45 2h-918zM618 1165l502 35l111 -10l80 -35l-65 -81l-126 -65l-120 -50l-131 -65l-130 -51l-141 -50l10 71l15 160z" />
    <glyph glyph-name="o" unicode="o" horiz-adv-x="1794" 
d="M571 343q-20 20 -30 31q-15 18 -15 37q0 20 22 45q23 26 80 56q44 24 102 51q80 38 124 57q44 20 136 58q47 20 135 52q7 3 21.5 8t22.5 8l51 17q9 3 27.5 9.5t27.5 9.5q10 4 28.5 9.5t25.5 8.5l126 43q3 -33 3 -75q2 -54 2 -85v-27.5v-33v-28.5v-87q0 -67 -1 -101
q0 -49 -3 -100q-119 -3 -218 -6q-68 -1 -196 -1q-78 0 -158 3q-93 4 -143 7q-74 7 -111 14q-47 9 -59 20zM1786 942q0 144 -42 244q-39 98 -110 166q-70 67 -161 102q-92 36 -196 48q-106 14 -216 8q-111 -4 -219 -21q-75 -11 -159 -27q-75 -13 -167 -38q-78 -19 -163 -51
q-81 -29 -149 -66l-4 -343l332 -88l-3 243q94 28 187 51q92 24 202 37q48 6 67 7q29 3 90 5q33 2 100 -2q55 -3 97 -13q46 -9 81 -28q35 -18 52 -48q-207 -58 -359 -109q-149 -49 -273 -101q-121 -50 -205 -96q-91 -49 -154 -92q-64 -44 -107 -96q-42 -51 -68 -106
q-24 -53 -31 -106q-6 -55 2 -96q15 -70 58 -132q42 -59 116 -103q77 -44 178 -67q105 -24 241 -24h371q26 0 79 0.5t82 0.5h164q27 0 80 0.5t77 0.5h137v128q0 96 -1 147q0 104 -1 156q0 104 -1 153zM286 1245l125 80l81 25l90 21l100 30l101 10l115 30l131 5h150l141 -25
l130 -45l111 -96l110 -176l20 -175v-839l-95 -15l-186 -5l-246 -5q0 7 -186 3l-185 -3l-176 40l-115 26l-116 75l-80 80v151l45 110l121 116l145 120l221 81l256 100l407 115l-30 106l-86 75l-155 35l-166 -5l-176 -25l-150 -30l-146 -20l-131 -40l16 -221l-211 50zM647 437
l65 -45l76 -20l85 -6h161h125l101 -5l120 31l10 90l5 141l-35 105l-80 -55l-106 -25l-125 -51l-136 -50l-125 -55z" />
    <glyph glyph-name="p" unicode="p" horiz-adv-x="1916" 
d="M1388 361q-157 -46 -312 -40q-156 8 -311 53v799q74 23 151 32q79 10 160 9q74 0 159 -13q87 -13 153 -32v-808zM1916 1265q-20 15 -51 32q-40 24 -76 41q-27 15 -94 46q-51 24 -105 45q-40 17 -107 39q-59 20 -103 29q-60 13 -135 21q-64 8 -155 6q-80 0 -164 -9
q-93 -10 -159 -27q-73 -17 -150 -46q-76 -27 -158 -63q-78 -33 -145 -68q-66 -34 -113 -65l98 -254l164 107l4 -634l-170 64l-97 -250q14 -8 60 -31q39 -18 87 -42q53 -24 105 -46q17 -7 36 -14.5t42 -16.5t36 -14q85 -31 115 -40q42 -13 105 -29q60 -12 135 -21
q80 -8 155 -8q81 0 164 9t160 30q41 11 86 27q64 24 97 38q41 17 99 45q34 16 94 46q33 18 80 45q41 26 59 40l-79 254l-145 -107l-4 635l151 -65zM301 1245l160 65l96 51l110 25l111 30l120 20l156 15l145 -5l116 -5l156 -40l185 -66l186 -80l-25 -151l-196 61l-15 -799
l216 66l20 -131l-146 -55l-155 -75l-166 -56l-171 -10l-170 -10l-181 20l-130 36l-116 30l-130 45l-186 95l65 121l50 -40l131 -25v803l-181 -65zM843 1099l126 41h105l120 -10l126 -36l15 -667l-251 -25l-256 45z" />
    <glyph glyph-name="q" unicode="q" horiz-adv-x="1806" 
d="M521 743q2 40 2 56q0 9 0.5 26t1.5 25q4 58 6 86q1 16 2.5 37t1.5 27q10 73 23 111q15 41 49 66q33 23 92 31q52 8 152 8h621v-470zM875 1519q-162 0 -270 -19q-111 -18 -181 -59q-71 -40 -113 -106q-39 -64 -62 -160q-31 -141 -42 -267q-9 -126 -6 -226q3 -53 6 -115
q6 -68 10 -106l1256 -17v-440h333l-11 1515h-920zM627 1416l-176 -111l-65 -95l-65 -151l-25 -160v-181v-95l5 -96l1220 -5l15 -457h201l-10 1361h-829zM652 1089l60 41l31 15l60 5l70 -15l537 25l5 -347l-803 10v66l10 120z" />
    <glyph glyph-name="r" unicode="r" horiz-adv-x="1786" 
d="M1449 389q-33 -27 -81 -48q-43 -19 -101 -33q-59 -15 -140 -15q-35 0 -99 8q-73 11 -128 22q-7 2 -60.5 13t-83.5 18q-50 12 -146 36l-131 35q-93 26 -116 32q-18 6 -109 31l-54 -276q3 -1 21.5 -8t29.5 -11q19 -6 59 -20q14 -4 62 -20q22 -6 60 -18l140 -42
q61 -18 167 -44q84 -18 178 -31q84 -11 179 -16q79 -3 169 4q159 15 258 51t156 83q56 47 77 98q21 52 21 96l8 1205l-336 2l6 -789l-1095 791l-145 -288zM301 1265l1220 -833l-35 -111l-111 -60l-140 -40l-236 15q-11 0 -49 9t-70 17l-32 9l-186 40l-135 45l-201 41
l-55 -141l130 -35l151 -35l196 -55l185 -41l181 -35l186 25l186 46l110 55l60 55l51 115l15 1130l-196 -10l-5 -848l-1130 798z" />
    <glyph glyph-name="s" unicode="s" horiz-adv-x="1785" 
d="M202 1539v-165q0 -29 0.5 -92t0.5 -97q1 -66 1 -200q1 -68 1 -195l4 -456q0 -47 36 -98q35 -50 111 -97q74 -45 191 -81q115 -35 277 -52q77 -7 165 -4q100 5 167 15q89 13 162 31q88 23 147 45l321 119l-73 276l-303 -106q-75 -25 -134 -41q-64 -16 -144 -31
q-60 -10 -142 -17q-70 -5 -130 0q-33 3 -80 11q-50 11 -82 21q-48 18 -77 34q-38 22 -63 50l1223 867l-134 267l-1115 -791l5 789zM267 1461l25 -1079l20 -81l90 -85l101 -60l115 -51l161 -35l186 -5l160 15l156 25q2 2 26 7.5t47 9.5l22 4l121 40l221 70l-41 171l-125 -71
l-126 -55l-155 -20l-161 -30l-161 -10l-150 20l-101 5l-100 35l-65 40l-50 96l1214 878l-80 156l-1144 -808l10 818h-216z" />
    <glyph glyph-name="t" unicode="t" horiz-adv-x="1807" 
d="M527 1189h110q70 0 106 -2q62 -2 92 -4q90 -3 93 -3q33 -1 88 -5q63 -5 74 -6q64 -7 125 -20q59 -12 105 -36q47 -23 81 -65q37 -41 57 -104q14 -41 20 -110q8 -71 9 -157q3 -87 0 -184q-1 -96 -6 -189q-2 -65 -10 -171q-10 -128 -10 -131l324 -2q5 80 13 240
q7 135 8 241q2 101 -1 243q-3 128 -13 241q-12 139 -62 227q-48 88 -134 146q-84 57 -198 87q-111 31 -253 52q-41 7 -125 14q-90 8 -146 10q-55 3 -155 7q-50 2 -154 4q-58 2 -178 2t-183 -1l-4 -1510h312zM276 1426l120 20h86l125 -10l171 -5l180 -20l131 -25l176 -15
l140 -36l106 -20l130 -125l81 -191l10 -216l30 -251l-30 -160l5 -302h-196l5 76l25 195l-5 236l-20 191l-30 226l-101 151l-140 70l-116 20l-145 20l-156 30l-196 10q-2 2 -49.5 2t-94.5 -1l-46 -1l-26 -1230l-175 5z" />
    <glyph glyph-name="u" unicode="u" horiz-adv-x="1796" 
d="M1484 898q-2 -136 -2 -211q0 -110 -13 -210q-11 -85 -85 -131t-223 -53q-41 -2 -99 4q-44 4 -134 17q-115 19 -154 26q-30 6 -84.5 16.5t-73.5 14.5l-143 30q-6 1 -28 6t-35 7q-48 11 -65 14l-63 14q-20 5 -56 13l-22 -282q15 -4 51.5 -13.5t57.5 -14.5q13 -3 54 -12.5
t63 -15.5q44 -10 66 -16q59 -13 67 -15q62 -15 151 -34q81 -16 151 -27q67 -11 140 -19q66 -6 116 -6q127 0 238 12q108 12 197 49q87 37 143 104t74 180q17 98 21 205q6 101 4 218q0 93 -7 219q-1 27 -5 99.5t-6 109.5l-1250 8l-3 312h-327v-793l330 -2l4 175zM256 1446
l210 15l-20 -306l1261 -35l10 -116l10 -161v-261l-15 -180l-36 -151l-110 -120l-151 -51h-170l-151 -20l-161 10l-150 35l-186 46l-115 15l-201 40l10 166l145 -46l141 -35l211 -25l160 -35l171 -25l141 30l110 40q0 2 25 16t51 26l25 13l65 91l25 165l20 171l-15 216
l-1084 15l-31 -181l-185 5z" />
    <glyph glyph-name="v" unicode="v" horiz-adv-x="1801" 
d="M207 1241v295h455q85 0 156 -17q78 -17 135 -50q61 -34 99 -83q39 -48 50 -117q10 -58 17 -158q6 -85 1 -181q-3 -98 -17 -172q-13 -81 -43 -131q-12 -22 -44 -41q-30 -16 -69 -28q-29 -9 -85 -18q-45 -6 -92 -9q-36 -2 -67 -2q-13 0 -39 0.5t-39 0.5l-91 2l-3 -48
q0 -8 -0.5 -22t-0.5 -21q0 -6 0.5 -18t0.5 -18t0.5 -16.5t1.5 -15.5t2 -13t2 -12q3 -9 8 -13q25 -18 69 -27q42 -8 96 -13q36 -2 109 -2q19 0 55.5 0.5t54.5 1.5q60 3 120 3q77 2 115 5q71 7 107 16q55 13 95 35q29 15 47 51q18 33 29 84q12 48 15 104q4 51 4 112
q0 79 -5 139q-5 86 -14 151l325 5q13 -107 19 -223q6 -108 0 -207q-5 -101 -22 -183q-17 -86 -48 -151q-29 -64 -79 -111q-47 -44 -113 -62q-96 -25 -198 -39q-103 -12 -194 -18q-92 -5 -163 -6h-108q-36 0 -68 -1q-68 0 -110 1q-115 6 -131 7q-72 6 -130 19q-67 17 -106 37
q-46 24 -60 59q-23 54 -37 125q-10 59 -17 143q-4 70 -1 152q2 54 10 153q9 93 16 147q4 25 9.5 69t8.5 64l302 9l-15 -154q10 -1 26.5 -3.5t23.5 -3.5q8 -1 23 -2t23 -2q39 -3 77 0q39 3 58 16q13 9 22 39q10 32 14 70q5 34 5 83q1 40 -2 83q-4 46 -9 66q-6 28 -15 34
q-13 8 -48 14q-34 6 -75 9q-42 5 -92 6q-34 2 -100 4q-53 3 -123 1q-62 0 -133 -3zM1707 1248l-57 288h-334q2 -7 5 -20q4 -12 13 -48l16 -64q3 -13 16 -66q5 -15 12 -55q5 -20 5 -31l139 -2q37 0 55 -1q37 0 53 -1h45h32zM281 1471h296h115l136 -45l141 -40l60 -111
l35 -125l-5 -141l-15 -125l-30 -136l-61 -80l-85 -40h-135h-121l-120 -16l-36 -110l-10 -136l76 -100l145 -50l256 -5l191 5l151 35l115 50l96 86l25 110l10 216l10 236l181 -15l5 -151l5 -186l-10 -180l-51 -156q0 -2 -18.5 -23.5t-37.5 -41.5l-19 -20l-161 -61l-160 -30
l-181 -35h-246l-196 5l-115 30l-101 30l-85 56l-35 110l-25 161l5 125q2 4 -0.5 43t-5.5 76l-4 37l35 186l196 25l-41 -176l51 -5h115l121 10l90 70l40 111v176l-60 130l-106 50l-90 10l-140 10l-211 -25zM1400 1476l201 20l45 -196l-201 -5z" />
    <glyph glyph-name="w" unicode="w" horiz-adv-x="1794" 
d="M208 1239q69 4 131 6q21 1 120 1q66 0 99 -2q62 -2 93 -5q40 -3 77 -11q32 -6 51 -18q8 -4 14 -33q8 -34 10 -66q3 -26 3 -83q0 -48 -4 -84q-3 -43 -10 -70q-6 -30 -18 -39q-10 -7 -24 -11l-34 -6q-24 -2 -39 -2q-13 0 -41 2q-9 1 -25.5 2.5t-24.5 2.5q-34 4 -53 7
l15 154l-302 -9l-16 -121q-5 -40 -7 -52l-6 -54l-6 -51q-1 -9 -2 -25t-1 -18q-4 -66 -6 -138q0 -63 5 -143q7 -78 17 -135q12 -65 33 -116q14 -35 60 -59q42 -21 106 -37q58 -13 130 -19q42 -4 131 -8h110q32 1 68 1q11 0 107 2q157 7 164 7q72 5 194 19q110 14 198 35
q64 15 109 54t75 93q30 56 48 123q16 63 26 143q8 70 10 152q2 52 2 152q0 192 -24 379q-26 206 -56 377h-346q17 -37 28 -97q12 -55 25 -144q9 -62 20 -165q13 -123 16 -162q6 -63 10 -133q3 -38 3 -79q0 -6 0.5 -24t0.5 -31q1 -29 -2 -74q-1 -34 -8 -81q-7 -46 -17 -80
q-13 -41 -30 -67q-18 -30 -48 -45q-45 -23 -99 -35t-112 -18q-38 -4 -116 -6h-110q-72 0 -111 -1q-56 0 -110 3q-53 3 -96 12q-45 10 -67 26q-9 7 -13 34q-3 27 -3 58q0 21 2 61q3 30 3 44q63 -3 79 -4q31 -1 104 1q111 6 113 6q60 6 108 16q50 12 88 30q39 20 54 46
q19 32 31 81q11 45 16 104q5 45 3 117q0 69 -4 122q-3 54 -11 116q-7 65 -13 102q-11 67 -54 117q-43 52 -104 84q-60 33 -135 50q-65 16 -147 16h-455v-297zM272 1476l155 5l131 -10h120l126 -20l115 -45l86 -81l35 -95l35 -171l-5 -175l-25 -151l-50 -100l-116 -26
l-160 -5l-151 21l-90 -41l-36 -130l41 -136l80 -75l161 -40h160l156 5l150 10q4 0 34.5 11t58.5 23l28 11l100 35q0 2 21.5 21t43.5 37l21 18l35 155l15 136l15 145l-10 151l-25 166l-30 140l-25 196h175l56 -326l25 -357l5 -160l-5 -171l-56 -106l-90 -155l-146 -50
l-155 -46l-196 -20l-186 -5l-191 -5l-145 10l-126 35l-105 81l-45 115v156l-10 125l10 146l35 181l151 20l20 -176l80 -20h120l111 25q0 2 17.5 17t34.5 29l18 14l15 116l10 135l-40 176l-105 55l-121 20l-171 -5l-175 10z" />
    <glyph glyph-name="x" unicode="x" horiz-adv-x="1820" 
d="M1482 1223q3 -6 6 -42q4 -44 5 -79q3 -45 3 -91q2 -46 0 -76l-973 15q-14 42 -19 73q-6 36 -1 73q7 40 21 69q18 33 50 56q18 13 47 19q35 8 71 11q29 3 91 5q36 2 104 4q58 3 134 1q68 0 134 -3q112 -5 124 -6q57 -3 103 -9q47 -5 71 -10q28 -5 29 -10zM1448 18
q42 7 88 18q57 15 87 27q48 20 81 41q38 25 67 60q16 19 25 70q8 39 15 125q7 82 8 159q2 58 2 175q0 116 -4 215q-4 146 -5 241q0 35 -3 86q-3 60 -16 103q-13 51 -46 96q-33 47 -88 67q-21 9 -71 15q-36 6 -115 11q-67 6 -142 9q-51 3 -155 5q-26 1 -153 1q-93 0 -133 -2
q-163 -5 -277 -25q-117 -20 -194 -59q-79 -40 -125 -103q-46 -64 -68 -158q-13 -58 -21 -128q-5 -63 1 -138q8 -69 31 -131q23 -61 69 -110l1192 -35q2 -12 3 -42q2 -19 2 -65q2 -48 2 -75q1 -34 -2 -71q-2 -35 -7 -57q-4 -23 -12 -28q-15 -9 -68 -12q-46 -3 -129 -1
q-16 1 -73.5 2.5t-93.5 3.5q-122 8 -184 13l-176 15q-8 1 -35 3.5t-43 3.5q-29 3 -82 7q-27 3 -79 7q-15 2 -40.5 3.5t-31.5 2.5l-13 -286q28 -3 68 -6q50 -4 76 -6q13 -1 38.5 -2.5t38.5 -2.5q26 -2 74 -6l84 -6q59 -4 85 -7q31 -2 91 -6.5t88 -6.5q93 -6 163 -9
q32 -1 130 -4q55 0 76 3zM1482 1441l-166 30h-171l-150 -5l-176 -5l-191 -30l-155 -55l-101 -51q-2 0 -19.5 -20t-34.5 -40l-16 -20l-10 -130l-5 -151l50 -146l70 -50l1170 -25l15 -115l15 -156l-10 -131l-85 -90l-136 -35l-211 5l-281 5l-341 45l-30 -135h60l125 -10
l131 -16l110 -25h141l105 5h131h115l111 30l95 46l96 45l20 90l10 588l5 226q0 7 -9 41t-17 64l-9 30l-51 116q-4 0 -24 15t-38 30l-18 15zM648 1170l146 20l80 5h80l146 10h136l135 -25l55 -20l-5 -146l-838 -5l5 101z" />
    <glyph glyph-name="y" unicode="y" horiz-adv-x="1798" 
d="M1798 293q-50 -1 -144 -1q-23 0 -66.5 0.5t-65.5 1.5q-36 1 -108 5q-14 1 -48.5 3.5t-52.5 4.5q-54 7 -84 13q-37 9 -54 19q-9 6 -15 30q-4 20 -7 56q-1 22 1 70q3 33 6 70q6 46 9 57q7 27 11 31q4 5 19 8q19 4 34 5q7 1 45 1q32 0 48 -1q40 -2 60 -4q44 -2 66 -4
l-15 -155l312 10q9 63 18 135q12 98 16 150q5 52 9 156q3 75 -2 155q-3 71 -17 144q-13 72 -35 124q-15 37 -60 63q-41 25 -106 42q-59 18 -130 27q-57 9 -131 14q-51 5 -111 5q-32 1 -67 1h-65q-57 0 -93 -2q-50 -1 -114 -6q-68 -3 -127 -10q-64 -6 -134 -18
q-65 -10 -131 -27q-63 -15 -109 -58t-75 -101t-47 -132q-16 -64 -26 -152q-6 -52 -10 -160q-2 -108 -2 -155q0 -174 23 -349q27 -190 56 -346h326q-17 27 -34 87q-15 62 -27 131q-10 62 -22 152q-14 124 -16 150t-5.5 66.5t-4.5 57.5q-3 54 -3 75q0 6 0.5 26t0.5 33
q0 3 1 33.5t2 47.5q2 28 10 91q7 47 19 88q14 42 33 75q23 36 48 49q43 24 101 36q63 13 119 17q53 5 123 5q42 1 114 1q78 2 116 2q40 1 109 -3q54 -3 93 -13q41 -9 67 -27q4 -3 7 -16q4 -15 5 -32q2 -12 2 -42q1 -15 1 -46q0 -38 -1 -58q0 -29 -3 -64q-51 5 -78 7
q-43 4 -107 4q-50 1 -119 -2q-61 -3 -115 -12q-55 -9 -93 -26q-40 -17 -55 -45q-18 -34 -29 -79q-11 -44 -19 -102q-8 -73 -10 -116q-2 -40 -2 -121q1 -58 6 -114l11 -99q12 -68 60 -111q49 -42 119 -66q71 -24 149 -33q63 -7 154 -7l175 2q12 0 37 0.5t38 0.5q26 1 78 1
q26 1 74 1q48 2 64 2v273zM326 75l-25 86v145l-25 146l-30 221l10 165l10 191l45 116l25 115l70 75l91 66l150 40l111 25h155l136 10h161l145 -30l146 -5l130 -45l60 -121l21 -181l25 -135l-35 -156l-11 -140l-20 -96l-175 -20l20 161l-171 15l-176 -20l-65 -65l-20 -81
l-5 -100l20 -106l75 -70l86 -30l125 -10l141 -20h211l-25 -141l-111 -20l-140 20l-136 -5l-186 15l-100 46l-86 55l-35 120l-5 181l30 151v115l46 80l150 31l146 -16l110 -5l126 10l15 41v65v105l-20 91l-55 95l-141 50l-201 -5l-110 15l-146 -20l-161 -20l-155 -45
l-91 -115l-30 -146l-15 -141l-5 -135l25 -171l10 -176l31 -145l45 -126h-191z" />
    <glyph glyph-name="z" unicode="z" horiz-adv-x="1797" 
d="M1051 298q-33 0 -63 -2h-29h-37.5h-34.5q-55 1 -117 6q-69 7 -112 17q-51 12 -83 31q-33 21 -33 51q0 19 34 50q34 29 91 64q47 30 130 72q79 41 153 76q54 26 160 72q33 15 150 63q50 21 122 48q50 20 79 28q3 -12 3 -44q2 -40 2 -74q1 -28 1 -92v-100q0 -81 -1 -124
q0 -64 -3 -134zM289 1067q24 14 80 37q68 27 120 43q62 20 150 43q72 18 167 35q95 16 172 23q82 8 167 2q79 -4 148 -24q68 -18 118 -57q-58 -16 -137 -42q-89 -28 -177 -61q-117 -44 -199 -79q-108 -45 -203 -95q-99 -51 -189 -111q-82 -53 -157 -125q-65 -64 -107 -138
q-40 -74 -40 -149q0 -71 29 -129q31 -58 76 -97q47 -40 110 -69q58 -25 128 -44q59 -15 132 -23q77 -7 122 -7l990 2l6 650q2 95 -1 178q-2 102 -14 187q-11 88 -43 178q-30 86 -86 153q-50 60 -108 100t-119 60q-59 21 -131 29q-61 8 -144 8q-109 0 -235 -12
q-136 -13 -251 -35q-133 -25 -246 -62q-117 -37 -217 -88zM291 1345l160 46l111 20l156 45h185l176 20l166 5l155 -40l146 -80l105 -136l40 -166l26 -165l5 -814h-869l-105 -10l-126 30l-125 31l-146 50l-65 120l40 141l50 95l75 106l121 85l130 65l166 86l171 90l145 55
l146 55q4 0 45.5 15.5t80.5 30.5l40 15l-61 100l-115 50q-2 2 -41 6t-77 6l-38 3l-170 -10l-201 -10l-196 -25l-256 -95zM687 427l71 -45l105 -26h126l130 5q13 2 44.5 3.5t56.5 1.5h25l155 -5v51l5 115v131l-15 115l-65 -30l-110 -60l-131 -55l-131 -76l-140 -55z" />
    <glyph glyph-name="braceleft" unicode="{" horiz-adv-x="831" 
d="M825 1635q-58 0 -86 -2q-38 -1 -78 -6q-44 -4 -66 -8q-33 -5 -60 -13q-29 -8 -51 -19q-21 -10 -34 -26q-29 -35 -43 -81q-15 -46 -21 -98q-5 -45 -7 -102q0 -36 2 -92q1 -16 2 -47.5t1 -47.5q3 -42 1 -87q0 -38 -6 -68t-17 -41q-17 -17 -47 -33q-24 -13 -53 -23l-62 -21
l4 -127l57 -22q22 -8 49 -21q28 -13 44 -23q16 -9 23 -48q8 -34 11 -93q3 -54 3 -117v-119q0 -20 0.5 -53.5t0.5 -47.5q1 -44 7 -61q10 -29 21 -56q15 -33 29 -52q18 -24 43 -43q29 -20 63 -29q37 -10 86 -13q53 -2 90 1q17 2 49 4q8 1 24.5 3t24.5 3l2 162l-21 -3
q-13 0 -21 -2q-18 -3 -25 -1q-8 3 -25 6q-17 4 -32 22q-11 15 -23 42q-9 26 -15 55q-4 19 -8 57q-2 24 -2 53v81q0 62 -2 94q-2 55 -7 92q-7 52 -16 75q-10 32 -30 43q-8 5 -21 12t-17 10q-10 6 -26 14q-10 6 -21 9q-11 5 -21 8l-54 19q10 2 28 6q2 1 12 3.5t15 4.5
q4 2 13.5 5t14.5 5q12 4 34 12q19 8 31 16q13 8 20 18q28 47 43 106q16 58 11 117q-3 54 -4 67q-1 14 -1.5 41t-0.5 41t-0.5 41t-0.5 40q0 31 2 61q3 38 24 60q23 24 49 36q25 12 53 19q7 1 15.5 3t13 3t7.5 2zM522 1531l-50 -40l-21 -50l-25 -65l-15 -81l15 -100l15 -85
v-96l-5 -60l-45 -80l-75 -41l-85 -30l40 -65l65 -30l40 -55l45 -56l15 -80v-90l10 -61v-65v-75l5 -65l26 -71l15 -80l50 -50l90 -20h80l66 10l10 65h-55l-61 20l-30 45l-25 66l-30 95l10 55q4 9 4 38t-2 54l-2 24l10 90l-30 95l-40 36l-35 20l-61 40l-45 60l45 55q2 2 20 7
t35 9l16 4q4 2 13 11t15 17l7 8q7 7 13 16t9 14l3 5q4 2 8 12t6 19l1 9l20 50l15 70q2 12 1 28.5t-3 32.5l-3 15q-2 7 -2 22t1 27l1 11l-5 85v96q0 7 6 24.5t12 31.5l7 14l81 40l60 35l-30 60l-61 -10l-90 -15z" />
    <glyph glyph-name="bar" unicode="|" horiz-adv-x="499" 
d="M499 3v1641l-299 -5v-1636h299zM241 1581l15 -1526l190 5l-5 1526z" />
    <glyph glyph-name="braceright" unicode="}" horiz-adv-x="831" 
d="M200 1461q20 -5 37 -9q27 -6 53 -19q29 -13 49 -36q21 -21 24 -59q1 -15 1 -62q0 -52 -1 -80q0 -55 -2 -82q-2 -42 -3 -67q-1 -23 2 -58q6 -40 11 -60q15 -49 18 -58q13 -30 23 -47q8 -11 21 -20q6 -4 31 -15q5 -2 10.5 -4t12 -4.5t10.5 -3.5q14 -4 27 -9q10 -3 28 -9
q4 -1 13 -2.5t14 -2.5l-54 -19q-10 -3 -21 -8q-3 -1 -6 -2.5t-7 -4t-7 -3.5t-11.5 -6t-14.5 -8q-5 -3 -18 -10t-20 -11q-19 -10 -31 -43q-11 -34 -17 -75q-2 -17 -7 -92v-94v-27.5v-30v-23.5q0 -41 -2 -53q-2 -18 -10 -58q-7 -33 -14 -54q-10 -27 -22 -43q-11 -16 -32 -21
q-10 -2 -26 -7q-4 -2 -25 2q-10 3 -21 3q-3 1 -10 1.5t-11 0.5l2 -162q17 -2 49 -6q34 -2 49 -4q37 -3 90 -1q51 3 86 13q36 10 63 29q26 19 44 43q17 23 30 52q10 24 19 56q5 16 7 62q1 15 1 101q0 19 0.5 59t0.5 61q3 109 3 116q3 50 11 93q9 39 22 47t45 23q40 18 48 21
l57 22l4 127l-62 21q-25 9 -54 24q-28 16 -46 32q-11 11 -17 41q-5 30 -6 68q0 56 1 87q0 1 3 95q2 60 2 94q1 40 -6 98q-6 50 -21 96q-15 47 -44 85q-11 16 -33 26q-19 11 -51 19q-25 8 -62 13q-23 4 -65 8q-38 5 -79 6q-27 2 -85 2zM257 1596h-5l75 6l125 -26l81 -55
l45 -75l10 -106l-20 -125v-111l10 -150l60 -75l50 -66l76 -30l-5 -55l-86 -30l-55 -45l-45 -81v-65v-80v-66v-70l-15 -105v-60l-25 -46l-15 -40l-20 -30l-20 -40q0 -2 -9 -6t-18 -6l-9 -3l-40 -10l-35 -10h-90l-61 10l16 75l75 20l15 20l60 25q9 4 14 14.5t6 18.5v8l15 85
q2 4 2 25.5t-1 40.5l-1 19v65l-20 116q0 7 6.5 25.5t12.5 33.5l6 16l20 71q0 5 11.5 11t22.5 10l12 4l70 20q2 4 12 14t19 18l9 8q2 0 9.5 11t14.5 23l6 11q4 0 2 20l-2 20l-20 10l-45 15l-65 20l-41 41l-25 90q-4 11 -6.5 37.5t-3.5 47.5v20l10 76l-10 85l-5 100l-30 101
l-80 40l-65 25q-2 0 1.5 23.5t8.5 47.5z" />
    <glyph glyph-name="asciitilde" unicode="~" horiz-adv-x="1373" 
d="M331 737q0 9 22 28q24 19 55 36q30 18 69 34q32 14 65 21q45 10 76 1q35 -8 65 -24q27 -13 61 -35q37 -21 66 -32q104 -36 188 -33q87 5 152 37q8 4 32 20l14 10q15 11 22 17q6 4 12 9.5t13.5 12t11.5 9.5q6 5 18 15.5t18 15.5q28 24 41 37q27 27 41 40l-70 224
q-31 -24 -59 -47q-33 -27 -72 -47q-33 -18 -88 -28q-49 -8 -106 7q-30 8 -73 23q-14 6 -67 25q-28 11 -66 23q-33 12 -72 18q-36 7 -84 7q-42 1 -101 -8q-28 -3 -61 -16q-37 -15 -58 -27q-20 -11 -53 -35q-23 -16 -47 -37q-28 -25 -50 -48q-14 -14 -46 -50zM271 959v15
l50 25l25 25l60 30q4 4 19 11.5t28 12.5l13 6q0 2 23 3.5t45 1.5h23l75 -5l106 -15l110 -30l131 -30l100 5l75 20l76 25l55 56l25 -156l-65 -25l-86 -70l-70 -56l-110 -5l-106 10l-80 40l-91 46l-70 25h-125l-86 -30l-70 -46z" />
    <glyph glyph-name="nbspace" unicode="&#xa0;" 
 />
    <glyph glyph-name="exclamdown" unicode="&#xa1;" 
 />
    <glyph glyph-name="cent" unicode="&#xa2;" 
 />
    <glyph glyph-name="sterling" unicode="&#xa3;" horiz-adv-x="1255" 
d="M1094 27q21 5 63 20q41 16 98 40l-71 206q-73 -33 -121 -49q-47 -14 -77 -14q-19 0 -79 10q-80 16 -137 29q-61 14 -97 19q-36 6 -88 6q-33 0 -72 -6q69 88 99 170t30 160q0 19 -2 29q-2 16 -6 32h261v192h-307q-26 89 -37 145q-11 59 -11 111q0 87 62 149q63 63 160 63
q90 0 154 -60q32 -29 52 -75q20 -43 29 -118l219 34q-15 108 -53 183q-35 72 -97 125q-116 103 -300 103q-176 0 -301 -95q-156 -118 -156 -334q0 -48 9 -102q4 -21 12 -54q6 -20 19 -75h-139v-192h192q12 -49 12 -96q0 -132 -60 -219q-30 -45 -70 -82q-33 -31 -96 -67
l84 -215q82 53 158 77q76 25 142 25q29 0 43 -2q29 -2 43 -5q18 -4 45 -13q51 -15 78 -23q20 -6 48 -14.5t34 -10.5q16 -4 45 -11q15 -2 43 -6q28 -2 42 -2q51 0 101 12zM260 818l145 30l-10 76l-25 90v96l10 80l25 110l55 76q0 4 24 19t48 28l24 13l100 40l86 15l120 -25
l101 -30q2 0 29.5 -19t53.5 -37l27 -19l90 -186l-140 -15l-35 90l-61 75l-75 61l-135 5l-106 -30l-85 -61l-35 -100l-15 -141l30 -125l5 -101l75 -5h95l101 15h70l-5 -100l-45 -5l-85 5l-76 -5l-60 -30l5 -96l-15 -100l-20 -90l-80 -76l-16 -95l86 5l105 -5l111 -25l110 -15
l96 -25h60l30 35l85 15l45 -131l-45 -20q0 -2 -25 -4.5t-50 -4.5l-25 -1l-116 -5l-100 30l-85 36l-81 25l-80 5l-95 -15l-91 -36l-95 -45l-35 121l35 35l70 45l45 80l30 76l10 85l10 55l-15 81l-5 75l-180 10v85z" />
    <glyph glyph-name="currency" unicode="&#xa4;" horiz-adv-x="1260" 
d="M845 693q0 -22 -9 -43q-10 -22 -23 -35q-16 -16 -35 -24q-17 -8 -43 -8q-22 0 -43 9q-22 10 -35 23q-15 15 -24 35q-8 19 -8 43q0 23 9 42q9 21 23 35q15 15 35 24q19 8 43 8q23 0 43 -9q21 -9 35 -23q16 -16 24 -35q8 -17 8 -42zM1025 542q23 35 31 75q7 30 7 83
q0 51 -7 85q-6 35 -31 75l235 236l-133 130l-234 -234q-37 23 -76 29q-36 7 -83 7q-48 0 -84 -7q-36 -5 -74 -31l-235 246l-141 -130l244 -248q-12 -21 -21 -39q-6 -13 -11 -35q-4 -24 -5 -38q0 -6 -0.5 -21t-0.5 -25q0 -42 12 -87q12 -44 35 -81l-233 -234l129 -124
l236 246q37 -21 70 -35q37 -13 79 -13q27 0 45 3q23 3 34 8q17 6 33 15l21 12t17 10l236 -244l140 130zM286 1110l206 -252l-26 -80l6 -100l10 -76l25 -65l-216 -236l60 -60l241 231l75 -30l91 5l70 10l45 25l251 -241l60 75l-226 236l21 50l30 61l-5 65q-2 2 -7 19.5
t-9 34.5l-4 16l-26 76l231 225l-60 51l-261 -216q0 2 -20 6t-40 6l-20 3l-96 -15l-95 -25l-251 256zM788 733l-65 15l-56 -40l15 -50l36 -20l50 10q2 0 7 9t9 17l4 9v50z" />
    <glyph glyph-name="yen" unicode="&#xa5;" horiz-adv-x="1392" 
d="M1173 810h-173l194 403q40 80 82 115q44 37 82 37h36v69h-415v-69h48q52 0 52 -43q0 -46 -46 -122l-172 -388l-176 379q-56 94 -56 138q0 36 52 36h51v69h-528v-69h51q24 0 59 -35q36 -34 73 -109l207 -411h-169v-80h209l19 -37v-63h-228v-80h228v-259q0 -222 -99 -222
h-80v-69h648v69h-80q-99 0 -99 222v259h230v80h-230v61l19 39h211v80zM373 1376l221 15l-40 -25l-10 -66l256 -477h-151zM1106 1391l35 -66l-241 -487h50l317 578q0 2 -40.5 -4t-80.5 -14zM720 753l-26 -617l5 -66l116 -15l80 -5l35 35l-75 10l-20 96l15 562h-130zM1036 778
l85 -25v30zM458 773l497 -181l-476 -5l-21 196l96 10l10 -25z" />
    <glyph glyph-name="brokenbar" unicode="&#xa6;" horiz-adv-x="494" 
d="M494 801v715h-294v-715h294zM494 -221v707h-294v-707h294zM271 1441l-15 -588l145 5l20 598q0 2 -37.5 -1.5t-75.5 -8.5zM256 417l-10 -583l160 10l-5 578z" />
    <glyph glyph-name="section" unicode="&#xa7;" horiz-adv-x="1108" 
d="M692 101q-105 1 -164 44q-57 43 -63 137h-87v-200q0 -24 82 -44q44 -9 91 -15q53 -5 103 -5q213 2 334 116q120 115 120 278q0 104 -51 174q-49 70 -168 131q32 16 56 32q30 20 53 39q101 113 101 275q0 54 -15 99q-16 49 -42 83q-29 40 -83 76q-54 37 -131 73
q-276 129 -276 269q0 80 40 120q41 39 107 36q119 -3 178 -46q60 -42 65 -137h77v200q0 26 -83 45q-39 10 -95 15q-36 4 -123 4q-176 0 -269 -95q-91 -94 -91 -235q0 -98 60 -181q60 -81 215 -150q-103 -17 -177 -91q-89 -89 -89 -230q0 -96 53 -172q28 -37 72 -74
q42 -32 113 -68q155 -74 232 -143q74 -65 74 -133q0 -108 -71 -170q-31 -26 -67 -42q-36 -15 -81 -15zM778 772q-217 112 -217 239q0 39 11 70q13 32 29 48q18 20 43 29q22 9 51 9q76 0 138 -46q67 -45 67 -137v-6q0 -132 -122 -206zM425 1566l45 -80l55 -50l81 -80l60 -41
l141 -65l20 70l-66 46l-70 30l-115 90q0 2 -19 28.5t-38 51.5l-19 25zM927 1160l25 -50l15 -91l-15 -90l-60 -86l70 15l35 56q2 0 8.5 20t11.5 40l5 20l10 80l-40 126zM505 939l30 -40l46 -35l40 -76l100 -55l136 -115l-45 -51l-96 35l-70 41q-2 0 -22 18.5t-39 37.5l-19 19
l-91 65q-2 0 -16 31.5t-27 63.5l-12 31zM671 1069l70 10l40 -55l-5 -75l-15 -55l-65 20l-45 60zM972 392l-5 85l25 60l45 -125l-20 -106l-35 -85l-55 5l40 80z" />
    <glyph glyph-name="dieresis" unicode="&#xa8;" horiz-adv-x="1220" 
d="M1220 1525h-280v-285h280v285zM480 1525h-280v-285h280v285zM261 1471l150 -5v-176l-155 5zM979 1471l170 10l-5 -176l-160 -10z" />
    <glyph glyph-name="copyright" unicode="&#xa9;" horiz-adv-x="1709" 
d="M1609 361q100 178 100 375q0 198 -101 378q-100 182 -282 279q-180 98 -371 98q-190 0 -371 -98q-181 -97 -283 -279q-101 -182 -101 -378q0 -195 100 -375q101 -181 279 -280q92 -51 184 -72q89 -20 192 -20q97 0 194 22q95 23 181 70q180 102 279 280zM952 1265
q76 0 140 -20q66 -19 128 -56q65 -39 110 -84q49 -46 86 -108q37 -60 56 -126q20 -63 20 -138q0 -74 -20 -138q-18 -62 -56 -125q-37 -61 -86 -108q-51 -50 -110 -85q-54 -33 -128 -55q-69 -20 -140 -20q-69 0 -140 20q-75 23 -128 55q-54 33 -110 85q-51 51 -86 108
q-34 56 -56 126q-20 69 -20 137q0 70 20 138q22 71 56 126q35 59 86 108q51 50 110 85q58 35 128 55q66 20 140 20zM1199 370q24 20 48 42q27 27 45 50q22 30 38 62q18 35 27 76l-195 58q-5 -24 -14 -45q-6 -17 -15 -31q-7 -12 -19 -22q-4 -3 -12.5 -9.5t-13.5 -10.5
q-26 -19 -60 -25q-26 -4 -77 -2q-50 3 -83 21q-31 18 -49 37q-16 20 -23 28q-12 18 -18 30q-4 9 -12 42q-5 28 -9 63q-3 33 3 63q6 32 15 55q8 20 23 42q15 20 23 27q27 24 57 33q27 9 83 11q42 1 74 -5q34 -6 55 -21q21 -13 41 -43q21 -31 34 -67l177 75q-18 64 -56 115
q-35 50 -85 83q-44 32 -110 51q-60 18 -127 18q-90 1 -172 -29q-77 -29 -138 -87q-60 -58 -93 -138q-32 -79 -32 -183q1 -104 39 -184q42 -85 94 -139q112 -117 294 -117q72 0 132 18q58 17 111 58zM707 1024l76 50l50 36q0 8 47 4l48 -4l186 -6l-30 -65l-100 5l-121 -25
l-115 -50zM532 1300l296 141l30 -111l-281 -120zM1144 1401l261 -186l-50 -30l-251 135zM1551 884l-35 -392l100 10l-5 392zM1430 236l-356 -181l-20 86l346 165zM527 306q286 -150 286 -155q0 -2 -17.5 -16t-35.5 -27l-17 -13l-271 146zM266 738l75 -351l100 20l-95 336z
M291 934l135 266l66 -96q2 0 -30.5 -46.5t-66.5 -92.5l-34 -46zM592 783l85 -291l86 30l-76 271zM833 382l326 30l25 105l-331 -35z" />
    <glyph glyph-name="ordfeminine" unicode="&#xaa;" 
 />
    <glyph glyph-name="guillemotleft" unicode="&#xab;" horiz-adv-x="1290" 
d="M621 872l-353 -393l353 -393h198v47l-235 346l235 346v47h-198zM1091 872l-353 -393l353 -393h198v47l-235 346l235 346v47h-198zM626 813l-271 -316l286 -351h111l-241 341l220 326h-105zM1098 818l-271 -341l291 -336l110 15q2 0 -58 79t-122 158l-61 79l236 346h-125z
" />
    <glyph glyph-name="logicalnot" unicode="&#xac;" horiz-adv-x="1108" 
d="M172 773v-212h671v-292h244l1 1v503h-916zM227 713l793 15l5 -407l-131 5v286l-682 6z" />
    <glyph glyph-name="sfthyphen" unicode="&#xad;" horiz-adv-x="1503" 
d="M1503 981h-1303v-262h1303v262zM251 939l1184 -15l-25 -161l-1149 10z" />
    <glyph glyph-name="registered" unicode="&#xae;" horiz-adv-x="1509" 
d="M1415 361q100 178 100 375q0 198 -101 378q-100 182 -282 279q-180 98 -371 98q-190 0 -371 -98q-181 -97 -283 -279q-101 -182 -101 -378q0 -195 100 -375q101 -181 279 -280q92 -51 184 -72q89 -20 192 -20q97 0 194 22q95 23 181 70q180 102 279 280zM1257 1010
q39 -69 54 -134q15 -57 15 -140q0 -152 -77 -291q-18 -35 -39 -63q-18 -25 -44 -51q-24 -24 -51 -44q-21 -16 -63 -39q-67 -36 -141 -58q-70 -19 -150 -19q-74 0 -149 20q-77 22 -142 57q-67 36 -115 83q-48 50 -83 114q-36 68 -58 143q-19 72 -19 148q0 153 79 293
q23 40 41 64q20 28 44 51q22 22 51 43q31 23 62 39q142 76 289 76q75 0 145 -19q70 -18 143 -57q71 -39 119 -91q48 -50 89 -125zM1025 499q-71 115 -119 160q-1 1 -2 2.5t-2.5 2.5t-2.5 2t-7 5q36 11 66 27q30 17 54 41q68 71 68 166q0 72 -41 129q-19 29 -53 57
q-32 26 -67 38q-33 12 -86 18q-43 5 -122 5h-295v-844h195v324h50q29 0 41 -6q18 -8 27 -16q11 -6 20 -20q8 -9 22 -32q10 -14 29 -50q5 -10 17.5 -31.5t18.5 -32.5l76 -136h232zM873 933q9 -11 12 -20q3 -6 3 -18q0 -21 -8 -32q-9 -15 -24 -27q-12 -11 -46 -20
q-29 -7 -89 -7h-110v169h101q52 0 76 -4q31 -3 42 -8q26 -9 43 -33zM460 1064l90 25l-15 -251q0 -2 -18.5 -3.5t-37.5 -1.5h-19v231zM460 683l-15 -296h85l30 296h-100zM816 607l35 -60l31 -95l80 -80l35 45l-60 75l-45 100q0 2 -19 6t-38 6zM872 1029l5 55l50 -10l35 -75
l35 -95l-15 -66l-25 -55l-40 5l15 40l-5 116zM821 1426l256 -101l-30 -35l-231 71q2 0 3.5 16.5t1.5 32.5v16zM1213 1245l181 -221l-61 -45l-185 236q0 2 16 9.5t32 13.5zM1464 778l-35 -256l-50 -55v316zM1102 216l181 181l35 -71l-170 -180zM570 146l-401 236l10 10v20
l-10 45l-5 -96l-131 397l80 30l111 -376l216 -201l-55 -50l-211 200l50 51l351 -251l367 -25l-5 -71h-367q-4 0 -2 41zM259 1220l392 110l5 106zM656 1110l120 -6l-15 -65l-110 5z" />
    <glyph glyph-name="macron" unicode="&#xaf;" horiz-adv-x="1160" 
d="M1160 1592h-960v-260l960 8v252zM266 1541l793 15l-5 -150l-778 -20z" />
    <glyph glyph-name="degree" unicode="&#xb0;" horiz-adv-x="920" 
d="M688 1151q0 -60 -36 -96q-35 -34 -87 -34q-25 0 -50 11q-25 13 -43 29q-18 18 -30 42q-11 25 -11 48q0 24 11 46q12 23 30 38q21 18 43 26q21 9 50 9q27 0 48 -10q22 -8 39 -25q16 -14 26 -38q10 -20 10 -46zM920 1145q0 74 -29 135q-30 66 -77 110q-46 46 -114 74
q-66 27 -140 27q-75 0 -141 -27q-65 -27 -114 -74q-46 -44 -77 -110q-28 -62 -28 -135q0 -71 29 -135q31 -65 77 -111q49 -47 114 -74q66 -27 140 -27q75 0 141 27t114 75q49 47 77 110q28 59 28 135zM356 1345l-40 -75l-20 -90l-5 -121l60 -105q0 -2 31.5 -17t63.5 -29
l31 -14h135l100 25l76 45q0 4 11 20.5t23 30.5l11 14l5 101l-15 100q-2 0 -17 22.5t-29 45.5l-14 22q0 2 -24 18.5t-48 31.5l-24 16l-175 10zM502 1160l-25 15l25 -81l90 -10l55 31l-15 45l-25 45l-55 -5z" />
    <glyph glyph-name="plusminus" unicode="&#xb1;" 
 />
    <glyph glyph-name="twosuperior" unicode="&#xb2;" 
 />
    <glyph glyph-name="threesuperior" unicode="&#xb3;" 
 />
    <glyph glyph-name="acute" unicode="&#xb4;" horiz-adv-x="689" 
d="M689 1595h-358l-131 -495l231 5zM371 1516l-110 -351l130 -10l191 371z" />
    <glyph glyph-name="mu" unicode="&#xb5;" 
 />
    <glyph glyph-name="paragraph" unicode="&#xb6;" horiz-adv-x="975" 
d="M321 989l92 -112l130 -5v-867h128v1563h187v-1563h117v1681h-379h-177l-94 -105l-95 -106l-30 -198l30 -175zM431 1556l76 30l15 -587l-40 15l-71 50l-55 76l-50 110v116l35 135q0 2 22.5 16t44.5 27zM421 1491l45 30l-5 -95l5 -136l-5 -140l-60 55l-50 95q-2 7 3 33.5
t11 49.5l6 23z" />
    <glyph glyph-name="periodcentered" unicode="&#xb7;" horiz-adv-x="551" 
d="M218 712q0 -37 14 -71q16 -34 37 -57q24 -24 54 -39q33 -14 67 -14q36 0 67 14q31 15 55 39q23 25 37 58q13 29 13 70q0 39 -14 70q-15 36 -37 58q-25 27 -54 39q-28 14 -67 14q-38 0 -67 -14q-32 -14 -55 -39q-20 -19 -37 -58q-13 -32 -13 -70zM285 723l105 -121
l106 106l-106 125z" />
    <glyph glyph-name="cedilla" unicode="&#xb8;" horiz-adv-x="1068" 
d="M710 -359q108 -38 211 -38q53 0 102 13q48 14 75 36q32 24 48 55q16 29 16 71q0 75 -54 120q-53 45 -151 44q-32 0 -34 -2l35 80h-107l-54 -177q20 2 29 2h25q63 0 93 -11q41 -13 41 -57q0 -45 -23 -62q-22 -16 -78 -16t-174 71v-129zM1023 -151l30 -105l35 25v80h-65z
" />
    <glyph glyph-name="onesuperior" unicode="&#xb9;" 
 />
    <glyph glyph-name="ordmasculine" unicode="&#xba;" 
 />
    <glyph glyph-name="guillemotright" unicode="&#xbb;" 
 />
    <glyph glyph-name="onequarter" unicode="&#xbc;" 
 />
    <glyph glyph-name="onehalf" unicode="&#xbd;" 
 />
    <glyph glyph-name="threequarters" unicode="&#xbe;" 
 />
    <glyph glyph-name="questiondown" unicode="&#xbf;" 
 />
    <glyph glyph-name="Agrave" unicode="&#xc0;" 
 />
    <glyph glyph-name="Aacute" unicode="&#xc1;" 
 />
    <glyph glyph-name="Acircumflex" unicode="&#xc2;" 
 />
    <glyph glyph-name="Atilde" unicode="&#xc3;" 
 />
    <glyph glyph-name="Adieresis" unicode="&#xc4;" 
 />
    <glyph glyph-name="Aring" unicode="&#xc5;" 
 />
    <glyph glyph-name="AE" unicode="&#xc6;" 
 />
    <glyph glyph-name="Ccedilla" unicode="&#xc7;" 
 />
    <glyph glyph-name="Egrave" unicode="&#xc8;" 
 />
    <glyph glyph-name="Eacute" unicode="&#xc9;" 
 />
    <glyph glyph-name="Ecircumflex" unicode="&#xca;" 
 />
    <glyph glyph-name="Edieresis" unicode="&#xcb;" 
 />
    <glyph glyph-name="Igrave" unicode="&#xcc;" 
 />
    <glyph glyph-name="Iacute" unicode="&#xcd;" 
 />
    <glyph glyph-name="Icircumflex" unicode="&#xce;" 
 />
    <glyph glyph-name="Idieresis" unicode="&#xcf;" 
 />
    <glyph glyph-name="Eth" unicode="&#xd0;" 
 />
    <glyph glyph-name="Ntilde" unicode="&#xd1;" 
 />
    <glyph glyph-name="Ograve" unicode="&#xd2;" 
 />
    <glyph glyph-name="Oacute" unicode="&#xd3;" 
 />
    <glyph glyph-name="Ocircumflex" unicode="&#xd4;" 
 />
    <glyph glyph-name="Otilde" unicode="&#xd5;" 
 />
    <glyph glyph-name="Odieresis" unicode="&#xd6;" 
 />
    <glyph glyph-name="multiply" unicode="&#xd7;" horiz-adv-x="1344" 
d="M593 700l-411 -407l167 -191l409 422l398 -411l180 168l-394 409l402 408l-168 180l-408 -413l-418 423l-168 -180zM367 1175l146 -161l-76 -45l-135 146zM568 964q115 -116 115 -121q0 -2 -18.5 -18.5t-37.5 -31.5l-19 -15l-115 121zM1005 1039l170 161l86 -106
l-161 -145zM955 989l-146 -166l90 -85l131 151zM919 648l146 -196l-60 -91l-181 206zM1045 346l105 -135l86 80l-126 111zM633 663l-155 -141l75 -105l161 155zM252 301l165 156l81 -121l-151 -145zM759 778l65 -75l-55 -60l-76 70z" />
    <glyph glyph-name="Oslash" unicode="&#xd8;" 
 />
    <glyph glyph-name="Ugrave" unicode="&#xd9;" 
 />
    <glyph glyph-name="Uacute" unicode="&#xda;" 
 />
    <glyph glyph-name="Ucircumflex" unicode="&#xdb;" 
 />
    <glyph glyph-name="Udieresis" unicode="&#xdc;" 
 />
    <glyph glyph-name="Yacute" unicode="&#xdd;" 
 />
    <glyph glyph-name="Thorn" unicode="&#xde;" 
 />
    <glyph glyph-name="germandbls" unicode="&#xdf;" 
 />
    <glyph glyph-name="agrave" unicode="&#xe0;" 
 />
    <glyph glyph-name="aacute" unicode="&#xe1;" 
 />
    <glyph glyph-name="acircumflex" unicode="&#xe2;" 
 />
    <glyph glyph-name="atilde" unicode="&#xe3;" 
 />
    <glyph glyph-name="adieresis" unicode="&#xe4;" 
 />
    <glyph glyph-name="aring" unicode="&#xe5;" 
 />
    <glyph glyph-name="ae" unicode="&#xe6;" 
 />
    <glyph glyph-name="ccedilla" unicode="&#xe7;" 
 />
    <glyph glyph-name="egrave" unicode="&#xe8;" 
 />
    <glyph glyph-name="eacute" unicode="&#xe9;" 
 />
    <glyph glyph-name="ecircumflex" unicode="&#xea;" 
 />
    <glyph glyph-name="edieresis" unicode="&#xeb;" 
 />
    <glyph glyph-name="igrave" unicode="&#xec;" 
 />
    <glyph glyph-name="iacute" unicode="&#xed;" 
 />
    <glyph glyph-name="icircumflex" unicode="&#xee;" 
 />
    <glyph glyph-name="idieresis" unicode="&#xef;" 
 />
    <glyph glyph-name="eth" unicode="&#xf0;" 
 />
    <glyph glyph-name="ntilde" unicode="&#xf1;" 
 />
    <glyph glyph-name="ograve" unicode="&#xf2;" 
 />
    <glyph glyph-name="oacute" unicode="&#xf3;" 
 />
    <glyph glyph-name="ocircumflex" unicode="&#xf4;" 
 />
    <glyph glyph-name="otilde" unicode="&#xf5;" 
 />
    <glyph glyph-name="odieresis" unicode="&#xf6;" 
 />
    <glyph glyph-name="divide" unicode="&#xf7;" horiz-adv-x="1503" 
d="M838 981q32 0 64 13q31 14 51 34q24 24 35 51q13 29 13 63t-13 63q-12 29 -35 51q-20 21 -52 34q-27 12 -63 12q-35 0 -64 -13q-28 -11 -51 -34q-22 -22 -35 -51q-12 -30 -12 -62t13 -64q13 -28 34 -51q22 -20 52 -34q30 -12 63 -12zM1503 900h-1303v-250h1303v250z
M838 236q32 0 64 13q31 14 51 34q24 24 35 51q13 29 13 62q0 36 -13 63q-12 29 -35 51q-21 23 -52 35q-27 12 -63 12q-35 0 -64 -13q-28 -11 -51 -34q-22 -22 -35 -51q-12 -29 -12 -63q0 -30 13 -63q13 -28 34 -51q22 -20 52 -34q30 -12 63 -12z" />
    <glyph glyph-name="oslash" unicode="&#xf8;" horiz-adv-x="1241" 
 />
    <glyph glyph-name="ugrave" unicode="&#xf9;" 
 />
    <glyph glyph-name="uacute" unicode="&#xfa;" horiz-adv-x="1241" 
 />
    <glyph glyph-name="ucircumflex" unicode="&#xfb;" horiz-adv-x="1382" 
 />
    <glyph glyph-name="udieresis" unicode="&#xfc;" horiz-adv-x="1382" 
 />
    <glyph glyph-name="yacute" unicode="&#xfd;" 
 />
    <glyph glyph-name="thorn" unicode="&#xfe;" 
 />
    <glyph glyph-name="ydieresis" unicode="&#xff;" 
 />
    <glyph glyph-name="OE" unicode="&#x152;" 
 />
    <glyph glyph-name="oe" unicode="&#x153;" 
 />
    <glyph glyph-name="Scaron" unicode="&#x160;" 
 />
    <glyph glyph-name="scaron" unicode="&#x161;" 
 />
    <glyph glyph-name="Ydieresis" unicode="&#x178;" 
 />
    <glyph glyph-name="Zcaron" unicode="&#x17d;" 
 />
    <glyph glyph-name="zcaron" unicode="&#x17e;" 
 />
    <glyph glyph-name="florin" unicode="&#x192;" 
 />
    <glyph glyph-name="circumflex" unicode="&#x2c6;" horiz-adv-x="1022" 
d="M1032 1304l-393 353l-393 -353v-198h47l346 235l346 -235h47v198zM294 1305l351 276l326 -276l10 -135l-346 251l-346 -246z" />
    <glyph glyph-name="tilde" unicode="&#x2dc;" horiz-adv-x="1603" 
d="M331 1017q0 9 22 28q20 16 55 35q41 22 69 34q36 16 65 22q42 10 94 1q64 -11 104 -25q62 -19 104 -35q71 -24 96 -31q36 -9 106 -25q44 -8 107 -12q51 -1 111 8q55 9 116 33q15 6 33 18q33 22 37 25q26 20 38 31q13 12 35 32q41 38 80 80l-70 224q-32 -25 -59 -47
q-33 -27 -72 -47q-33 -18 -88 -28q-49 -8 -106 7q-59 16 -90 25q-57 17 -110 30q-75 19 -121 28q-68 14 -127 20q-54 6 -127 3q-67 -3 -118 -18q-59 -16 -117 -53t-101 -71q-34 -28 -50 -44q-32 -30 -47 -45zM291 1220q40 55 45 55q2 0 8.5 8.5t11.5 17.5l5 9q0 2 15 13.5
t30 22.5l15 10l76 20l95 15l65 -5l50 -5l106 -10l55 -5l75 -26l106 -35l60 -20l111 -10h70l65 20l65 45l81 31l25 -151l-106 -65l-90 -30l-110 -51l-91 10l-115 26l-76 25l-95 35l-80 10l-136 5l-155 -5q-2 -2 -23.5 -7t-42.5 -9l-20 -4q-4 0 -15.5 -12.5t-20.5 -25.5
l-9 -12z" />
    <glyph glyph-name="endash" unicode="&#x2013;" horiz-adv-x="1363" 
d="M1363 911h-1163v-262h1163v262zM276 843l999 10v-125l-994 -30z" />
    <glyph glyph-name="emdash" unicode="&#x2014;" horiz-adv-x="2243" 
d="M2243 911h-2043v-262h2043v262zM281 843l1877 5l-20 -140l-1852 5q-4 0 -5.5 32.5t-0.5 64.5z" />
    <glyph glyph-name="quoteleft" unicode="&#x2018;" horiz-adv-x="690" 
d="M458 1105l232 -5l-132 495h-358zM306 1551l181 -401l125 15l-95 381z" />
    <glyph glyph-name="quoteright" unicode="&#x2019;" horiz-adv-x="689" 
d="M689 1595h-358l-131 -495l231 5zM371 1551l-110 -391l145 10l196 366z" />
    <glyph glyph-name="quotesinglbase" unicode="&#x201a;" horiz-adv-x="689" 
d="M689 331h-358l-131 -487l231 5zM366 276l-115 -376l145 5l191 381z" />
    <glyph glyph-name="quotedblleft" unicode="&#x201c;" horiz-adv-x="1210" 
d="M458 1105l232 -5l-132 495h-358zM978 1105l232 -5l-132 495h-358zM296 1541l176 -391l150 10l-135 381h-191zM818 1541l181 -381h130l-95 366z" />
    <glyph glyph-name="quotedblright" unicode="&#x201d;" horiz-adv-x="1210" 
d="M690 1595h-358l-132 -495l232 5zM1210 1595h-358l-132 -495l232 5zM366 1546l-120 -396h150l201 391zM888 1531l-120 -391l145 10l211 401z" />
    <glyph glyph-name="quotedblbase" unicode="&#x201e;" horiz-adv-x="1189" 
d="M689 331h-358l-131 -487l231 5zM1189 331h-358l-131 -487l231 5zM366 281l-110 -391l140 5l191 381q10 10 -221 5zM863 271l-110 -371h145l181 376z" />
    <glyph glyph-name="dagger" unicode="&#x2020;" horiz-adv-x="1331" 
d="M609 1044h-409v-290h409v-1074h320v1074h402v290h-402v406h-320v-406zM256 989l-5 -161l396 -10v-1084l196 5l15 1069l402 25v146h-382l-15 422h-191l15 -417z" />
    <glyph glyph-name="daggerdbl" unicode="&#x2021;" horiz-adv-x="1238" 
d="M598 1536l5 -388l-403 5v-219l403 5v-328l-403 5v-229l403 5l-5 -388h242l-5 388l403 -5v229l-403 -5v328l403 -5v219l-403 -5l5 388h-242zM266 1110l381 -11l20 392h121l-35 -366l436 -21l-15 -115l-401 5l-10 -422l431 5l-5 -130l-401 10v-397l-151 -10l25 382l-411 5
l-5 115l411 5l-10 437l-386 -15z" />
    <glyph glyph-name="bullet" unicode="&#x2022;" horiz-adv-x="802" 
d="M342 801q0 -45 19 -91q21 -45 51 -75q31 -30 75 -50q43 -18 92 -18q48 0 92 19q45 20 76 50q34 34 51 74q18 40 18 91q0 50 -19 91q-17 42 -51 74q-32 32 -75 50q-39 18 -92 18q-50 0 -92 -19q-45 -19 -76 -50q-31 -30 -51 -74q-18 -42 -18 -90zM427 889l-15 -116v-55
l65 -50l76 -25l80 15l75 20l20 60v70l-15 76l-40 55l-75 35l-106 -25z" />
    <glyph glyph-name="ellipsis" unicode="&#x2026;" horiz-adv-x="1950" 
d="M1950 285h-280v-285h280v285zM1210 285h-280v-285h280v285zM480 285h-280v-285h280v285zM241 241v-176l180 -15l-5 186q5 -5 -175 5zM958 236l6 -186h175l15 186h-196zM1712 241l10 -201l175 10l-10 186z" />
    <glyph glyph-name="perthousand" unicode="&#x2030;" horiz-adv-x="2672" 
d="M2324 72q71 0 136 28q62 27 110 77q48 49 75 114q27 63 27 140q0 74 -28 139q-28 68 -74 114q-46 50 -111 78q-61 29 -135 29q-75 0 -137 -29q-63 -28 -111 -78q-46 -47 -75 -115q-27 -66 -27 -138t28 -140q29 -67 74 -114q49 -49 111 -77q67 -28 137 -28zM1471 72
q71 0 136 28q62 27 110 77q48 49 75 114q27 63 27 140q0 74 -28 139q-28 68 -74 114q-47 50 -111 78q-61 29 -135 29q-75 0 -137 -29q-63 -28 -111 -78q-46 -47 -75 -115q-27 -66 -27 -138t28 -140q30 -67 75 -114q49 -49 111 -77q67 -28 136 -28zM1286 1524l-860 -1524h328
l860 1524h-328zM550 696q71 0 136 28q62 27 110 77q48 49 75 114q27 63 27 140q0 74 -28 139q-28 69 -74 115q-46 49 -111 78q-61 29 -135 29q-75 0 -137 -29q-63 -29 -111 -78q-46 -47 -75 -115q-27 -66 -27 -139q0 -72 28 -140q29 -67 74 -114q49 -49 111 -77
q67 -28 137 -28zM2324 596q9 0 20 -11q13 -11 23 -33q11 -20 19 -52q7 -23 7 -69q0 -43 -8 -71q-9 -36 -18 -53q-9 -18 -23 -32q-13 -11 -20 -11q-8 0 -21 11q-7 7 -22 33q-9 18 -17 52q-7 37 -7 71q0 35 7 70q7 31 18 52q15 26 22 32q11 11 20 11zM1471 596q9 0 20 -11
q13 -11 23 -33q11 -20 19 -52q7 -23 7 -69q0 -43 -8 -71q-9 -36 -18 -53q-9 -18 -23 -32q-13 -11 -20 -11t-20 11q-9 10 -22 33q-9 18 -17 52q-7 37 -7 71q0 35 7 70q7 31 18 52q15 26 21 32q11 11 20 11zM550 1221q9 0 20 -11q13 -11 23 -33q11 -20 19 -52q7 -23 7 -70
q0 -42 -8 -70q-9 -36 -18 -53q-9 -18 -23 -32q-13 -11 -20 -11q-8 0 -21 11q-9 9 -22 32q-8 16 -17 52q-7 37 -7 71q0 36 7 71q7 31 18 52q15 26 22 32q11 11 20 11zM2058 587v-50v-90l25 -121l55 -100l86 -50q2 -2 27 -4.5t49 -3.5l24 -2l80 30l81 30l80 50q2 0 9.5 16
t13.5 32l7 17v106q0 7 -6.5 33t-12.5 49l-6 23l-80 86l-50 55q0 4 -24 15.5t-48 20.5l-24 9l-115 -30l-111 -45zM2349 452v-5l-10 10v30h-15l-20 -20v-85l15 -51l25 41zM2344 427l-5 -5q0 8 5 4l5 -4l15 5v55l-50 10l-10 -25l-5 -65l30 -30l10 40zM1245 623l-20 -71l-5 -80
l-5 -116l40 -85l60 -90l110 -30l121 20q0 2 19 11t37 16l19 8q2 4 17 14t29 18l14 8q4 0 15.5 19t21.5 37l9 19l25 81l5 105l-86 90l-95 91l-136 30l-115 -25zM1450 472l-5 -70l26 -56l30 26v80l-30 75zM1310 1461l-813 -1406l205 -10l814 1431zM331 1235l-60 -75l-10 -116
l30 -95q2 -2 9.5 -28.5t13.5 -52.5l7 -25l130 -65l121 -20l115 30q2 0 17.5 12.5t29.5 25.5l14 12l50 76l20 80v100l-55 141l-96 95l-125 31l-136 -36z" />
    <glyph glyph-name="guilsinglleft" unicode="&#x2039;" horiz-adv-x="750" 
d="M200 822v-243l550 -455v290l-327 286l327 286v289zM251 793l441 397l15 -161l-371 -316l356 -311v-146l-431 356q-4 4 -6.5 49.5t-2.5 88.5z" />
    <glyph glyph-name="guilsinglright" unicode="&#x203a;" horiz-adv-x="750" 
d="M200 414v-290l550 455v243l-550 453v-289l327 -286zM256 1019l5 136l421 -342v-216l-426 -366l-15 166q0 2 87.5 83.5t175.5 161.5l88 81z" />
    <glyph glyph-name="Euro" unicode="&#x20ac;" horiz-adv-x="1335" 
d="M1332 1420q-78 50 -154 70q-73 21 -173 21q-194 0 -351 -88q-254 -141 -318 -450h-111l-37 -178h131v-40q1 -13 1 -40h-95l-37 -178h157q17 -66 23 -88q12 -39 27 -75q81 -193 232 -284q153 -90 375 -90q70 0 146 13q74 14 143 47v270q-36 -35 -74 -60q-37 -24 -73 -39
q-28 -12 -76 -21q-39 -6 -81 -6q-58 0 -119 16q-57 17 -107 47q-66 42 -111 108q-44 66 -66 162h560l37 178h-623v80h639l36 178h-654q7 30 21 64q17 37 34 66q26 43 53 73q28 31 58 52q104 74 256 74q71 0 137 -27q69 -28 144 -91zM546 924l-45 25l25 70q2 0 12 24t19 48
l9 24q0 2 12.5 19.5t25.5 33.5l12 17l65 80l131 55l146 36q0 3 27.5 4t54.5 1h28l95 -31l101 -55l25 91l-45 60l-81 25h-130l-131 -10l-125 -30l-116 -45q-2 0 -26 -23t-47 -45l-22 -23l-90 -125l-71 -116l-30 -105l-130 -15l-20 -66l150 -10l5 -155l-115 -10l-30 -81
l160 -5l30 -105l41 -90l55 -116l65 -85l110 -76l126 -45l120 -20h106l95 20l96 30v141l-101 -65l-95 -20l-121 -5l-130 55l-106 65l-70 70q-2 0 -16 21.5t-26 43.5l-13 21l-55 135l582 15l20 96l-602 -5l5 160l632 5l20 96z" />
    <glyph glyph-name="trademark" unicode="&#x2122;" 
 />
    <glyph glyph-name="_24" 
 />
    <glyph glyph-name="_127" 
 />
    <glyph glyph-name="_129" 
 />
    <glyph glyph-name="_141" 
 />
    <glyph glyph-name="_143" 
 />
    <glyph glyph-name="_144" 
 />
    <glyph glyph-name="_157" 
 />
    <glyph glyph-name="_256" 
 />
    <glyph glyph-name="_257" 
 />
    <glyph glyph-name="_258" 
 />
    <glyph glyph-name="_259" horiz-adv-x="1241" 
 />
    <glyph glyph-name="_260" horiz-adv-x="1382" 
 />
    <glyph glyph-name="_261" horiz-adv-x="1382" 
 />
  </font>
</defs>
</svg>
