<?xml version="1.0" standalone="no"?>
<!DOCTYPE svg PUBLIC "-//W3C//DTD SVG 1.1//EN" "http://www.w3.org/Graphics/SVG/1.1/DTD/svg11.dtd" >
<svg xmlns="http://www.w3.org/2000/svg" xmlns:xlink="http://www.w3.org/1999/xlink" version="1.1">
<metadata>
Created by FontForge 20161003 at Fri Jul  7 06:30:48 2017
 By www-data
Copyright (c) 2013 by ssw.lixter.com. All rights reserved.
</metadata>
<defs>
<font id="OlChikiBivash-Bold" horiz-adv-x="2048" >
  <font-face 
    font-family="Ol Chiki Bivash"
    font-weight="700"
    font-stretch="normal"
    units-per-em="2048"
    panose-1="0 0 0 0 0 0 0 0 0 0"
    ascent="1638"
    descent="-410"
    x-height="1510"
    cap-height="1541"
    bbox="3 -397 2572 1996"
    underline-thickness="102"
    underline-position="-198"
    unicode-range="U+0008-2122"
  />
<missing-glyph horiz-adv-x="1024" 
d="M896 1638v-1638h-768v1638h768zM768 1510h-512v-1382h512v1382z" />
    <glyph glyph-name=".notdef" horiz-adv-x="1024" 
d="M896 1638v-1638h-768v1638h768zM768 1510h-512v-1382h512v1382z" />
    <glyph glyph-name=".null" horiz-adv-x="0" 
 />
    <glyph glyph-name="nonmarkingreturn" unicode="&#x9;" horiz-adv-x="0" 
 />
    <glyph glyph-name="nonmarkingreturn" unicode="&#xd;" horiz-adv-x="0" 
 />
    <glyph glyph-name="space" unicode=" " horiz-adv-x="1500" 
 />
    <glyph glyph-name="controlGS" horiz-adv-x="0" 
 />
    <glyph glyph-name="exclam" unicode="!" horiz-adv-x="503" 
d="M403 1128l-44 -741h-211l-48 741v391h303v-391zM150 94q0 9 2.5 31.5t8.5 47t14.5 46.5t20.5 31q17 12 35.5 17t35.5 5t30.5 -3.5t21.5 -8.5q14 -9 25.5 -30t20 -45.5t12.5 -49.5t3 -41q-1 -20 -11 -37t-25 -30t-33.5 -20t-36.5 -7q-17 0 -38.5 5t-40.5 16.5t-32 29
t-13 43.5z" />
    <glyph glyph-name="quotedbl" unicode="&#x22;" horiz-adv-x="914" 
d="M814 1614l-34 -465h-217l-35 465h286zM394 1614l-35 -465h-217l-34 465h286z" />
    <glyph glyph-name="numbersign" unicode="#" horiz-adv-x="1560" 
d="M618 1488h208l-76 -335h243l76 335h209l-76 -335h258l-19 -277h-299l-65 -283h277l-18 -278h-319l-75 -315h-208l75 315h-243l-75 -315h-208l75 315h-258l18 278h300l64 283h-277l18 277h319zM936 877h-247l-66 -286h247z" />
    <glyph glyph-name="dollar" unicode="$" horiz-adv-x="1448" 
d="M1348 517q0 -30 -9.5 -61t-26.5 -60.5t-40.5 -55.5t-50.5 -46t-75.5 -39t-105 -34.5t-114 -26.5t-101.5 -15v-243h-198v239q-60 0 -133.5 5.5t-145.5 15t-135 22.5t-101 28v231h14q9 -6 24 -14t37 -18q23 -11 44 -19l42 -16q23 -8 67.5 -15.5t96.5 -13.5t103 -10t87 -5
v253q-18 3 -52 9t-70 12.5t-67.5 12.5t-44.5 9q-74 16 -128.5 49t-91.5 76t-55 92.5t-18 97.5q0 29 5.5 60t19.5 63t37.5 65t60.5 66q28 25 77 41.5t106.5 27.5t116 17t104.5 9v252h198v-251q22 0 59.5 -1.5t78 -3.5t78.5 -6t62 -8q24 -5 51.5 -9.5t54.5 -9.5t51 -10.5
t40 -11.5v-211h-12q-43 14 -92 23t-86 23q-19 7 -54.5 13t-77 10.5t-82.5 7.5t-71 5v-287q13 -2 42.5 -7.5t62 -12.5t61 -12.5t39.5 -7.5q67 -12 125.5 -39t101 -66t67 -87t24.5 -102zM627 864v274q-24 -2 -52 -6t-55.5 -10t-51.5 -14t-40 -18q-33 -20 -50 -35.5t-16 -38.5
q1 -37 12.5 -55t36.5 -36q12 -9 35 -17.5t52 -16t62.5 -14.5t66.5 -13zM1104 478q0 19 -6 32t-16 23t-23 18.5t-26 17.5t-36 13.5t-51.5 8t-60 6.5t-60.5 8v-237q54 4 104.5 7.5t89 13t62 30t23.5 59.5z" />
    <glyph glyph-name="percent" unicode="%" horiz-adv-x="1802" 
d="M432 1412q68 0 128 -27.5t105 -75t71 -110.5t26 -134q0 -72 -26 -135.5t-71 -110t-105 -73.5t-128 -27q-69 0 -129.5 27t-105.5 73.5t-71 110t-26 135.5q0 71 26 134t71 110.5t105.5 75t129.5 27.5zM432 1261q-19 0 -36 -16t-29.5 -43t-20 -62.5t-7.5 -74.5t7.5 -75
t20 -63t29.5 -43t36 -16q18 0 35.5 16t30.5 43t21 63t8 75t-8 74.5t-21 62.5t-30.5 43t-35.5 16zM1372 767q68 0 128 -27.5t105 -75t71 -110.5t26 -134q0 -72 -26 -135.5t-71 -110t-105 -73.5t-128 -27q-69 0 -129.5 27t-105.5 73.5t-71 110t-26 135.5q0 71 26 134t71 110.5
t105.5 75t129.5 27.5zM1372 616q-19 0 -36 -16t-29.5 -43t-20 -62.5t-7.5 -74.5t7.5 -75t20 -63t29.5 -43t36 -16q18 0 35.5 16t30.5 43t21 63t8 75t-8 74.5t-21 62.5t-30.5 43t-35.5 16zM1475 1524l-849 -1524h-278l850 1524h277z" />
    <glyph glyph-name="ampersand" unicode="&#x26;" horiz-adv-x="1453" 
d="M439 275h265l236 193l-48 186h-437q-28 0 -38.5 -16.5t-10.5 -43.5v-288q0 -31 33 -31zM492 955v-22h629l232 -933h-291l-50 216l-206 -174q-24 -20 -56 -31t-64 -11h-428q-31 0 -59.5 10t-50.5 29.5t-35 49.5t-13 71v616q0 40 14.5 69.5t39 48.5t57 28t67.5 7
q-41 13 -62.5 31t-31.5 40t-11.5 46t-1.5 49v289q0 62 39 101t122 39h632l72 -256h-525q-9 0 -13.5 -21t-7 -53.5t-2.5 -71t1 -73.5t2 -61t1 -33z" />
    <glyph glyph-name="quotesingle" unicode="'" horiz-adv-x="486" 
d="M386 1614l-34 -465h-217l-35 465h286z" />
    <glyph glyph-name="parenleft" unicode="(" horiz-adv-x="791" 
d="M691 -69l-261 -39q-45 65 -85.5 142t-75.5 159.5t-64 167t-50 164.5t-34 152.5t-16 131.5q-6 102 13 225t62 251t109.5 253t156.5 232l245 -55q-73 -103 -121.5 -211t-77.5 -221t-41 -231t-12 -241q0 -53 9.5 -124.5t26.5 -152.5t40.5 -166.5t51.5 -165.5t59.5 -150
t64.5 -121z" />
    <glyph glyph-name="parenright" unicode=")" horiz-adv-x="790" 
d="M361 -108l-261 39q33 51 64.5 121t59.5 150t51.5 165.5t40.5 166.5t26.5 152.5t9.5 124.5q0 126 -12 243t-41 228.5t-77.5 218.5t-121.5 214l245 55q88 -107 154.5 -232t109.5 -252.5t62.5 -250.5t14.5 -226q-5 -90 -28.5 -198t-64.5 -226t-99.5 -243t-132.5 -250z" />
    <glyph glyph-name="asterisk" unicode="*" horiz-adv-x="943" 
d="M100 1168l60 184q29 -4 65 -17t72 -31t69 -38.5t56 -38.5q-9 33 -20.5 69.5t-20.5 71.5t-13.5 66t0.5 54h205q2 -24 -4 -55.5t-15.5 -66t-20 -70t-18.5 -68.5q25 19 60 43t72 45.5t72.5 36.5t63.5 17l60 -165q-26 -14 -64.5 -27t-80.5 -22.5t-82.5 -15t-70.5 -4.5
q25 -14 58.5 -34.5t66.5 -45t61 -52.5t42 -57l-163 -113q-20 21 -41 52.5t-39.5 65.5t-35 68.5t-27.5 61.5q-6 -28 -16 -65.5t-24.5 -76t-33.5 -72t-43 -53.5l-161 114q15 27 40.5 56.5t54.5 58t58 52.5t52 40q-32 -1 -72.5 -1.5t-82 2.5t-78.5 10t-61 21z" />
    <glyph glyph-name="plus" unicode="+" horiz-adv-x="1373" 
d="M546 596h-446v275h446v482h282v-482h445v-275h-445v-472h-282v472z" />
    <glyph glyph-name="comma" unicode="," horiz-adv-x="689" 
d="M589 331l-258 -482l-231 -5l131 487h358z" />
    <glyph glyph-name="hyphen" unicode="-" horiz-adv-x="1369" 
d="M100 861h1169v-262h-1169v262z" />
    <glyph glyph-name="period" unicode="." horiz-adv-x="554" 
d="M454 288v-286h-354v286h354z" />
    <glyph glyph-name="slash" unicode="/" horiz-adv-x="1059" 
d="M417 0h-317l564 1521l295 -6z" />
    <glyph glyph-name="zero" unicode="0" horiz-adv-x="1817" 
d="M122 1525q128 7 261.5 13.5t267.5 8.5t267 -0.5t260 -13.5q137 -12 226.5 -64t146 -136.5t87.5 -199.5t52 -253q32 -214 29.5 -427.5t-22.5 -428.5q-131 -8 -263.5 -15t-265.5 -10t-265.5 -1t-262.5 13q-138 12 -227.5 57t-145.5 122t-87 185t-53 246q-18 111 -25 224.5
t-6.5 227t8 227t18.5 225.5zM1372 824q-8 68 -18 128t-32 109t-61 86.5t-104 60.5q-25 9 -74.5 14.5t-113.5 7.5t-137.5 2t-146.5 -2t-140.5 -5.5t-119.5 -7.5q-3 -62 -3 -131.5t3 -140t8 -139.5t12 -129q8 -68 18.5 -121t32.5 -94t60.5 -72t103.5 -54q22 -8 71 -12.5
t113 -6.5t138 -2t146.5 2t138.5 4.5t115 5.5q3 67 5 127.5t1 120t-4.5 120.5t-11.5 129z" />
    <glyph glyph-name="one" unicode="1" horiz-adv-x="1867" 
d="M101 1473l354 2l647 -467l2 467h346l4 -782l-339 -83l-682 463l-1 -551q0 -70 17 -113t45 -67q8 -7 32.5 -16.5t60.5 -18.5t80.5 -15t91.5 -6q40 0 103 7.5t139 19.5t159.5 28t164.5 33q24 5 54 11.5t63 13.5t67 14.5t66 14.5l155 35l37 -277q-40 -11 -78.5 -21.5
t-76.5 -21.5q-32 -9 -67 -18t-69 -18t-65.5 -16.5t-56.5 -13.5q-87 -20 -182.5 -37t-191.5 -28t-188 -15t-171 3q-107 10 -185.5 28.5t-134.5 42.5t-91.5 53t-56.5 60t-31 62.5t-14 61.5q-2 15 -3.5 48t-2.5 80t-1 105t-0.5 122.5t-0.5 134v138.5v329v102.5t1 105.5z" />
    <glyph glyph-name="two" unicode="2" horiz-adv-x="1762" 
d="M837 916q25 -1 64 1.5t84.5 7t93 11.5t89.5 15t75 17t49 18q27 15 43 38.5t16.5 48t-15.5 47t-53 36.5q-21 8 -64 13.5t-93.5 8.5t-101 4.5t-87.5 1.5q-24 0 -56 -2t-66.5 -6t-68.5 -10.5t-61 -16.5t-44 -23.5t-18 -30.5q-3 -44 15.5 -76.5t49.5 -54.5t70.5 -34t78.5 -14
zM1224 642q-165 -38 -304 -62t-239 -45.5t-154.5 -46.5t-51.5 -64q2 -22 22.5 -39.5t52.5 -31.5t71.5 -24t79.5 -16t76 -9t62 -2q80 2 158 10.5t150.5 20.5t139 27t123.5 30q67 18 129.5 38.5t121.5 43.5v-313q-45 -20 -99.5 -38t-123.5 -35q-58 -14 -133 -28t-167.5 -24.5
t-203 -16.5t-239.5 -4q-118 1 -220.5 23.5t-180.5 59.5t-126 86.5t-56 105.5q-6 39 -8.5 76t-2.5 72q0 30 3 61.5t11 60.5t21 54.5t33 43.5q33 29 82 52.5t95 40.5q54 19 111 33q-18 16 -35 33t-34 35q-28 31 -55.5 69t-41.5 80q-12 34 -14 82.5t12.5 99.5t48 99t93.5 82
q57 32 141.5 54.5t186 34.5t215 14t229.5 -7q102 -8 185.5 -32t143.5 -67.5t93.5 -107t35.5 -149.5q1 -63 0 -115t-13 -94.5t-38.5 -77.5t-75.5 -65t-124.5 -56.5t-185.5 -51.5z" />
    <glyph glyph-name="three" unicode="3" horiz-adv-x="1834" 
d="M825 1156q-23 13 -62 20.5t-99 7.5q-34 0 -72 -4t-70 -14.5t-54.5 -27.5t-25.5 -43q-5 -31 23.5 -48.5t82.5 -36.5q63 -21 129 -28.5t120 4.5q28 6 48.5 26.5t27 46t-4 52t-43.5 45.5zM1678 481l56 -295q-100 -32 -197.5 -59t-197.5 -50q-84 -20 -176 -37t-185 -28.5
t-183.5 -15t-170.5 3.5q-159 15 -257.5 47.5t-153.5 75.5t-76 91t-25 94q-1 11 -3 34.5t-2.5 54.5t1.5 66.5t9 70t20 66.5t35 56q33 36 79.5 57t88.5 32q49 13 102 18q-42 5 -79 15.5t-72 24.5q-29 12 -58.5 29.5t-54 41.5t-43 55t-25.5 70q-9 48 -2 100.5t26.5 101.5
t49.5 91.5t66 69.5q25 19 74 41.5t116 39t149 22.5t174 -7q99 -14 187 -41.5t154 -70.5t103 -103.5t33 -140.5q-3 -51 -18 -86.5t-32 -58.5q-19 -27 -43 -46q20 -7 41 -11t42 -7q36 -5 77.5 -1.5t79.5 20.5q7 3 11 29.5t5.5 66.5t1 90.5t-1.5 101.5q-2 61 -4 129t-6 146h302
q5 -75 8.5 -143.5t5.5 -132.5q2 -54 3 -108.5t1 -102t-2.5 -84.5t-6.5 -56q-18 -74 -49 -122.5t-72.5 -78t-92.5 -43t-108 -18.5q-97 -8 -182 -0.5t-149 20.5q-75 15 -138 36q-92 -42 -174 -73t-144 -55.5t-100 -44.5t-42 -40q1 -35 6.5 -56t15.5 -34t24.5 -20t34.5 -14
q18 -6 38.5 -9.5t47 -6t61 -3t81.5 -0.5q40 0 100.5 8.5t132.5 22t150.5 31t154.5 35.5q91 21 184.5 45.5t193.5 52.5z" />
    <glyph glyph-name="four" unicode="4" horiz-adv-x="1878" 
d="M1294 363q-55 19 -108 42.5t-109.5 52.5t-117.5 63.5t-132 75.5q-55 32 -105.5 64t-89.5 59l-87 60q-27 -50 -46 -85.5t-31 -63.5t-18 -53.5t-8 -55.5q-2 -35 5 -62.5t19 -50t27 -39t29 -28.5q8 -7 30 -16.5t54.5 -18.5t74 -15t88.5 -6q93 0 221 20.5t304 56.5zM1741 481
l37 -295q-106 -32 -208 -59t-205 -50q-87 -20 -182.5 -37t-191.5 -28.5t-188 -15t-172 3.5q-107 10 -185 32t-133 50.5t-90 61t-56 63.5t-31.5 57.5t-16.5 43.5q-18 51 -18.5 137.5t31.5 218.5q11 44 46.5 114t84.5 151t105 166.5t108 161t93.5 133.5t61.5 85h358
q-10 -15 -30 -45.5t-45.5 -70t-54 -84.5t-55 -89t-49 -83t-35.5 -67q34 -25 68 -49t69 -48q60 -42 132 -88.5t142 -84.5q63 -34 129.5 -67t129.5 -63t121 -56t105 -46.5t79.5 -34t45.5 -18.5z" />
    <glyph glyph-name="five" unicode="5" horiz-adv-x="1878" 
d="M1640 521l101 -58l37 -277q-106 -32 -208 -59t-205 -50q-87 -20 -182.5 -37t-191.5 -28.5t-188 -15t-172 3.5q-107 10 -185 32t-133 50.5t-90 61t-56 63.5t-31.5 57.5t-16.5 43.5q-9 25 -15 59.5t-5.5 78.5t8 98.5t25.5 119.5q13 48 49.5 119t85.5 152.5t104.5 165.5
t106.5 158.5t92 131.5t61 84h358q-82 -112 -153.5 -212.5t-135.5 -197.5q-54 -81 -105 -163.5t-90 -156t-61.5 -132t-19.5 -91.5q6 -69 29 -112.5t51 -67.5q31 -26 101 -41t164 -15q30 0 75 4t96 10t104.5 14.5t102.5 16.5t88.5 16t62.5 14q-84 46 -156 93q-31 20 -62.5 42
t-59.5 44.5t-50.5 44.5t-34.5 42q-28 45 -27.5 92.5t18.5 95.5t47 95.5t58 94.5q17 28 46 70t63.5 90t71 97.5t68.5 92.5t55.5 75t32.5 45h338q-7 -14 -26.5 -46t-47 -75.5t-60.5 -95l-66 -103t-63.5 -100t-53.5 -87.5q-24 -39 -46 -78t-24.5 -79t24 -82t99.5 -88
q48 -30 100.5 -62t97.5 -58z" />
    <glyph glyph-name="six" unicode="6" horiz-adv-x="1859" 
d="M1424 1047q0 39 -17 67t-48.5 46t-75 27t-95.5 9q-53 0 -102 -6t-87 -16.5t-61 -24t-23 -28.5q-1 -69 22 -118.5t61 -81t87.5 -46t102.5 -14.5q52 0 95.5 14.5t75 40t48.5 59t17 72.5zM1722 463l37 -277q-103 -32 -202 -58.5t-202 -50.5q-86 -20 -179.5 -37t-188 -28.5
t-185.5 -15t-171 3.5q-107 10 -185 32t-133 50.5t-90 61t-56 63.5t-31.5 57.5t-16.5 43.5q-9 25 -15 59.5t-5.5 78.5t8 98.5t25.5 119.5q12 43 43 108.5t74 139t93 147t101 132.5q42 49 80.5 85t78.5 64t83.5 50t94.5 42q56 22 134 32.5t160.5 12.5t159.5 -4t131 -17
q53 -11 110.5 -31.5t107 -54.5t84 -84t42.5 -119q8 -68 8 -129t-9.5 -113.5t-30.5 -97t-56 -79.5q-42 -42 -81.5 -71t-84 -48.5t-96.5 -30t-118 -14.5q-51 -3 -102.5 -3t-105 9.5t-108 33.5t-111.5 69t-89 94t-47 92q-9 25 -14.5 50t-7.5 50q-12 -20 -32.5 -52t-45 -71.5
t-50.5 -83.5t-47.5 -88.5t-37 -86t-19.5 -75.5q-9 -73 3 -114.5t40 -65.5q31 -26 101.5 -42.5t164.5 -13.5q88 3 177.5 12t175.5 22t166.5 28.5t151.5 31.5q85 19 162.5 39.5t155.5 43.5z" />
    <glyph glyph-name="seven" unicode="7" horiz-adv-x="1846" 
d="M704 1423q28 10 93 21t148.5 16.5t177 2t177.5 -21.5q166 -36 267.5 -128t133.5 -255q15 -77 9 -149t-38 -134t-94.5 -110.5t-159.5 -78.5q-114 -35 -233 -62t-240 -49.5t-241.5 -42t-238.5 -39.5q-10 -20 5.5 -35.5t45 -27.5t67.5 -20.5t74 -13.5t63.5 -7.5t35.5 -2.5
q40 0 102.5 7.5t137 19.5t156 28t161.5 33q23 5 52.5 11.5t61.5 13.5t65 14.5t65 14.5l152 35l37 -277l-76 -22t-75 -21q-32 -9 -66 -18t-67 -18t-64 -16.5t-56 -13.5q-86 -20 -180 -37t-188 -28.5t-185 -15t-171 3.5q-160 15 -258.5 47.5t-153.5 75.5t-75.5 91t-25.5 94
q-5 45 -5 92t2 91t5 84t4 72q136 22 255 42.5t234 40.5q96 17 194 35.5t185 36.5t156 35t107 31q58 21 81.5 62.5t15 83.5t-47 74t-104.5 35q-55 2 -105 7t-94 6t-79.5 -6.5t-60.5 -30.5t-39 -64.5t-14 -109.5q-45 -14 -88 -23t-85 -14q-35 -4 -73 -5t-74.5 4t-70 17.5
t-59.5 35.5q-66 57 -122.5 120t-111.5 129l206 193q19 -24 42.5 -51.5t49.5 -54t52.5 -49.5t52.5 -38q9 37 25.5 73t40.5 67t55 55.5t69 38.5z" />
    <glyph glyph-name="eight" unicode="8" horiz-adv-x="1878" 
d="M746 1062q6 9 -1 23t-23.5 28.5t-41.5 26.5t-54.5 17t-62 -0.5t-64.5 -26.5q-23 -15 -39.5 -36.5t-27.5 -46t-18.5 -51.5t-11.5 -52q-5 -28 -7 -60t0 -67q34 14 71.5 35.5t74.5 46t71.5 50t62 48t46.5 40t25 25.5zM1485 1064q5 20 -4.5 39t-29 31.5t-47.5 16t-61 -7.5
q-35 -12 -57.5 -26.5t-38 -30t-26 -30.5t-21.5 -28t7.5 -28.5t51.5 -26.5t71.5 -14t67.5 9q23 9 37.5 16t23.5 16.5t14.5 24t11.5 39.5zM1657 463l37 -277q-94 -32 -186.5 -58.5t-189.5 -50.5q-80 -20 -169 -37t-179.5 -28.5t-179.5 -15t-169 3.5q-107 10 -185.5 28t-134 42
t-91 53t-56.5 60t-31 63t-14 62q-2 13 -3 46.5t-2 79.5t-2 102t-1.5 113t-0.5 112.5v101.5q0 69 3 129.5t15 114t35 100t64 87.5q25 25 51.5 49t59 43.5t73.5 33.5t95 21q44 5 82 7.5t74 0t72 -10t76 -22.5q49 -18 83 -49t56 -61q26 -35 41 -73q34 36 75 69q34 28 74.5 56
t85.5 45q49 19 104 26.5t111 3t110 -20.5t102 -44q51 -30 81.5 -76t43.5 -99.5t11 -110.5t-15.5 -109.5t-36 -96.5t-49.5 -71q-39 -38 -92 -62t-113.5 -37.5t-123.5 -17.5t-121 -2q-30 1 -58.5 8.5t-54 19.5t-48.5 27t-42 30q-22 17 -42.5 37.5t-39.5 43.5l-533 -365
q1 -15 1 -32.5t2 -35t8 -34.5t20 -31q21 -23 60 -37t84 -21.5t91.5 -9.5t83.5 0q66 2 140 11t150 21.5t150.5 28.5t141.5 32q79 19 158 40t158 44z" />
    <glyph glyph-name="nine" unicode="9" horiz-adv-x="1878" 
d="M1462 394l-12 84l-21 138q-5 31 -17.5 59t-33.5 49t-50.5 34t-68.5 14q-36 1 -67.5 -11t-55.5 -33t-37 -50t-11 -62q2 -35 27.5 -73.5t61 -71.5t73.5 -56.5t64 -29.5q41 -9 63 -10.5t35 1.5t23 8.5t27 9.5zM1731 566l10 -103l37 -277q-106 -32 -208 -59t-205 -50
q-87 -20 -182.5 -37t-191.5 -28.5t-188 -15t-172 3.5q-107 10 -185 32t-133 50.5t-90 61t-56 63.5t-31.5 57.5t-16.5 43.5q-9 25 -15 59.5t-5.5 78.5t8 98.5t25.5 119.5q13 48 49.5 119t85.5 152.5t104.5 165.5t106.5 158.5t92 131.5t61 84h358q-82 -112 -153.5 -213
t-135.5 -198q-54 -81 -105 -163.5t-90 -155.5t-61.5 -131.5t-19.5 -91.5q6 -69 29 -112.5t51 -67.5q30 -26 82.5 -39.5t146.5 -16.5q55 -2 105 4t110 16q-15 12 -29.5 24.5t-28.5 26.5q-24 23 -50.5 53t-49.5 62q-16 22 -24.5 56.5t-8 75.5t11 86t32.5 89t55.5 84t80.5 71
q146 96 275.5 119t244.5 -15q57 -19 100 -56.5t73.5 -81t49 -88t26.5 -77.5t14 -79.5t11 -89.5z" />
    <glyph glyph-name="colon" unicode=":" horiz-adv-x="554" 
d="M454 1283v-286h-354v286h354zM454 527v-286h-354v286h354z" />
    <glyph glyph-name="semicolon" unicode=";" horiz-adv-x="689" 
d="M589 331l-258 -482l-231 -5l131 487h358zM577 873v-286h-354v286h354z" />
    <glyph glyph-name="less" unicode="&#x3c;" horiz-adv-x="880" 
d="M100 527v260l680 389v-336l-389 -182l389 -184v-336z" />
    <glyph glyph-name="equal" unicode="=" horiz-adv-x="1037" 
d="M122 597h815l-22 -247h-815zM122 990h815l-22 -247h-815z" />
    <glyph glyph-name="greater" unicode="&#x3e;" horiz-adv-x="881" 
d="M781 787v-260l-681 -389v336l389 184l-389 182v336z" />
    <glyph glyph-name="question" unicode="?" horiz-adv-x="1200" 
d="M227 1111l-48 -25l-79 276q29 19 64 35.5t77 32.5q70 26 172 50.5t243 30.5q66 3 126.5 -4t110.5 -22t88.5 -37t60.5 -49q32 -39 45 -84.5t13 -94t-11 -97t-28 -93t-37 -82t-38 -63.5q-32 -47 -69.5 -75t-77 -49.5t-80 -44.5t-79.5 -60q-39 -38 -57.5 -73t-26.5 -62
q-9 -32 -6 -60l-293 -15q-2 48 3 96q4 42 12.5 88.5t28.5 86.5q19 37 57 72.5t81.5 66.5t85.5 57t69 45t56.5 47.5t50 61t25.5 67t-16 66.5q-7 11 -31.5 16t-60 5.5t-78 -3.5t-85 -11.5t-81.5 -17.5t-67 -22q-36 -16 -66.5 -30t-53.5 -26zM446 347q39 0 73 -15t59.5 -40.5
t40 -59.5t14.5 -73q0 -38 -14.5 -70.5t-40 -56.5t-59.5 -38t-73 -14t-73 14t-58.5 38t-38.5 56.5t-14 70.5q0 39 14 73t38.5 59.5t58.5 40.5t73 15z" />
    <glyph glyph-name="at" unicode="@" horiz-adv-x="1730" 
d="M1250 1268h-853l-4 -990q0 -35 39 -35h1198l-67 -243h-1271q-188 0 -188 179l-4 1340l1325 3q66 0 107.5 -34t41.5 -104v-1001l-822 8q-23 0 -42.5 9t-33.5 24t-22.5 34.5t-8.5 41.5v599l655 7v77q0 33 -10.5 59t-39.5 26zM929 627h371v237h-371q-18 0 -18 -20v-195
q0 -22 18 -22z" />
    <glyph glyph-name="A" unicode="A" horiz-adv-x="2420" 
d="M471 343q18 -17 68 -28t119.5 -18t151.5 -10.5t165 -4.5q193 -3 429 6v229q0 46 -1.5 96.5t-4 97.5t-6.5 87.5t-9 67.5q-75 -24 -149 -54.5t-149 -58.5q-65 -24 -135.5 -52t-142.5 -58.5t-143 -63.5t-136 -67q-58 -30 -80 -54.5t-22 -45t14.5 -37.5t30.5 -32zM1634 1245
l686 271v-1516h-310l-11 1077l-293 -113q12 -63 19.5 -137t12 -153t6 -159.5t1.5 -155.5l-1 -357q-103 -1 -199 -1h-193h-168.5t-173 -0.5t-164.5 -0.5h-143q-138 0 -242.5 24t-177 67t-115.5 103t-58 132q-9 44 -2 93.5t32 99.5t68 99t106 93q33 23 94 54t137.5 66
t163.5 72.5t173 73.5q103 43 209 85.5t224 88.5q-17 34 -66.5 54.5t-118 29.5t-150 7t-162.5 -12q-106 -13 -210 -37.5t-198 -51.5l9 -245l-319 91l4 342q32 17 71 34t85 34q79 28 198 60t284 55q157 22 290.5 26t244 -23t199.5 -91.5t158 -178.5z" />
    <glyph glyph-name="B" unicode="B" horiz-adv-x="1801" 
d="M300 1537h776l20 -1239l293 1q2 18 3 67.5t1 114.5t-0.5 136.5t-1.5 131.5q0 18 -3 58.5t-7.5 95t-11 119t-13 130.5t-13.5 129t-13 115.5t-11 89.5t-8 51h314q13 -78 24 -162.5t19 -181.5q7 -81 14 -177t11.5 -205t4.5 -230t-7 -251q-4 -78 -7.5 -133t-9 -91.5
t-14.5 -57.5t-24.5 -31.5t-39.5 -13t-58 -2.5h-371h-379l-22 1258l-349 -4q-4 -15 -5.5 -51.5t-1.5 -84.5t2 -102.5t4 -105.5t4.5 -94t4.5 -67q16 -199 43 -383t73 -366h-315q-69 297 -99 593.5t-27 599.5q1 118 17.5 186t43.5 103t63 44.5t76 9.5z" />
    <glyph glyph-name="C" unicode="C" horiz-adv-x="1802" 
d="M1370 614l-947 3l4 -353l938 7zM687 914l425 -4l6 396l-420 -4zM371 912q-5 116 -6 208q-1 39 -1.5 76.5t-0.5 67.5t0.5 48.5t2.5 20.5q0 43 19 80t51 64.5t75.5 43t92.5 15.5h619q44 0 81.5 -18t65 -48.5t42.5 -70t15 -82.5l-5 -412q45 -5 88 -15t79.5 -22t64.5 -25.5
t44 -25.5l4 -662q-35 -45 -81 -74.5t-98 -47.5t-107.5 -25.5t-109.5 -7.5h-866q-55 0 -101.5 13t-84 33t-66.5 42.5t-48.5 42.5t-29.5 33t-9 13l3 619q7 17 30.5 36t59.5 36t81 29t96 15z" />
    <glyph glyph-name="D" unicode="D" horiz-adv-x="1858" 
d="M197 975l-97 265q128 82 268.5 142t292.5 98q54 14 128.5 21.5t153 8t154.5 -6t133 -21.5q68 -17 139 -42t139.5 -56t132 -68t117.5 -79l-111 -247q-51 37 -119.5 74.5t-142 68t-146.5 51.5t-133 25l22 -632l-201 -12q-40 -2 -80.5 -5.5t-76 -7t-64 -8t-43.5 -8.5
q-49 -13 -85 -32t-53 -41.5t-12 -46.5t38 -47q67 -46 161.5 -64.5t201.5 -15.5t218.5 24t210.5 54q21 7 61 21.5t84 31t85.5 33.5t66.5 30l31 -306q-100 -43 -200.5 -74t-206.5 -59q-49 -13 -115.5 -21t-142.5 -11t-157.5 0t-159.5 13t-148.5 28.5t-124.5 46.5
q-45 23 -88.5 56.5t-80.5 75t-63.5 89t-37 98.5t-2.5 104.5t42 106.5q27 43 71 73t97 51t112 34t117 21.5t111.5 14t95.5 11.5l-2 370q-72 -12 -150.5 -35.5t-156 -54.5t-150.5 -67t-134 -73z" />
    <glyph glyph-name="E" unicode="E" horiz-adv-x="1797" 
d="M100 214v720l1288 21l-3 288q-16 4 -48.5 7t-74.5 4.5t-89 3t-92 2t-84 1t-64 1.5q-80 2 -158.5 -1t-152 -9t-141 -14t-125.5 -16q-69 -10 -132.5 -21t-123.5 -25v293q85 13 174 24.5t189 19.5q85 7 184.5 14t211 11.5t234 4.5t253.5 -7q117 -6 185.5 -27.5t104.5 -52.5
t46.5 -69t10.5 -78l3 -642l-1298 -22l4 -304q15 -4 54.5 -6t92 -2.5t112.5 0t116 1.5t101.5 2.5t70.5 2.5q169 6 300 20t234 31q116 19 214 45v-295q-85 -18 -176 -34t-191 -30q-85 -12 -185.5 -24t-213 -21t-235.5 -14.5t-253 -3.5q-118 1 -186 18.5t-103 45t-44.5 63.5
t-9.5 74z" />
    <glyph glyph-name="F" unicode="F" horiz-adv-x="1910" 
d="M1229 610l-580 8v276l580 7q1 18 7.5 49t13.5 66t12 71.5t3 67t-13 50.5t-36 23q-35 4 -71.5 3t-82.5 -5.5t-104 -13t-136 -18.5q-88 -12 -176 -30.5t-175 -41.5t-173.5 -49t-170.5 -52l-27 307q179 51 356 94.5t361 69.5q156 22 273 28t199.5 1t132.5 -18.5t73 -29.5
q30 -22 48 -67t25.5 -102t8 -119.5t-4 -119.5t-11.5 -103.5t-13 -69.5l256 -1l6 -281l-262 -9q7 -18 14 -59.5t11.5 -94t4 -112t-8.5 -113t-26 -97t-48 -64.5q-23 -16 -74 -29t-133.5 -17.5t-199.5 1t-271 26.5q-185 25 -361 69t-356 95l27 307q172 -54 344 -101t351 -72
q77 -11 135.5 -19t104.5 -12.5t82.5 -5.5t71.5 3q25 3 36.5 21.5t13 46.5t-3.5 61.5t-12 66.5t-13.5 61.5t-7.5 46.5z" />
    <glyph glyph-name="G" unicode="G" horiz-adv-x="1794" 
d="M1694 885l-4 -288q-10 2 -50.5 4.5t-95.5 3t-116.5 -2.5t-113.5 -11.5t-86 -24t-34 -40.5q0 -51 2.5 -99t5.5 -97l492 24l-11 -304q-166 -14 -313.5 -23t-292.5 -15q-120 -5 -243 -5.5t-233 4.5t-199.5 17t-141.5 33q-37 15 -63 49t-44 77.5t-28 92.5t-15.5 94t-7 82
t-1.5 56q0 23 -1 68t-0.5 104.5t3 131.5t9.5 149.5t19.5 156.5t32.5 154q17 64 64 108.5t114.5 74.5t149 47t168 26t172 11t160.5 2q176 0 346.5 -23.5t343.5 -55.5v-310q-166 30 -342 52t-372 24q-21 0 -60 1.5t-86 0.5t-98 -5t-97 -15t-81.5 -29.5t-51.5 -48.5
q-10 -18 -19.5 -58.5t-17.5 -95t-14 -118.5t-9.5 -130t-3 -129t5.5 -115t14.5 -89t25.5 -51q9 -8 36.5 -13.5t64.5 -8.5t79.5 -4.5t82 -2t71 -0.5h47.5q-2 23 -3.5 45t-3.5 43q-3 36 -5 74.5t-1 64.5q1 45 5.5 89t14 81.5t26 66t41.5 41.5q45 23 104.5 37.5t126.5 23t139 11
t142 1.5t134 -5t117 -9z" />
    <glyph glyph-name="H" unicode="H" horiz-adv-x="1790" 
d="M706 973l672 9q-2 26 -3 57.5t-5 63.5t-12 62t-24 53.5t-42 37t-65 13.5l-679 -9q-51 -1 -86 -24.5t-50.5 -59.5t-9.5 -80t37 -86q13 -18 47.5 -26t75.5 -10.5t80.5 -1.5t63.5 1zM1485 37q-21 -9 -60.5 -16t-88 -11t-100.5 -6t-98.5 -1t-82.5 4.5t-52 10.5t-32 20
t-31 28.5t-27.5 32.5t-21.5 32q-8 -18 -23.5 -35t-34 -32t-38.5 -27t-38 -19q-19 -7 -51 -10.5t-71.5 -4t-82.5 1.5t-83.5 7t-75 12.5t-56.5 17.5q-52 24 -88.5 56.5t-61.5 67.5t-40 71t-24 67q-8 27 -12.5 68.5t-6 86.5t-1 88t1.5 75l276 -5q-5 -29 -8 -68t0 -78
t14.5 -73.5t34.5 -54.5q18 -16 54 -24t75.5 -9t76 4t55.5 16q15 8 23 36t12 58q2 17 3 36.5t2 40.5l323 -9q0 -17 1.5 -37.5t6.5 -43.5q3 -15 8.5 -31.5t13.5 -31.5t19 -27t25 -18q31 -14 68 -15t71 8.5t60 28t35 44.5q4 12 7 33t5.5 47.5t4 55.5t2.5 58q3 67 3 145l-246 -4
q-51 -1 -106.5 -2t-109.5 -1.5t-104 -1.5t-91 -2q-98 -2 -189.5 4.5t-167.5 24t-130.5 47.5t-77.5 75q-9 17 -18.5 51t-16.5 77t-10.5 92.5t0.5 97t16 90.5t36 74t56.5 59.5t78 53t105.5 43.5t139 31q25 4 76 7.5t115.5 6.5t137.5 4.5t142 2.5t129 0.5t98 -2.5
q86 -5 151 -26t113 -57t81 -86.5t55 -114.5q14 -41 23 -109.5t14 -149.5t7 -168t1.5 -164t-2.5 -137.5t-4 -89.5q-8 -102 -23.5 -170t-39.5 -113t-56.5 -71t-72.5 -43z" />
    <glyph glyph-name="I" unicode="I" horiz-adv-x="1805" 
d="M1046 1248q-41 0 -88.5 -1t-108.5 -9t-139.5 -26t-180.5 -52l-57 -19q-26 -9 -57.5 -19t-64.5 -21l-82.5 -27.5t-94.5 -30.5l-73 286l381 119q80 25 170 45t181.5 32.5t181.5 15.5t170 -5q158 -16 257.5 -51.5t156 -81.5t77.5 -97t21 -98l8 -1206l-336 -2l6 789
l-1095 -789l-155 286l1244 866q-18 24 -55.5 42t-83 30t-94.5 18t-89 6z" />
    <glyph glyph-name="J" unicode="J" horiz-adv-x="1805" 
d="M104 1l-4 1510h312l15 -1186h109.5t106.5 2q45 1 92 2.5t93 3.5t87.5 5t74.5 7q67 8 124.5 19.5t104 35.5t81.5 64t58 106q13 39 20 109.5t9 158t0 184.5t-6 188.5t-9.5 170.5t-10.5 131l324 7q7 -120 13 -241.5t8 -243.5t-1 -243.5t-13 -241.5q-12 -137 -62 -226.5
t-134 -146t-198 -87.5t-253 -52q-55 -8 -124.5 -14t-146 -10t-155.5 -7t-154 -4q-88 -2 -177.5 -2t-183.5 1z" />
    <glyph glyph-name="K" unicode="K" horiz-adv-x="1798" 
d="M1341 727l-920 -4l-1 -403l640 -10q84 -2 142 15.5t92.5 64.5t45.5 128.5t1 208.5zM1055 0h-953l-2 1511h321v-477l1259 -17q24 -171 17 -339.5t-38 -332.5q-18 -95 -54 -161t-105 -107t-177 -59t-268 -18z" />
    <glyph glyph-name="L" unicode="L" horiz-adv-x="1798" 
d="M1680 461l-1270 -17v-440h-310l2 1507q55 0 122.5 0.5t140 1t146.5 1t143 0.5h163.5t167.5 1q160 1 276 -17.5t194.5 -60t125 -107.5t68.5 -160q33 -143 41.5 -266.5t5.5 -223.5q-2 -58 -5.5 -112.5t-10.5 -106.5zM410 1205v-450l942 -4q1 37 0 96t-8.5 120.5t-22.5 115
t-41 78.5q-14 13 -43 22t-68 15t-84.5 8.5t-91.5 2.5q-69 0 -132.5 0.5t-123.5 0.5q-50 0 -101 -0.5t-95 -1t-78.5 -1.5t-52.5 -2z" />
    <glyph glyph-name="M" unicode="M" horiz-adv-x="1798" 
d="M1065 1181l-7 -470h-317l-8 470q-19 1 -48.5 7.5t-63.5 13.5t-69 12t-63.5 3.5t-48 -13t-22.5 -36.5q-4 -35 -4.5 -71.5t2.5 -82.5t9.5 -104.5t16.5 -135.5q6 -45 16.5 -100.5t23.5 -115.5t28 -121.5t30 -118.5l75 -276l-316 -27l-32 129q-6 24 -12 47.5t-10.5 42
t-7.5 30t-3 12.5q-14 56 -28 118t-26.5 126t-24 127.5t-20.5 121.5q-24 155 -30.5 272t-1.5 199.5t19 133t31 73.5q22 30 68 48t102.5 26t119 8.5t118.5 -3.5t99.5 -11.5t63.5 -14.5l190 -44l160 44q24 7 69.5 14t101 11.5t116 4.5t116 -8.5t100 -26t68.5 -48.5
q18 -23 31.5 -73t18 -132.5t-2 -199.5t-28.5 -273q-9 -58 -20.5 -121.5t-24.5 -127.5t-27 -126t-28 -118l-65 -261l-316 27l75 276q15 57 30 118.5t28 121.5t23.5 115.5t16.5 100.5q10 77 16.5 135.5t9.5 104.5t2.5 82.5t-4.5 71.5q-3 25 -22.5 36t-48 13t-63.5 -3t-69 -12
t-64 -13.5t-48 -7.5z" />
    <glyph glyph-name="N" unicode="N" horiz-adv-x="553" 
d="M457 1449v-286h-353v286h353z" />
    <glyph glyph-name="O" unicode="O" horiz-adv-x="1791" 
d="M1333 622l-626 7v296l626 8q1 19 7.5 48t13.5 62t12.5 66.5t3.5 61.5t-13 46.5t-37 21.5q-69 8 -176.5 -3t-263.5 -31q-45 -6 -101.5 -17t-118 -25.5t-125 -31t-121.5 -33.5l-284 -84l-28 306l270 74q57 16 121 31.5t129 30t129.5 26.5t122.5 21q154 23 279.5 29t218.5 1
t153 -19t83 -30q31 -22 48.5 -64.5t25.5 -95t8 -110t-4.5 -110.5t-11.5 -96t-13 -66l-44 -160l44 -170q7 -18 14 -60.5t11.5 -97.5t4 -117t-8.5 -118t-26 -101t-48 -66q-23 -16 -82.5 -29.5t-153 -18.5t-219 0.5t-279.5 28.5q-58 9 -122 20t-129 24t-129.5 27t-122.5 28
l-271 65l28 307l285 -75q59 -15 122.5 -30t125 -28t118 -23.5t101.5 -16.5q156 -20 263.5 -31t176.5 -3q26 3 37 23t13 50t-3.5 66t-12.5 71.5t-13.5 65.5t-7.5 49z" />
    <glyph glyph-name="P" unicode="P" horiz-adv-x="1916" 
d="M1288 361v808q-74 21 -153 32.5t-159.5 12.5t-159.5 -9t-151 -32v-799q158 -47 311 -53.5t312 40.5zM1816 1265l-78 -251l-151 65l4 -635l145 107l79 -254q-23 -18 -59 -40t-80.5 -45t-94 -46.5t-99 -44.5t-96.5 -38t-86 -27q-77 -21 -160 -30t-164 -9t-155.5 8
t-134.5 21q-49 11 -105.5 29t-114.5 40t-114.5 45.5t-105 46t-87 41.5t-59.5 31l97 250l170 -64l-4 634l-164 -107l-98 254q45 30 113 65t145.5 68.5t158 62.5t149.5 46q76 19 159 27.5t164 9t155.5 -7t134.5 -20.5q49 -11 103 -29t107.5 -39.5t104.5 -45t94 -45.5t76 -41
t51 -32z" />
    <glyph glyph-name="Q" unicode="Q" horiz-adv-x="1806" 
d="M421 743l951 3v470h-621q-94 0 -152 -8t-92 -31.5t-49 -65.5t-23 -111q-2 -22 -4.5 -64.5t-5.5 -85.5q-2 -25 -2.5 -51.5t-1.5 -55.5zM775 1519h920l11 -1515h-333v440l-1256 17q-7 52 -10.5 106.5t-5.5 114.5q-3 100 6.5 226t41.5 267q22 94 62.5 160t112.5 106.5
t181.5 59t269.5 18.5z" />
    <glyph glyph-name="R" unicode="R" horiz-adv-x="1786" 
d="M1349 389l-1234 866l145 288l1095 -791l-6 789l336 -2l-8 -1205q0 -45 -21 -96.5t-77 -98t-156 -82.5t-258 -51q-81 -7 -169.5 -3.5t-178.5 15.5t-178 31.5t-167 43.5l-140 42q-29 9 -60.5 18.5t-62 19.5t-58.5 20t-51 19l54 276q48 -14 109 -31t116 -32l131 -35
q72 -19 146.5 -36.5t143.5 -31t128 -21.5t99 -8q81 0 140 15t101 33q48 21 81 48z" />
    <glyph glyph-name="S" unicode="S" horiz-adv-x="1785" 
d="M101 1539l335 2l-5 -789l1115 791l134 -267l-1223 -867q27 -30 63.5 -50.5t77 -34t82 -21t79.5 -10.5q60 -5 130 0t142.5 17.5t143.5 31t134 40.5l303 106l73 -276l-321 -119q-69 -26 -147.5 -45.5t-161.5 -31t-167.5 -15t-164.5 4.5q-161 16 -277 52t-191 81.5
t-111 96.5t-36 98l-4 456q-1 94 -1.5 195.5t-1 200t-0.5 189v164.5z" />
    <glyph glyph-name="T" unicode="T" horiz-adv-x="1817" 
d="M1372 716q8 68 11.5 129t4.5 120.5t-1 120t-5 127.5q-49 3 -115 5.5t-138.5 4.5t-146.5 2t-138 -2t-113 -6.5t-71 -12.5q-65 -23 -103.5 -54t-61 -72t-32.5 -94.5t-18 -120.5q-7 -60 -12 -129t-8 -139.5t-3 -140t3 -131.5q52 -4 119.5 -7.5t140.5 -5.5t146.5 -2t137.5 2
t113.5 7.5t74.5 14.5q65 23 104 60.5t61 86.5t32 109t18 128zM122 15q-11 112 -18.5 225.5t-8 227t6.5 227t25 224.5q22 138 53 246t87 185t145.5 122t227.5 57q131 11 263.5 13.5t265 -1t265 -10.5t263.5 -15q20 -215 22.5 -428.5t-29.5 -427.5q-21 -138 -52 -253
t-87.5 -199.5t-146 -136.5t-226.5 -64q-126 -11 -259 -13t-267.5 1t-268.5 8.5t-261 11.5z" />
    <glyph glyph-name="U" unicode="U" horiz-adv-x="1796" 
d="M1384 898l-950 -2l-4 -175l-330 2v793h327l3 -312l1250 -8q6 -100 11.5 -209t6.5 -219t-4 -218t-21 -205q-18 -112 -74.5 -180t-142.5 -104.5t-197 -48.5t-238 -12q-50 0 -116 6.5t-140 18.5t-151.5 27.5t-150.5 33.5q-34 8 -67.5 15.5t-65.5 15.5q-57 14 -117.5 28.5
t-108.5 27.5l22 282q26 -6 56.5 -13t63 -14l65 -14t62.5 -13l143 -30q77 -16 158 -31t154.5 -26t134 -17t98.5 -4q150 7 223.5 53t84.5 131q13 103 13 210.5t2 210.5z" />
    <glyph glyph-name="V" unicode="V" horiz-adv-x="1801" 
d="M107 1241q70 2 133 3t123 -1l100 -4t92.5 -6t75 -9.5t47.5 -13.5q9 -6 15.5 -34t9 -66.5t1.5 -82.5t-5.5 -83.5t-13.5 -69.5t-22 -39q-20 -14 -58 -16.5t-77 0.5q-23 2 -46.5 4.5t-49.5 6.5l15 154l-302 -9q-9 -62 -18.5 -133t-16 -147t-9.5 -153.5t1.5 -152t17 -142.5
t36.5 -125q15 -36 60.5 -59.5t106 -37t129.5 -19t131 -7t110 -0.5t68 1q36 0 108 0.5t163.5 5.5t193.5 18t198 39q66 18 113.5 62.5t78.5 110.5t48 151t22 183t-0.5 207t-18.5 223l-325 -5q10 -79 14.5 -151.5t4.5 -138.5q0 -56 -4 -112t-15 -104t-29.5 -84t-46.5 -51
q-44 -24 -95 -35.5t-107 -16t-115.5 -5t-119.5 -2.5q-53 -2 -110 -2.5t-109.5 3t-96 12.5t-68.5 27q-5 3 -8 13.5t-4.5 25t-2 32t-0.5 35.5q0 20 1 43t3 48l91 -2q38 -1 78 -1t67 2q46 3 92 9.5t85.5 18t69 28t43.5 40.5q29 50 43 131t17.5 172t-2 181t-16.5 158
q-11 67 -50.5 117t-99 83.5t-134.5 50t-156 16.5h-455v-295v0zM1607 1248h-32t-45 0.5t-53 1t-55 0.5l-139 2q0 7 -5 31t-12.5 55t-16 66t-16 64t-12.5 48t-5 20h334l57 -288v0z" />
    <glyph glyph-name="W" unicode="W" horiz-adv-x="1794" 
d="M107 1239v297h455q73 0 147 -16.5t135.5 -50t104 -83.5t53.5 -117q7 -46 13.5 -102t10.5 -116.5t4.5 -121.5t-4 -117t-16 -104t-30.5 -81q-16 -28 -54 -46.5t-88.5 -29.5t-108 -16t-113 -6.5t-103.5 0t-79 3.5q-1 -14 -3 -44t-2 -61.5t3.5 -58t12.5 -33.5
q24 -18 67 -26.5t96 -11.5t110.5 -2.5t110.5 0.5q52 0 110 0.5t116 6t112.5 17.5t98.5 35q29 15 48 45t30.5 67.5t17 79.5t7.5 81.5t1.5 73.5t-0.5 55q0 22 -3.5 79t-10 133t-15.5 162t-20.5 165.5t-24.5 143.5t-28 97h346q32 -189 56 -377t24 -379q0 -74 -2 -152
t-10.5 -152.5t-26 -143t-47.5 -123t-75 -93t-109 -53.5q-97 -23 -199.5 -35.5t-194 -18.5t-163 -7.5t-106.5 -1.5q-20 0 -68 -1t-110 0.5t-131 7.5t-130 19.5t-106 36.5t-60 59q-21 51 -33 116t-17 135.5t-4.5 142.5t5.5 138q1 19 3.5 43.5t5.5 51t6.5 53.5t6.5 52l16 121
l302 9l-15 -154q28 -5 53.5 -7.5t49.5 -4.5q20 -2 41 -2t39.5 2t33.5 6t24 11q11 9 18 39t10.5 70t3.5 84.5t-3.5 83t-9.5 66t-14 32.5q-18 11 -51.5 18t-77 11t-93 5.5t-98.5 1.5q-58 0 -120 -1.5t-131 -5.5z" />
    <glyph glyph-name="X" unicode="X" horiz-adv-x="1820" 
d="M1381 1223q-2 5 -29 10t-71.5 10t-103 9t-124 6.5t-134 3t-133.5 -1.5q-54 -2 -104 -4t-91 -5.5t-71.5 -10.5t-46.5 -19q-33 -24 -50 -56.5t-21.5 -68.5t1.5 -73.5t19 -72.5l973 -15q1 30 0 76t-3 91t-5 79.5t-6 41.5zM1347 18q-22 -3 -76.5 -2.5t-129.5 3.5t-163.5 9
t-178.5 13q-43 4 -85 7l-84 6q-36 3 -74.5 6t-77 5.5t-75.5 5.5t-68 6l13 286q33 -3 72 -6.5t79.5 -7t81.5 -7t78 -6.5l176 -15q93 -8 184.5 -13t167 -6.5t128.5 1.5t68 12q8 5 12.5 28.5t6.5 56.5t1.5 71.5t-1.5 74.5t-2.5 65t-2.5 42l-1192 35q-46 47 -69.5 110
t-30.5 131.5t-0.5 137.5t20.5 128q22 94 68 158t125 103.5t194.5 59t276.5 24.5q59 2 133.5 2t152.5 -1.5t155 -5t142.5 -8.5t114.5 -11.5t71 -14.5q57 -22 88.5 -67t45.5 -96.5t16.5 -103t2.5 -85.5q1 -130 5 -241.5t4 -214.5q0 -88 -2 -175t-8 -159.5t-15.5 -124.5
t-24.5 -70q-29 -35 -67 -60t-81 -41.5t-87.5 -27t-87.5 -17.5z" />
    <glyph glyph-name="Y" unicode="Y" horiz-adv-x="1798" 
d="M1698 293v-273q-29 -1 -64.5 -2t-74 -1.5t-77.5 -1t-75 -0.5l-175 -2q-74 -1 -154 7.5t-149.5 32.5t-118.5 66.5t-60 110.5q-7 44 -11.5 99t-5.5 114.5t2 120.5t10 116.5t19 102t29 78.5q15 28 55 45t93.5 26t115 12t119 2t106.5 -4.5t78 -6.5q2 34 3 64t1 58q0 23 -1 46
t-2.5 42t-4.5 32t-7 16q-26 18 -67.5 27.5t-92.5 12.5t-109 2.5t-116 -1.5q-52 -1 -114 -1.5t-123.5 -5t-119 -16.5t-100.5 -36q-29 -16 -48.5 -49t-32.5 -75t-19.5 -88.5t-9.5 -90.5t-3.5 -81t-0.5 -59t3.5 -75.5t9.5 -124t16 -150t22 -152t27.5 -131t33.5 -86.5h-326
q-33 175 -56 346t-23 349q0 75 2 155.5t10.5 159.5t26 152t47 132.5t74.5 101t109 57.5t131.5 27t133.5 18t127.5 10.5t114 5.5t93 2h64.5q19 0 67.5 -1t110.5 -5.5t131 -14t130 -26.5t106 -42.5t60 -62.5q23 -56 35.5 -124.5t16.5 -144t1.5 -154.5t-9 -156.5t-15.5 -150
t-18 -134.5l-312 -10l15 155q-35 3 -66 4.5t-60 3.5q-24 1 -48.5 1t-44.5 -1.5t-34.5 -4.5t-18.5 -8q-6 -7 -11.5 -31t-9 -57t-5.5 -70t-0.5 -70t6.5 -56.5t15 -29.5q18 -11 54.5 -19t83.5 -13t101 -8.5t108 -4.5q64 -2 132.5 -2.5t143.5 1.5z" />
    <glyph glyph-name="Z" unicode="Z" horiz-adv-x="1797" 
d="M951 298l412 8q2 70 3 134t1 124v100t-1 92.5t-2 73.5t-3 44q-26 -8 -79 -28t-122.5 -48.5t-149.5 -63t-160 -72t-153.5 -75.5t-130 -72.5t-90.5 -64t-34 -49.5q0 -32 33 -51.5t83.5 -31t111.5 -16.5t117.5 -6t101 0.5t62.5 1.5zM189 1067l-89 281q98 51 217.5 88.5
t245.5 61.5t251 35.5t235 11.5q76 0 144.5 -8t131 -29.5t119 -60t107.5 -99.5q57 -68 86.5 -153.5t42.5 -178t14.5 -186.5t0.5 -178l-6 -650l-990 -2q-56 0 -122 7t-132 23.5t-128 44t-110 68.5t-76.5 97t-28.5 129q0 77 40 149t107.5 138t157 125t189 111t203 95.5t199 79
t176.5 61t137 41.5q-50 38 -118.5 57t-148 24t-166.5 -2.5t-172.5 -22.5t-167 -35.5t-150 -42.5t-120 -43t-79.5 -37z" />
    <glyph glyph-name="bracketleft" unicode="[" horiz-adv-x="733" 
d="M100 934q0 178 17 323t39 260q12 66 26.5 126t30.5 117h420l-2 -230l-178 -4q-11 -48 -20 -95.5t-17 -98.5q-14 -87 -24.5 -193t-8.5 -212q0 -37 2.5 -85.5t6 -103.5t8 -113t9.5 -113q5 -66 11.5 -132.5t13.5 -136.5l175 -9l11 -234h-439q-11 60 -21.5 125.5t-19.5 140.5
q-15 131 -27.5 296.5t-12.5 371.5z" />
    <glyph glyph-name="backslash" unicode="\" horiz-adv-x="1072" 
d="M100 1508h317l555 -1508l-308 6z" />
    <glyph glyph-name="bracketright" unicode="]" horiz-adv-x="733" 
d="M633 934q0 -206 -13 -371.5t-28 -296.5q-9 -75 -19 -140.5t-21 -125.5h-439l11 234l175 9q7 70 13.5 136.5t11.5 132.5q5 55 9.5 113t8.5 113t6.5 103.5t2.5 85.5q1 53 -1.5 106.5t-7.5 105.5t-11.5 101t-13.5 92q-8 51 -17 98.5t-19 95.5l-179 4l-2 230h421
q16 -57 30 -117t26 -126q22 -115 39 -260t17 -323z" />
    <glyph glyph-name="asciicircum" unicode="^" horiz-adv-x="1098" 
d="M568 1996l430 -560l-201 -155l-234 335l-266 -324l-197 160z" />
    <glyph glyph-name="underscore" unicode="_" horiz-adv-x="1160" 
d="M1060 126v-244l-960 -8v252h960z" />
    <glyph glyph-name="grave" unicode="`" horiz-adv-x="899" 
d="M799 1452h-364l-335 340h471z" />
    <glyph glyph-name="a" unicode="a" horiz-adv-x="2420" 
d="M471 343q18 -17 68 -28t119.5 -18t151.5 -10.5t165 -4.5q193 -3 429 6v229q0 46 -1.5 96.5t-4 97.5t-6.5 87.5t-9 67.5q-75 -24 -149 -54.5t-149 -58.5q-65 -24 -135.5 -52t-142.5 -58.5t-143 -63.5t-136 -67q-58 -30 -80 -54.5t-22 -45t14.5 -37.5t30.5 -32zM1634 1245
l686 271v-1516h-310l-11 1077l-293 -113q12 -63 19.5 -137t12 -153t6 -159.5t1.5 -155.5l-1 -357q-103 -1 -199 -1h-193h-168.5t-173 -0.5t-164.5 -0.5h-143q-138 0 -242.5 24t-177 67t-115.5 103t-58 132q-9 44 -2 93.5t32 99.5t68 99t106 93q33 23 94 54t137.5 66
t163.5 72.5t173 73.5q103 43 209 85.5t224 88.5q-17 34 -66.5 54.5t-118 29.5t-150 7t-162.5 -12q-106 -13 -210 -37.5t-198 -51.5l9 -245l-319 91l4 342q32 17 71 34t85 34q79 28 198 60t284 55q157 22 290.5 26t244 -23t199.5 -91.5t158 -178.5z" />
    <glyph glyph-name="b" unicode="b" horiz-adv-x="1801" 
d="M300 1537h776l20 -1239l293 1q2 18 3 67.5t1 114.5t-0.5 136.5t-1.5 131.5q0 18 -3 58.5t-7.5 95t-11 119t-13 130.5t-13.5 129t-13 115.5t-11 89.5t-8 51h314q13 -78 24 -162.5t19 -181.5q7 -81 14 -177t11.5 -205t4.5 -230t-7 -251q-4 -78 -7.5 -133t-9 -91.5
t-14.5 -57.5t-24.5 -31.5t-39.5 -13t-58 -2.5h-371h-379l-22 1258l-349 -4q-4 -15 -5.5 -51.5t-1.5 -84.5t2 -102.5t4 -105.5t4.5 -94t4.5 -67q16 -199 43 -383t73 -366h-315q-69 297 -99 593.5t-27 599.5q1 118 17.5 186t43.5 103t63 44.5t76 9.5z" />
    <glyph glyph-name="c" unicode="c" horiz-adv-x="1802" 
d="M1370 614l-947 3l4 -353l938 7zM687 914l425 -4l6 396l-420 -4zM371 912q-5 116 -6 208q-1 39 -1.5 76.5t-0.5 67.5t0.5 48.5t2.5 20.5q0 43 19 80t51 64.5t75.5 43t92.5 15.5h619q44 0 81.5 -18t65 -48.5t42.5 -70t15 -82.5l-5 -412q45 -5 88 -15t79.5 -22t64.5 -25.5
t44 -25.5l4 -662q-35 -45 -81 -74.5t-98 -47.5t-107.5 -25.5t-109.5 -7.5h-866q-55 0 -101.5 13t-84 33t-66.5 42.5t-48.5 42.5t-29.5 33t-9 13l3 619q7 17 30.5 36t59.5 36t81 29t96 15z" />
    <glyph glyph-name="d" unicode="d" horiz-adv-x="1801" 
d="M1389 1235l-293 1l-20 -1236h-776q-40 0 -76 9t-63 43.5t-43.5 102t-17.5 185.5q-3 303 27 599.5t99 593.5h315q-46 -182 -73 -366t-43 -383q-2 -25 -4.5 -67.5t-4.5 -93.5t-4 -105.5t-2 -102.5t1.5 -84.5t5.5 -51.5l349 -4l22 1258h379h371q34 0 58 -2.5t39.5 -13
t24.5 -31.5t14.5 -57.5t9 -91.5t7.5 -133q7 -131 7 -251.5t-4.5 -229.5t-11.5 -205t-14 -177q-8 -97 -19 -180t-24 -161h-314q3 13 8 50t11 89t13 115t13.5 128.5t13 130t11 119t7.5 95t3 58.5q1 60 1.5 131.5t0.5 136.5t-1 114.5t-3 67.5z" />
    <glyph glyph-name="e" unicode="e" horiz-adv-x="1797" 
d="M100 214v720l1288 21l-3 288q-16 4 -48.5 7t-74.5 4.5t-89 3t-92 2t-84 1t-64 1.5q-80 2 -158.5 -1t-152 -9t-141 -14t-125.5 -16q-69 -10 -132.5 -21t-123.5 -25v293q85 13 174 24.5t189 19.5q85 7 184.5 14t211 11.5t234 4.5t253.5 -7q117 -6 185.5 -27.5t104.5 -52.5
t46.5 -69t10.5 -78l3 -642l-1298 -22l4 -304q15 -4 54.5 -6t92 -2.5t112.5 0t116 1.5t101.5 2.5t70.5 2.5q169 6 300 20t234 31q116 19 214 45v-295q-85 -18 -176 -34t-191 -30q-85 -12 -185.5 -24t-213 -21t-235.5 -14.5t-253 -3.5q-118 1 -186 18.5t-103 45t-44.5 63.5
t-9.5 74z" />
    <glyph glyph-name="f" unicode="f" horiz-adv-x="1910" 
d="M1229 610l-580 8v276l580 7q1 18 7.5 49t13.5 66t12 71.5t3 67t-13 50.5t-36 23q-35 4 -71.5 3t-82.5 -5.5t-104 -13t-136 -18.5q-88 -12 -176 -30.5t-175 -41.5t-173.5 -49t-170.5 -52l-27 307q179 51 356 94.5t361 69.5q156 22 273 28t199.5 1t132.5 -18.5t73 -29.5
q30 -22 48 -67t25.5 -102t8 -119.5t-4 -119.5t-11.5 -103.5t-13 -69.5l256 -1l6 -281l-262 -9q7 -18 14 -59.5t11.5 -94t4 -112t-8.5 -113t-26 -97t-48 -64.5q-23 -16 -74 -29t-133.5 -17.5t-199.5 1t-271 26.5q-185 25 -361 69t-356 95l27 307q172 -54 344 -101t351 -72
q77 -11 135.5 -19t104.5 -12.5t82.5 -5.5t71.5 3q25 3 36.5 21.5t13 46.5t-3.5 61.5t-12 66.5t-13.5 61.5t-7.5 46.5z" />
    <glyph glyph-name="g" unicode="g" horiz-adv-x="1794" 
d="M1694 885l-4 -288q-10 2 -50.5 4.5t-95.5 3t-116.5 -2.5t-113.5 -11.5t-86 -24t-34 -40.5q0 -51 2.5 -99t5.5 -97l492 24l-11 -304q-166 -14 -313.5 -23t-292.5 -15q-120 -5 -243 -5.5t-233 4.5t-199.5 17t-141.5 33q-37 15 -63 49t-44 77.5t-28 92.5t-15.5 94t-7 82
t-1.5 56q0 23 -1 68t-0.5 104.5t3 131.5t9.5 149.5t19.5 156.5t32.5 154q17 64 64 108.5t114.5 74.5t149 47t168 26t172 11t160.5 2q176 0 346.5 -23.5t343.5 -55.5v-310q-166 30 -342 52t-372 24q-21 0 -60 1.5t-86 0.5t-98 -5t-97 -15t-81.5 -29.5t-51.5 -48.5
q-10 -18 -19.5 -58.5t-17.5 -95t-14 -118.5t-9.5 -130t-3 -129t5.5 -115t14.5 -89t25.5 -51q9 -8 36.5 -13.5t64.5 -8.5t79.5 -4.5t82 -2t71 -0.5h47.5q-2 23 -3.5 45t-3.5 43q-3 36 -5 74.5t-1 64.5q1 45 5.5 89t14 81.5t26 66t41.5 41.5q45 23 104.5 37.5t126.5 23t139 11
t142 1.5t134 -5t117 -9z" />
    <glyph glyph-name="h" unicode="h" horiz-adv-x="1798" 
d="M733 349l8 469h317l7 -469q18 -1 47.5 -7.5t63.5 -13.5t69 -12.5t64 -3.5t48.5 13t22.5 37q4 34 4.5 71t-2.5 83t-9.5 104.5t-16.5 135.5q-6 45 -16.5 100.5t-23.5 115.5t-28 121.5t-30 118.5l-75 275l316 28l65 -261q14 -56 28 -118t27 -126t24.5 -127.5t20.5 -121.5
q22 -155 28.5 -271.5t1.5 -199.5t-18.5 -134t-30.5 -73q-22 -29 -67 -46t-101 -25t-117.5 -9t-117.5 3t-101 10.5t-67 12.5l-160 45l-190 -45q-19 -7 -62.5 -13.5t-99.5 -10t-118.5 -2.5t-119.5 9.5t-103 25.5t-68 45q-17 21 -30.5 72t-18.5 135t1.5 201.5t29.5 269.5
q9 58 20 121.5t24 127.5t27 126t28 118l65 261l316 -28l-75 -275q-15 -57 -30 -118.5t-28 -121.5t-23.5 -115.5t-16.5 -100.5q-10 -77 -16.5 -135.5t-9.5 -104.5t-2.5 -83t4.5 -71q3 -26 22.5 -37t48 -13t63.5 3.5t69 12.5t64 13.5t48 7.5z" />
    <glyph glyph-name="i" unicode="i" horiz-adv-x="1805" 
d="M1046 1248q-41 0 -88.5 -1t-108.5 -9t-139.5 -26t-180.5 -52l-57 -19q-26 -9 -57.5 -19t-64.5 -21l-82.5 -27.5t-94.5 -30.5l-73 286l381 119q80 25 170 45t181.5 32.5t181.5 15.5t170 -5q158 -16 257.5 -51.5t156 -81.5t77.5 -97t21 -98l8 -1206l-336 -2l6 789
l-1095 -789l-155 286l1244 866q-18 24 -55.5 42t-83 30t-94.5 18t-89 6z" />
    <glyph glyph-name="j" unicode="j" horiz-adv-x="1805" 
d="M104 1l-4 1510h312l15 -1186h109.5t106.5 2q45 1 92 2.5t93 3.5t87.5 5t74.5 7q67 8 124.5 19.5t104 35.5t81.5 64t58 106q13 39 20 109.5t9 158t0 184.5t-6 188.5t-9.5 170.5t-10.5 131l324 7q7 -120 13 -241.5t8 -243.5t-1 -243.5t-13 -241.5q-12 -137 -62 -226.5
t-134 -146t-198 -87.5t-253 -52q-55 -8 -124.5 -14t-146 -10t-155.5 -7t-154 -4q-88 -2 -177.5 -2t-183.5 1z" />
    <glyph glyph-name="k" unicode="k" horiz-adv-x="1798" 
d="M1341 727l-920 -4l-1 -403l640 -10q79 -1 136.5 16.5t93 64t48.5 128t3 208.5zM1055 0h-953l-2 1511h321v-477l1259 -17q24 -171 17 -339.5t-38 -332.5q-18 -95 -54 -161t-105 -107t-177 -59t-268 -18z" />
    <glyph glyph-name="l" unicode="l" horiz-adv-x="1798" 
d="M1680 461l-1270 -17v-440h-310l2 1507q55 0 122.5 0.5t140 1t146.5 1t143 0.5h163.5t167.5 1q160 1 276 -17.5t194.5 -60t125 -107.5t68.5 -160q33 -143 41.5 -266.5t5.5 -223.5q-2 -58 -5.5 -112.5t-10.5 -106.5zM410 1215v-460l942 -4q0 25 -0.5 61.5t-2.5 77.5
t-6 83.5t-12 81t-20.5 69t-30.5 47.5q-14 13 -43 22t-68 15t-84.5 8.5t-91.5 2.5q-69 0 -132.5 0.5t-123.5 0.5q-50 0 -101 -0.5t-95 -1t-78.5 -1.5t-52.5 -2z" />
    <glyph glyph-name="m" unicode="m" horiz-adv-x="1808" 
d="M1381 325l15 1186h312l-4 -1510q-94 -1 -183.5 -1t-177.5 2q-75 1 -154.5 4t-156 7t-146 10t-123.5 14q-139 21 -253 52t-197.5 87.5t-134 146t-62.5 226.5q-11 120 -13.5 241.5t-0.5 243.5t8 243.5t13 241.5l324 -7q-5 -51 -10 -130t-9.5 -170.5t-6.5 -189t0 -185.5
t8.5 -158.5t20.5 -108.5q23 -65 58 -105.5t81.5 -64.5t103.5 -35.5t125 -19.5q33 -4 74.5 -7t87 -5t93 -3.5t92.5 -2.5q54 -1 106.5 -1.5t109.5 -0.5z" />
    <glyph glyph-name="n" unicode="n" horiz-adv-x="1796" 
d="M845 1254l-412 -8q-2 -72 -3 -135.5t-1 -123.5v-100.5v-91.5t1.5 -73t4.5 -44q26 8 79 28t122.5 48.5t149.5 63t160 72t153.5 75.5t130 72.5t90.5 64t34 49.5q0 32 -33 52t-83.5 31.5t-111.5 16t-117.5 5.5t-101 -0.5t-62.5 -1.5zM1607 485l89 -281q-98 -51 -217.5 -88.5
t-245.5 -61.5t-251 -35.5t-235 -11.5q-75 0 -144 7.5t-131.5 29.5t-119 60t-107.5 100q-56 68 -85.5 153.5t-43 178t-15 186.5t-0.5 178l6 650l990 2q56 0 122 -7t132 -23.5t128 -44t110 -68.5t76.5 -97t28.5 -129q0 -77 -40 -149t-107.5 -138t-157 -125t-189 -110.5
t-203 -95.5t-199 -79t-177 -61t-136.5 -42q50 -38 118.5 -57t148 -24t166.5 2.5t172.5 22.5t167 35.5t150 42.5t120 43t79.5 37z" />
    <glyph glyph-name="o" unicode="o" horiz-adv-x="1794" 
d="M471 343q13 -12 59 -20.5t111 -13.5t143.5 -7.5t157.5 -2.5q94 0 196.5 1.5t217.5 5.5q2 51 3 100.5t1 100.5v87t-0.5 89t-1.5 85t-3 75l-126 -43q-26 -9 -54 -18.5t-55 -18.5t-51.5 -17.5t-43.5 -15.5q-66 -24 -135.5 -52.5t-135.5 -57.5t-124.5 -57t-101.5 -51
q-58 -31 -80 -56t-22 -45.5t15 -37t30 -30.5zM1686 942l4 -356q1 -74 1.5 -153t1 -156t0.5 -147.5v-127.5q-62 0 -137.5 -0.5t-156.5 -0.5t-164.5 -0.5t-160.5 -0.5h-371q-137 0 -241.5 24t-177.5 67t-116 103t-58 132q-9 44 -2 96.5t31.5 106t67.5 105.5t107 96
q67 46 154 92.5t205 95.5t273 101t359 109q-17 30 -52.5 48.5t-81 28t-97 12.5t-100 1.5t-90 -5t-66.5 -6.5q-106 -13 -202 -37.5t-187 -50.5l3 -243l-332 88l4 343q69 37 149 66t163.5 51t167 38t158.5 27q108 16 219.5 21t215.5 -8t196 -48.5t161 -101.5t110 -166.5
t42 -243.5z" />
    <glyph glyph-name="p" unicode="p" horiz-adv-x="1916" 
d="M1288 361v808q-74 21 -153 32.5t-159.5 12.5t-159.5 -9t-151 -32v-799q158 -47 311 -53.5t312 40.5zM1816 1265l-78 -251l-151 65l4 -635l145 107l79 -254q-23 -18 -59 -40t-80.5 -45t-94 -46.5t-99 -44.5t-96.5 -38t-86 -27q-77 -21 -160 -30t-164 -9t-155.5 8
t-134.5 21q-49 11 -105.5 29t-114.5 40t-114.5 45.5t-105 46t-87 41.5t-59.5 31l97 250l170 -64l-4 634l-164 -107l-98 254q45 30 113 65t145.5 68.5t158 62.5t149.5 46q76 19 159 27.5t164 9t155.5 -7t134.5 -20.5q49 -11 103 -29t107.5 -39.5t104.5 -45t94 -45.5t76 -41
t51 -32z" />
    <glyph glyph-name="q" unicode="q" horiz-adv-x="1806" 
d="M421 743l951 3v470h-621q-94 0 -152 -8t-92 -31.5t-49 -65.5t-23 -111q-2 -22 -4.5 -64.5t-5.5 -85.5q-2 -25 -2.5 -51.5t-1.5 -55.5zM775 1519h920l11 -1515h-333v440l-1256 17q-7 52 -10.5 106.5t-5.5 114.5q-3 100 6.5 226t41.5 267q22 94 62.5 160t112.5 106.5
t181.5 59t269.5 18.5z" />
    <glyph glyph-name="r" unicode="r" horiz-adv-x="1786" 
d="M1349 389l-1234 866l145 288l1095 -791l-6 789l336 -2l-8 -1205q0 -45 -21 -96.5t-77 -98t-156 -82.5t-258 -51q-81 -7 -169.5 -3.5t-178.5 15.5t-178 31.5t-167 43.5l-140 42q-29 9 -60.5 18.5t-62 19.5t-58.5 20t-51 19l54 276q48 -14 109 -31t116 -32l131 -35
q72 -19 146.5 -36.5t143.5 -31t128 -21.5t99 -8q81 0 140 15t101 33q48 21 81 48z" />
    <glyph glyph-name="s" unicode="s" horiz-adv-x="1785" 
d="M101 1539l335 2l-5 -789l1115 791l134 -267l-1223 -867q27 -30 63.5 -50.5t77 -34t82 -21t79.5 -10.5q60 -5 130 0t142.5 17.5t143.5 31t134 40.5l303 106l73 -276l-321 -119q-69 -26 -147.5 -45.5t-161.5 -31t-167.5 -15t-164.5 4.5q-161 16 -277 52t-191 81.5
t-111 96.5t-36 98l-4 456q-1 94 -1.5 195.5t-1 200t-0.5 189v164.5z" />
    <glyph glyph-name="t" unicode="t" horiz-adv-x="1807" 
d="M427 1189l-15 -1186h-312l4 1510q94 1 183.5 1t177.5 -2q75 -2 154 -4.5t155.5 -6.5t146 -10t124.5 -14q139 -21 253 -52t198 -87.5t134 -146t62 -226.5q10 -120 13 -241.5t1 -242.5t-8 -241.5t-13 -239.5l-324 2q5 52 10.5 131.5t9.5 171t6 188.5t0 184t-9 157.5
t-20 109.5q-22 64 -57 104.5t-81.5 64.5t-104.5 36t-125 20q-33 4 -74.5 6.5t-87.5 4.5t-93 3.5t-92 3.5q-54 2 -106.5 2h-109.5z" />
    <glyph glyph-name="u" unicode="u" horiz-adv-x="1796" 
d="M1384 898l-950 -2l-4 -175l-330 2v793h327l3 -312l1250 -8q6 -100 11.5 -209t6.5 -219t-4 -218t-21 -205q-18 -112 -74.5 -180t-142.5 -104.5t-197 -48.5t-238 -12q-50 0 -116 6.5t-140 18.5t-151.5 27.5t-150.5 33.5q-34 8 -67.5 15.5t-65.5 15.5q-57 14 -117.5 28.5
t-108.5 27.5l22 282q26 -6 56.5 -13t63 -14l65 -14t62.5 -13l143 -30q77 -16 158 -31t154.5 -26t134 -17t98.5 -4q150 7 223.5 53t84.5 131q13 103 13 210.5t2 210.5z" />
    <glyph glyph-name="v" unicode="v" horiz-adv-x="1801" 
d="M107 1241q70 2 133 3t123 -1l100 -4t92.5 -6t75 -9.5t47.5 -13.5q9 -6 15.5 -34t9 -66.5t1.5 -82.5t-5.5 -83.5t-13.5 -69.5t-22 -39q-20 -14 -58 -16.5t-77 0.5q-23 2 -46.5 4.5t-49.5 6.5l15 154l-302 -9q-9 -62 -18.5 -133t-16 -147t-9.5 -153.5t1.5 -152t17 -142.5
t36.5 -125q15 -36 60.5 -59.5t106 -37t129.5 -19t131 -7t110 -0.5t68 1q36 0 108 0.5t163.5 5.5t193.5 18t198 39q66 18 113.5 62.5t78.5 110.5t48 151t22 183t-0.5 207t-18.5 223l-325 -5q10 -79 14.5 -151.5t4.5 -138.5q0 -56 -4 -112t-15 -104t-29.5 -84t-46.5 -51
q-44 -24 -95 -35.5t-107 -16t-115.5 -5t-119.5 -2.5q-53 -2 -110 -2.5t-109.5 3t-96 12.5t-68.5 27q-5 3 -8 13.5t-4.5 25t-2 32t-0.5 35.5q0 20 1 43t3 48l91 -2q38 -1 78 -1t67 2q46 3 92 9.5t85.5 18t69 28t43.5 40.5q29 50 43 131t17.5 172t-2 181t-16.5 158
q-11 67 -50.5 117t-99 83.5t-134.5 50t-156 16.5h-455v-295v0zM1607 1248h-32t-45 0.5t-53 1t-55 0.5l-139 2q0 7 -5 31t-12.5 55t-16 66t-16 64t-12.5 48t-5 20h334l57 -288v0z" />
    <glyph glyph-name="w" unicode="w" horiz-adv-x="1794" 
d="M107 1239v297h455q73 0 147 -16.5t135.5 -50t104 -83.5t53.5 -117q7 -46 13.5 -102t10.5 -116.5t4.5 -121.5t-4 -117t-16 -104t-30.5 -81q-16 -28 -54 -46.5t-88.5 -29.5t-108 -16t-113 -6.5t-103.5 0t-79 3.5q-1 -14 -3 -44t-2 -61.5t3.5 -58t12.5 -33.5
q24 -18 67 -26.5t96 -11.5t110.5 -2.5t110.5 0.5q52 0 110 0.5t116 6t112.5 17.5t98.5 35q29 15 48 45t30.5 67.5t17 79.5t7.5 81.5t1.5 73.5t-0.5 55q0 22 -3.5 79t-10 133t-15.5 162t-20.5 165.5t-24.5 143.5t-28 97h346q32 -189 56 -377t24 -379q0 -74 -2 -152
t-10.5 -152.5t-26 -142.5t-47.5 -123t-75 -93.5t-109 -53.5q-96 -23 -198.5 -35.5t-194 -18.5t-163.5 -7.5t-107 -1.5q-20 0 -68 -1t-110 0.5t-131 7.5t-130 19.5t-106 36.5t-60 59q-21 51 -33 116t-17 135.5t-4.5 142.5t5.5 138q1 19 3.5 43.5t5.5 51t6.5 53.5t6.5 52
l16 121l302 9l-15 -154q28 -5 53.5 -7.5t49.5 -4.5q20 -2 41 -2t39.5 2t33.5 6t24 11q11 9 18 39t10.5 70t3.5 84.5t-3.5 83t-9.5 66t-14 32.5q-18 11 -51.5 18t-77 11t-93 5.5t-98.5 1.5q-58 0 -120 -1.5t-131 -5.5z" />
    <glyph glyph-name="x" unicode="x" horiz-adv-x="1820" 
d="M1381 1223q-2 5 -29 10t-71.5 10t-103 9t-124 6.5t-134 3t-133.5 -1.5q-54 -2 -104 -4t-91 -5.5t-71.5 -10.5t-46.5 -19q-33 -24 -50 -56.5t-21.5 -68.5t1.5 -73.5t19 -72.5l973 -15q1 30 0 76t-3 91t-5 79.5t-6 41.5zM1347 18q-22 -3 -76.5 -2.5t-129.5 3.5t-163.5 9
t-178.5 13q-43 4 -85 7l-84 6q-36 3 -74.5 6t-77 5.5t-75.5 5.5t-68 6l13 286q33 -3 72 -6.5t79.5 -7t81.5 -7t78 -6.5l176 -15q93 -8 184.5 -13t167 -6.5t128.5 1.5t68 12q8 5 12.5 28.5t6.5 56.5t1.5 71.5t-1.5 74.5t-2.5 65t-2.5 42l-1192 35q-46 47 -69.5 110
t-30.5 131.5t-0.5 137.5t20.5 128q22 94 68 158t125 103.5t194.5 59t276.5 24.5q59 2 133.5 2t152.5 -1.5t155 -5t142.5 -8.5t114.5 -11.5t71 -14.5q57 -22 88.5 -67t45.5 -96.5t16.5 -103t2.5 -85.5q1 -130 5 -241.5t4 -214.5q0 -88 -2 -175t-8 -159.5t-15.5 -124.5
t-24.5 -70q-29 -35 -67 -60t-81 -41.5t-87.5 -27t-87.5 -17.5z" />
    <glyph glyph-name="y" unicode="y" horiz-adv-x="1798" 
d="M1698 293v-273q-29 -1 -64.5 -2t-74 -1.5t-77.5 -1t-75 -0.5l-175 -2q-74 -1 -154 7.5t-149.5 32.5t-118.5 66.5t-60 110.5q-7 44 -11.5 99t-5.5 114.5t2 120.5t10 116.5t19 102t29 78.5q15 28 55 45t93.5 26t115 12t119 2t106.5 -4.5t78 -6.5q2 34 3 64t1 58q0 23 -1 46
t-2.5 42t-4.5 32t-7 16q-26 18 -67.5 27.5t-92.5 12.5t-109 2.5t-116 -1.5q-52 -1 -114 -1.5t-123.5 -5t-119 -16.5t-100.5 -36q-29 -16 -48.5 -49t-32.5 -75t-19.5 -88.5t-9.5 -90.5t-3.5 -81t-0.5 -59t3.5 -75.5t9.5 -124t16 -150t22 -152t27.5 -131t33.5 -86.5h-326
q-33 175 -56 346t-23 349q0 75 2 155.5t10.5 159.5t26 152t47 132.5t74.5 101t109 57.5t131.5 27t133.5 18t127.5 10.5t114 5.5t93 2h64.5q19 0 67.5 -1t110.5 -5.5t131 -14t130 -26.5t106 -42.5t60 -62.5q23 -56 35.5 -124.5t16.5 -144t1.5 -154.5t-9 -156.5t-15.5 -150
t-18 -134.5l-312 -10l15 155q-35 3 -66 4.5t-60 3.5q-24 1 -48.5 1t-44.5 -1.5t-34.5 -4.5t-18.5 -8q-6 -7 -11.5 -31t-9 -57t-5.5 -70t-0.5 -70t6.5 -56.5t15 -29.5q18 -11 54.5 -19t83.5 -13t101 -8.5t108 -4.5q64 -2 132.5 -2.5t143.5 1.5z" />
    <glyph glyph-name="z" unicode="z" horiz-adv-x="1797" 
d="M951 298l412 8q2 70 3 134t1 124v100t-1 92.5t-2 73.5t-3 44q-26 -8 -79 -28t-122.5 -48.5t-149.5 -63t-160 -72t-153.5 -75.5t-130 -72.5t-90.5 -64t-34 -49.5q0 -32 33 -51.5t83.5 -31t111.5 -16.5t117.5 -6t101 0.5t62.5 1.5zM189 1067l-89 281q98 51 217.5 88.5
t245.5 61.5t251 35.5t235 11.5q76 0 144.5 -8t131 -29.5t119 -60t107.5 -99.5q57 -68 86.5 -153.5t42.5 -178t14.5 -186.5t0.5 -178l-6 -650l-990 -2q-56 0 -122 7t-132 23.5t-128 44t-110 68.5t-76.5 97t-28.5 129q0 77 40 149t107.5 138t157 125t189 111t203 95.5t199 79
t176.5 61t137 41.5q-50 38 -118.5 57t-148 24t-166.5 -2.5t-172.5 -22.5t-167 -35.5t-150 -42.5t-120 -43t-79.5 -37z" />
    <glyph glyph-name="braceleft" unicode="{" horiz-adv-x="831" 
d="M725 1635l-2 -174q-10 -3 -36 -8.5t-53 -18.5t-49 -36t-24 -60q-2 -23 -2 -61.5t1 -80.5t2.5 -82t3.5 -67q4 -57 -11.5 -117.5t-42.5 -105.5q-6 -10 -20 -18.5t-31 -15.5t-34 -12.5t-28 -9.5q-14 -5 -27.5 -8.5t-27.5 -5.5l54 -19q12 -4 21.5 -8t20.5 -9.5t26 -14
t38 -21.5q19 -11 30 -43t16.5 -75t7 -92t1.5 -94v-81t2 -53q3 -28 8.5 -57.5t15 -54.5t23 -42.5t31.5 -21.5t25.5 -6.5t24.5 1.5q11 2 21 2.5t21 2.5l-2 -162q-25 -4 -49 -6t-49 -4q-42 -3 -90 -1t-86 13q-38 10 -63.5 29t-43 43t-29 52t-20.5 56q-6 17 -7 61.5t-1 101v119
t-3 117t-11 93t-23 47.5q-18 11 -44 23t-49 21l-57 22l-4 127l62 21q26 9 53.5 23.5t46.5 32.5q12 12 17.5 41t6 68.5t-1.5 86.5t-3 95q-2 42 -1.5 92.5t6.5 101.5t21 98t43 81q12 15 34.5 26t50.5 19t60.5 13t65.5 8q38 4 78.5 6t85.5 2z" />
    <glyph glyph-name="bar" unicode="|" horiz-adv-x="499" 
d="M399 3h-299v1636l299 5v-1641z" />
    <glyph glyph-name="braceright" unicode="}" horiz-adv-x="831" 
d="M104 1461l-2 174q45 0 85.5 -2t78.5 -6q32 -3 65 -8t62 -13t51 -19t33 -26q29 -39 44 -85.5t21 -95.5t5.5 -98t-1.5 -94q-2 -48 -3.5 -95t-0.5 -87t6 -68.5t17 -40.5q19 -18 46.5 -32.5t53.5 -23.5l62 -21l-4 -127l-57 -22q-23 -9 -48.5 -21t-44.5 -23
q-15 -9 -22.5 -47.5t-10.5 -92.5t-3.5 -116.5t-0.5 -119.5t-1.5 -101.5t-6.5 -61.5q-8 -28 -19.5 -56t-29.5 -52t-44 -43t-63 -29q-38 -11 -86 -13t-90 1q-25 2 -49 4t-49 6l-2 162q11 -2 21 -2.5t21 -2.5q17 -4 25 -1.5t26 6.5q19 4 32 21.5t22 42.5t14.5 54.5t9.5 57.5
q2 17 2 53t-0.5 81t1 94t7 92t16.5 75t31 43q23 13 38 21.5t26 14t20 9.5t21 8l54 19q-14 2 -27.5 5.5t-27.5 8.5q-11 4 -27.5 9t-33 12t-30.5 15.5t-21 19.5q-13 20 -23.5 47.5t-18 57.5t-11 60.5t-1.5 57.5q1 27 3 67t2.5 82t0.5 80.5t-1 61.5q-3 37 -24.5 59.5
t-48.5 35.5t-53 19t-37 9z" />
    <glyph glyph-name="asciitilde" unicode="~" horiz-adv-x="1373" 
d="M231 737l-131 203q23 26 46.5 50.5t49.5 47.5q22 19 47.5 37.5t53 34.5t57.5 27.5t61 15.5q56 8 101.5 7.5t84 -7t72 -17.5t66 -23.5t66.5 -25t73 -22.5q58 -15 106 -7t88 28.5t72 46.5t59 47l70 -224q-21 -20 -41 -40t-41 -37q-18 -15 -36.5 -31t-37 -31t-36 -27.5
t-31.5 -19.5q-67 -34 -152 -37.5t-188 33.5q-36 13 -66.5 32t-61 35t-64.5 24t-76 -1q-29 -6 -65.5 -21.5t-69 -34t-54.5 -36t-22 -27.5z" />
    <glyph glyph-name="Euro" unicode="&#x20ac;" horiz-adv-x="1335" 
d="M1238 1420l-50 -236q-78 65 -144.5 91.5t-136.5 26.5q-152 0 -256 -74q-30 -22 -58 -52.5t-53 -72.5q-20 -34 -34 -66.5t-21 -63.5h654l-36 -178h-639v-80h623l-37 -178h-560q22 -97 66 -162.5t111 -107.5q52 -32 107.5 -47.5t118.5 -15.5q43 0 81.5 6.5t75.5 21t73 38.5
t74 60v-270q-73 -35 -143.5 -47.5t-145.5 -12.5q-224 0 -375.5 90.5t-231.5 283.5q-15 35 -27 75t-23 88h-157l37 178h95q-1 20 -1.5 40t0.5 40h-131l37 178h111q64 309 318 450q157 88 351 88q94 0 173 -21.5t154 -69.5z" />
    <glyph glyph-name="quotesinglbase" unicode="&#x201a;" horiz-adv-x="689" 
d="M589 331l-258 -482l-231 -5l131 487h358z" />
    <glyph glyph-name="florin" unicode="&#x192;" 
 />
    <glyph glyph-name="quotedblbase" unicode="&#x201e;" horiz-adv-x="1189" 
d="M589 331l-258 -482l-231 -5l131 487h358zM1089 331l-258 -482l-231 -5l131 487h358z" />
    <glyph glyph-name="ellipsis" unicode="&#x2026;" horiz-adv-x="1950" 
d="M1850 285v-285h-280v285h280zM1110 285v-285h-280v285h280zM380 285v-285h-280v285h280z" />
    <glyph glyph-name="dagger" unicode="&#x2020;" horiz-adv-x="1331" 
d="M509 1044v406h320v-406h402v-290h-402v-1074h-320v1074h-409v290h409z" />
    <glyph glyph-name="daggerdbl" unicode="&#x2021;" horiz-adv-x="1238" 
d="M498 1536h242l-5 -388l403 5v-219l-403 5v-328l403 5v-229l-403 5l5 -388h-242l5 388l-403 -5v229l403 -5v328l-403 -5v219l403 -5z" />
    <glyph glyph-name="circumflex" unicode="&#x2c6;" horiz-adv-x="1022" 
d="M909 1304v-198h-47l-346 235l-346 -235h-47v198l393 353z" />
    <glyph glyph-name="perthousand" unicode="&#x2030;" horiz-adv-x="2672" 
d="M2224 72q-73 0 -137 28t-111 77t-74.5 114t-27.5 140q0 73 27.5 138.5t74.5 114.5t111 78t137 29q72 0 135.5 -29t110.5 -78t74.5 -114.5t27.5 -138.5q0 -75 -27.5 -140t-74.5 -114t-110.5 -77t-135.5 -28zM1371 72q-73 0 -136.5 28t-111 77t-75 114t-27.5 140
q0 73 27.5 138.5t74.5 114.5t111 78t137 29q72 0 135.5 -29t110.5 -78t74.5 -114.5t27.5 -138.5q0 -75 -27.5 -140t-74.5 -114t-110.5 -77t-135.5 -28zM1186 1524h328l-860 -1524h-328zM450 696q-73 0 -137 28t-111 77t-74.5 114t-27.5 140q0 73 27.5 139t74.5 115t111 78
t137 29q72 0 135.5 -29t110.5 -78t74.5 -115t27.5 -139q0 -75 -27.5 -140t-74.5 -114t-110.5 -77t-135.5 -28zM2224 596q-9 0 -20.5 -11t-22 -32t-17.5 -52t-7 -70q0 -40 7 -71t17.5 -52.5t22 -32.5t20.5 -11q8 0 20 11t23 32.5t18.5 52.5t7.5 71q0 39 -7.5 69.5t-18.5 52
t-23 32.5t-20 11zM1371 596q-9 0 -20 -11t-21.5 -32t-17.5 -52t-7 -70q0 -40 7 -71t17.5 -52.5t21.5 -32.5t20 -11q8 0 20 11t23 32.5t18.5 52.5t7.5 71q0 39 -7.5 69.5t-18.5 52t-23 32.5t-20 11zM450 1221q-9 0 -20.5 -11t-22 -32t-17.5 -52t-7 -71t7 -71t17.5 -52t22 -32
t20.5 -11q8 0 20 11t23 32.5t18.5 52.5t7.5 70t-7.5 70t-18.5 52.5t-23 32.5t-20 11z" />
    <glyph glyph-name="Scaron" unicode="&#x160;" 
 />
    <glyph glyph-name="guilsinglleft" unicode="&#x2039;" horiz-adv-x="750" 
d="M100 822l550 453v-289l-327 -286l327 -286v-290l-550 455v243z" />
    <glyph glyph-name="OE" unicode="&#x152;" 
 />
    <glyph glyph-name="quoteleft" unicode="&#x2018;" horiz-adv-x="690" 
d="M358 1105l-258 490h358l132 -495z" />
    <glyph glyph-name="quoteright" unicode="&#x2019;" horiz-adv-x="689" 
d="M589 1595l-258 -490l-231 -5l131 495h358z" />
    <glyph glyph-name="quotedblleft" unicode="&#x201c;" horiz-adv-x="1210" 
d="M358 1105l-258 490h358l132 -495zM878 1105l-258 490h358l132 -495z" />
    <glyph glyph-name="quotedblright" unicode="&#x201d;" horiz-adv-x="1210" 
d="M590 1595l-258 -490l-232 -5l132 495h358zM1110 1595l-258 -490l-232 -5l132 495h358z" />
    <glyph glyph-name="bullet" unicode="&#x2022;" horiz-adv-x="802" 
d="M171 801q0 48 18.5 90.5t51 74t75.5 50t92 18.5t92 -18.5t75.5 -50t51 -74t18.5 -90.5t-18.5 -91t-51 -74.5t-75.5 -50t-92 -18.5t-92 18.5t-75.5 50t-51 74.5t-18.5 91z" />
    <glyph glyph-name="endash" unicode="&#x2013;" horiz-adv-x="1363" 
d="M1263 911v-262h-1163v262h1163z" />
    <glyph glyph-name="emdash" unicode="&#x2014;" horiz-adv-x="2243" 
d="M2143 911v-262h-2043v262h2043z" />
    <glyph glyph-name="tilde" unicode="&#x2dc;" horiz-adv-x="1603" 
d="M231 1017l-131 203q23 23 47 45.5t50 43.5q44 36 101 71.5t117 52.5q56 16 118.5 18.5t126.5 -4t127 -19.5t121.5 -28t109.5 -30t90 -25q58 -15 106 -7t88 28.5t72 46.5t59 47l70 -224q-40 -43 -80 -80q-17 -16 -35.5 -32.5t-37.5 -30.5t-37 -25.5t-33 -17.5
q-60 -24 -116.5 -33t-110.5 -7.5t-107 12t-106 24.5q-45 12 -96.5 31t-104 35.5t-103.5 25t-94 -1.5q-29 -6 -65.5 -22t-69 -34t-54.5 -35.5t-22 -27.5z" />
    <glyph glyph-name="trademark" unicode="&#x2122;" 
 />
    <glyph glyph-name="scaron" unicode="&#x161;" 
 />
    <glyph glyph-name="guilsinglright" unicode="&#x203a;" horiz-adv-x="750" 
d="M100 414l327 286l-327 286v289l550 -453v-243l-550 -455v290z" />
    <glyph glyph-name="oe" unicode="&#x153;" 
 />
    <glyph glyph-name="Ydieresis" unicode="&#x178;" 
 />
    <glyph glyph-name="nonbreakingspace" unicode="&#xa0;" 
 />
    <glyph glyph-name="exclamdown" unicode="&#xa1;" 
 />
    <glyph glyph-name="cent" unicode="&#xa2;" 
 />
    <glyph glyph-name="sterling" unicode="&#xa3;" horiz-adv-x="1255" 
d="M1000 27q-50 -12 -101 -12q-21 0 -42 2t-43 6q-14 2 -45 11t-82 25q-48 14 -78.5 23.5t-44.5 12.5q-21 4 -43 5.5t-43 1.5q-66 0 -142.5 -25t-157.5 -77l-84 215q57 32 96 67.5t70 81.5q60 87 60 219q0 46 -12 96h-192v192h139q-11 43 -19 75t-12 54q-9 54 -9 102
q0 215 156 334q125 95 301 95q182 0 300 -103q60 -52 97 -125.5t53 -182.5l-219 -34q-9 74 -29 118.5t-52 74.5q-65 60 -154 60q-97 0 -160 -63q-62 -62 -62 -149q0 -48 11.5 -111.5t36.5 -144.5h307v-192h-261q4 -17 6 -32t2 -29q0 -78 -30 -160t-99 -170q39 6 72 6
q42 0 88 -6.5t97 -18.5q85 -20 137.5 -29.5t78.5 -9.5q32 0 77.5 14t120.5 49l71 -206q-60 -26 -98 -40t-63 -20z" />
    <glyph glyph-name="currency" unicode="&#xa4;" horiz-adv-x="1260" 
d="M745 693q0 22 -8.5 42t-23.5 35t-35 23.5t-43 8.5t-43 -8.5t-35 -23.5t-23.5 -35t-8.5 -42q0 -23 8.5 -43t23.5 -35t35 -23.5t43 -8.5t43 8.5t35 23.5t23.5 35t8.5 43zM925 542l235 -236l-140 -130l-236 244q-22 -13 -38.5 -22t-32.5 -15t-34.5 -8.5t-44.5 -2.5
q-46 0 -79.5 13t-69.5 35l-236 -246l-129 124l233 234q-23 36 -35 81t-12 87q0 26 1 46t5 38t11.5 35.5t20.5 38.5l-244 248l141 130l235 -246q36 24 74.5 31t83.5 7t83.5 -7t75.5 -29l234 234l133 -130l-235 -236q24 -38 31 -75t7 -85q0 -45 -7.5 -83.5t-30.5 -74.5z" />
    <glyph glyph-name="yen" unicode="&#xa5;" horiz-adv-x="1392" 
d="M1071 810v-80h-211l-19 -39v-61h230v-80h-230v-259q0 -222 99 -222h80v-69h-648v69h80q99 0 99 222v259h-228v80h228v63l-19 37h-209v80h169l-207 411q-38 75 -73.5 109.5t-58.5 34.5h-51v69h528v-69h-51q-52 0 -52 -36q0 -46 56 -138l176 -379l172 388q46 76 46 122
q0 43 -52 43h-48v69h415v-69h-36q-39 0 -82.5 -37t-81.5 -115l-194 -403h173z" />
    <glyph glyph-name="brokenbar" unicode="&#xa6;" horiz-adv-x="494" 
d="M394 801h-294v715h294v-715zM394 -221h-294v707h294v-707z" />
    <glyph glyph-name="section" unicode="&#xa7;" horiz-adv-x="1108" 
d="M513 101q45 0 81.5 15.5t66.5 41.5q71 63 71 170q0 66 -74.5 133t-231.5 143q-67 32 -113 68.5t-72 73.5q-53 74 -53 172q0 141 89 230q74 74 177 91q-155 68 -215 150t-60 181q0 141 91 235q92 94 269 95q69 0 123.5 -4.5t94.5 -14.5q83 -20 83 -45v-200h-77
q-5 94 -65 137t-178 46q-67 2 -107 -36.5t-40 -119.5q0 -140 276 -269q78 -37 131.5 -73.5t82.5 -75.5q28 -38 42.5 -83t14.5 -99q0 -162 -101 -275q-26 -22 -53 -39.5t-56 -31.5q120 -62 168 -131q51 -71 51 -174q0 -163 -120 -278q-121 -115 -334 -116q-55 0 -103 5
t-91 15q-82 19 -82 44v200h87q5 -94 63 -137t164 -44zM599 772q122 74 122 206v6q0 91 -67 137q-64 46 -138 46q-27 0 -51.5 -9.5t-42.5 -28.5t-29 -48.5t-11 -69.5q0 -128 217 -239z" />
    <glyph glyph-name="dieresis" unicode="&#xa8;" horiz-adv-x="1220" 
d="M1120 1525v-285h-280v285h280zM380 1525v-285h-280v285h280z" />
    <glyph glyph-name="copyright" unicode="&#xa9;" horiz-adv-x="1709" 
d="M1509 361q-100 -179 -279 -280q-88 -49 -181.5 -70.5t-193.5 -21.5t-192.5 20.5t-183.5 71.5q-179 99 -279 280q-100 178 -100 375q0 196 101 378q102 182 283 279q182 98 371 98t371 -98q181 -98 282 -279q101 -182 101 -378q0 -197 -100 -375zM852 1265q-72 0 -140 -20
t-128 -55.5t-110 -84.5t-86 -108t-56 -126t-20 -138t20 -137.5t56 -125.5t86 -108t110 -85t128 -55.5t140 -19.5t140 20t128 55.5t110 84.5t86 108t56 125.5t20 137.5t-20 138t-56 126t-86 108t-110 84.5t-128 55.5t-140 20zM1099 370q-51 -40 -111 -58t-132 -18
q-182 0 -294 117q-57 60 -94.5 139t-38.5 184q-1 102 32.5 183.5t92.5 138t138.5 86.5t171.5 29q67 -1 127.5 -18.5t109.5 -51t85.5 -83t55.5 -114.5l-177 -75q-16 40 -34 67t-41.5 43t-54.5 21.5t-74 4.5q-53 -2 -83 -11.5t-57 -32.5q-11 -9 -23.5 -27t-22.5 -42.5
t-15.5 -54.5t-2.5 -63q4 -39 9 -63.5t12.5 -42t17.5 -30t23 -27.5q18 -20 49.5 -37.5t82.5 -20.5q46 -2 77.5 2.5t59.5 24.5q15 11 26 20.5t19 22t15 30.5t14 45l195 -58q-10 -42 -27 -76t-38 -62t-45 -50.5t-48 -41.5z" />
    <glyph glyph-name="ordfeminine" unicode="&#xaa;" 
 />
    <glyph glyph-name="guillemotleft" unicode="&#xab;" horiz-adv-x="1290" 
d="M487 872h198v-47l-235 -346l235 -346v-47h-198l-353 393zM957 872h198v-47l-235 -346l235 -346v-47h-198l-353 393z" />
    <glyph glyph-name="logicalnot" unicode="&#xac;" horiz-adv-x="1108" 
d="M86 773h916v-503l-1 -1h-244v292h-671v212z" />
    <glyph glyph-name="sfthyphen" unicode="&#xad;" horiz-adv-x="1503" 
d="M1403 981v-262h-1303v262h1303z" />
    <glyph glyph-name="registered" unicode="&#xae;" horiz-adv-x="1509" 
d="M1412 361q-100 -179 -279 -280q-88 -49 -181.5 -70.5t-193.5 -21.5t-192.5 20.5t-183.5 71.5q-179 99 -279 280q-100 178 -100 375q0 196 101 378q102 182 283 279q182 98 371 98t371 -98q181 -98 282 -279q101 -182 101 -378q0 -197 -100 -375zM1254 1010
q-39 72 -89 125t-119 91q-72 39 -143.5 57.5t-144.5 18.5q-147 0 -289 -76q-35 -19 -62.5 -39t-51 -43t-44 -51.5t-40.5 -63.5q-79 -139 -79 -293q0 -76 19.5 -148.5t57.5 -142.5q37 -69 83 -114.5t115 -82.5q70 -38 142.5 -57.5t148.5 -19.5q78 0 150 19.5t141 57.5
q35 19 63 39.5t51.5 44t43.5 51t39 62.5q77 140 77 291q0 76 -15.5 140t-53.5 134zM1022 499l119 -191h-232l-76 136q-21 37 -36 64.5t-29 49.5q-12 19 -22 32t-20 20q-14 11 -27 16.5t-41 5.5h-50v-324h-195v844h295q70 0 122 -5.5t86 -17.5q35 -12 67.5 -38.5t52.5 -56.5
q41 -59 41 -129q0 -95 -68 -166q-24 -25 -54.5 -41.5t-65.5 -26.5q4 -3 7 -5.5t7 -6.5q48 -46 119 -160zM870 933q-17 23 -43 33q-14 5 -42 8.5t-76 3.5h-101v-169h110q57 0 89 7.5t46 19.5q17 15 24.5 27t7.5 32q0 11 -3 18t-12 20z" />
    <glyph glyph-name="macron" unicode="&#xaf;" horiz-adv-x="1160" 
d="M1060 1592v-252l-960 -8v260h960z" />
    <glyph glyph-name="degree" unicode="&#xb0;" horiz-adv-x="920" 
d="M588 1151q0 24 -10 46t-26.5 38t-39 25.5t-47.5 9.5q-26 0 -50 -9.5t-43 -25.5t-30 -38t-11 -46q0 -25 11 -48.5t30 -41.5t43 -29t50 -11q52 0 87.5 34.5t35.5 95.5zM820 1145q0 -72 -28.5 -135t-77 -110.5t-114 -74.5t-140.5 -27t-140.5 27t-114 74.5t-77 110.5
t-28.5 135t28.5 135t77 110t114 74t140.5 27t140.5 -27t114 -74t77 -110t28.5 -135z" />
    <glyph glyph-name="plusminus" unicode="&#xb1;" 
 />
    <glyph glyph-name="twosuperior" unicode="&#xb2;" 
 />
    <glyph glyph-name="threesuperior" unicode="&#xb3;" 
 />
    <glyph glyph-name="acute" unicode="&#xb4;" horiz-adv-x="689" 
d="M589 1595l-258 -490l-231 -5l131 495h358z" />
    <glyph glyph-name="mu" unicode="&#xb5;" 
 />
    <glyph glyph-name="paragraph" unicode="&#xb6;" horiz-adv-x="975" 
d="M221 989l-91 113l-30 175l30 198l95 106l94 105h177h379v-1681h-117v1563h-187v-1563h-128v867l-130 5z" />
    <glyph glyph-name="periodcentered" unicode="&#xb7;" horiz-adv-x="551" 
d="M109 712q0 37 13.5 70t37 58t54.5 39t67 14t67 -14t54.5 -39t37 -58t13.5 -70q0 -38 -13.5 -70.5t-37 -57.5t-54.5 -39t-67 -14t-67 14t-54.5 39t-37 57.5t-13.5 70.5z" />
    <glyph glyph-name="cedilla" unicode="&#xb8;" horiz-adv-x="1068" 
d="M355 -359v129q116 -71 174 -71q55 0 78 16.5t23 61.5q0 43 -41 57q-33 11 -93 11q-12 0 -25.5 -0.5t-28.5 -1.5l54 177h107l-35 -80q2 2 34 2q98 1 151.5 -44.5t53.5 -119.5q0 -39 -16.5 -71t-47.5 -55.5t-75.5 -36t-101.5 -12.5q-105 0 -211 38z" />
    <glyph glyph-name="onesuperior" unicode="&#xb9;" 
 />
    <glyph glyph-name="ordmasculine" unicode="&#xba;" 
 />
    <glyph glyph-name="guillemotright" unicode="&#xbb;" 
 />
    <glyph glyph-name="onequarter" unicode="&#xbc;" 
 />
    <glyph glyph-name="onehalf" unicode="&#xbd;" 
 />
    <glyph glyph-name="threequarters" unicode="&#xbe;" 
 />
    <glyph glyph-name="questiondown" unicode="&#xbf;" 
 />
    <glyph glyph-name="Agrave" unicode="&#xc0;" 
 />
    <glyph glyph-name="Aacute" unicode="&#xc1;" 
 />
    <glyph glyph-name="Acircumflex" unicode="&#xc2;" 
 />
    <glyph glyph-name="Atilde" unicode="&#xc3;" 
 />
    <glyph glyph-name="Adieresis" unicode="&#xc4;" 
 />
    <glyph glyph-name="Aring" unicode="&#xc5;" 
 />
    <glyph glyph-name="AE" unicode="&#xc6;" 
 />
    <glyph glyph-name="Ccedilla" unicode="&#xc7;" 
 />
    <glyph glyph-name="Egrave" unicode="&#xc8;" 
 />
    <glyph glyph-name="Eacute" unicode="&#xc9;" 
 />
    <glyph glyph-name="Ecircumflex" unicode="&#xca;" 
 />
    <glyph glyph-name="Edieresis" unicode="&#xcb;" 
 />
    <glyph glyph-name="Igrave" unicode="&#xcc;" 
 />
    <glyph glyph-name="Iacute" unicode="&#xcd;" 
 />
    <glyph glyph-name="Icircumflex" unicode="&#xce;" 
 />
    <glyph glyph-name="Idieresis" unicode="&#xcf;" 
 />
    <glyph glyph-name="Eth" unicode="&#xd0;" 
 />
    <glyph glyph-name="Ntilde" unicode="&#xd1;" 
 />
    <glyph glyph-name="Ograve" unicode="&#xd2;" 
 />
    <glyph glyph-name="Oacute" unicode="&#xd3;" 
 />
    <glyph glyph-name="Ocircumflex" unicode="&#xd4;" 
 />
    <glyph glyph-name="Otilde" unicode="&#xd5;" 
 />
    <glyph glyph-name="Odieresis" unicode="&#xd6;" 
 />
    <glyph glyph-name="multiply" unicode="&#xd7;" horiz-adv-x="1344" 
d="M502 700l-411 408l168 180l418 -423l408 413l168 -180l-402 -408l394 -409l-180 -168l-398 411l-409 -422l-167 191z" />
    <glyph glyph-name="Oslash" unicode="&#xd8;" 
 />
    <glyph glyph-name="Ugrave" unicode="&#xd9;" 
 />
    <glyph glyph-name="Uacute" unicode="&#xda;" 
 />
    <glyph glyph-name="Ucircumflex" unicode="&#xdb;" 
 />
    <glyph glyph-name="Udieresis" unicode="&#xdc;" 
 />
    <glyph glyph-name="Yacute" unicode="&#xdd;" 
 />
    <glyph glyph-name="Thorn" unicode="&#xde;" 
 />
    <glyph glyph-name="germandbls" unicode="&#xdf;" 
 />
    <glyph glyph-name="agrave" unicode="&#xe0;" 
 />
    <glyph glyph-name="aacute" unicode="&#xe1;" 
 />
    <glyph glyph-name="acircumflex" unicode="&#xe2;" 
 />
    <glyph glyph-name="atilde" unicode="&#xe3;" 
 />
    <glyph glyph-name="adieresis" unicode="&#xe4;" 
 />
    <glyph glyph-name="aring" unicode="&#xe5;" 
 />
    <glyph glyph-name="ae" unicode="&#xe6;" 
 />
    <glyph glyph-name="ccedilla" unicode="&#xe7;" 
 />
    <glyph glyph-name="egrave" unicode="&#xe8;" 
 />
    <glyph glyph-name="eacute" unicode="&#xe9;" 
 />
    <glyph glyph-name="ecircumflex" unicode="&#xea;" 
 />
    <glyph glyph-name="edieresis" unicode="&#xeb;" 
 />
    <glyph glyph-name="igrave" unicode="&#xec;" 
 />
    <glyph glyph-name="iacute" unicode="&#xed;" 
 />
    <glyph glyph-name="icircumflex" unicode="&#xee;" 
 />
    <glyph glyph-name="idieresis" unicode="&#xef;" 
 />
    <glyph glyph-name="eth" unicode="&#xf0;" 
 />
    <glyph glyph-name="ntilde" unicode="&#xf1;" 
 />
    <glyph glyph-name="ograve" unicode="&#xf2;" 
 />
    <glyph glyph-name="oacute" unicode="&#xf3;" 
 />
    <glyph glyph-name="ocircumflex" unicode="&#xf4;" 
 />
    <glyph glyph-name="otilde" unicode="&#xf5;" 
 />
    <glyph glyph-name="odieresis" unicode="&#xf6;" 
 />
    <glyph glyph-name="divide" unicode="&#xf7;" horiz-adv-x="1503" 
d="M738 981q-34 0 -63.5 12.5t-51.5 34t-34.5 51t-12.5 63.5q0 33 12.5 62.5t34.5 51t51.5 34t63.5 12.5t63.5 -12.5t51.5 -34t35 -51t13 -62.5q0 -34 -13 -63.5t-35 -51t-51.5 -34t-63.5 -12.5zM1403 900v-250h-1303v250h1303zM738 236q-34 0 -63.5 12.5t-51.5 34t-34.5 51
t-12.5 62.5q0 34 12.5 63t34.5 51t51.5 34.5t63.5 12.5t63.5 -12.5t51.5 -34.5t35 -51t13 -63q0 -33 -13 -62.5t-35 -51t-51.5 -34t-63.5 -12.5z" />
    <glyph glyph-name="oslash" unicode="&#xf8;" horiz-adv-x="1241" 
 />
    <glyph glyph-name="ugrave" unicode="&#xf9;" 
 />
    <glyph glyph-name="uacute" unicode="&#xfa;" horiz-adv-x="1241" 
 />
    <glyph glyph-name="ucircumflex" unicode="&#xfb;" horiz-adv-x="1382" 
 />
    <glyph glyph-name="udieresis" unicode="&#xfc;" horiz-adv-x="1382" 
 />
    <glyph glyph-name="yacute" unicode="&#xfd;" 
 />
    <glyph glyph-name="thorn" unicode="&#xfe;" 
 />
    <glyph glyph-name="ydieresis" unicode="&#xff;" 
 />
    <glyph glyph-name="_24" 
 />
    <glyph glyph-name="_127" 
 />
    <glyph glyph-name="_129" 
 />
    <glyph glyph-name="_141" 
 />
    <glyph glyph-name="Zcaron" unicode="&#x17d;" 
 />
    <glyph glyph-name="_143" 
 />
    <glyph glyph-name="_144" 
 />
    <glyph glyph-name="_157" 
 />
    <glyph glyph-name="zcaron" unicode="&#x17e;" 
 />
    <glyph glyph-name="_256" 
 />
    <glyph glyph-name="_257" 
 />
    <glyph glyph-name="_258" 
 />
    <glyph glyph-name="_259" horiz-adv-x="1241" 
 />
    <glyph glyph-name="_260" horiz-adv-x="1382" 
 />
    <glyph glyph-name="_261" horiz-adv-x="1382" 
 />
  </font>
</defs>
</svg>
